<?xml version="1.0" standalone="no"?>
<!DOCTYPE svg PUBLIC "-//W3C//DTD SVG 20010904//EN"
 "http://www.w3.org/TR/2001/REC-SVG-20010904/DTD/svg10.dtd">
<svg version="1.0" xmlns="http://www.w3.org/2000/svg"
 width="4608.000000pt" height="3072.000000pt" viewBox="0 0 4608.000000 3072.000000"
 preserveAspectRatio="xMidYMid meet">
<metadata>
Created by potrace 1.15, written by Peter Selinger 2001-2017
</metadata>
<g transform="translate(0.000000,3072.000000) scale(0.100000,-0.100000)"
fill="#000000" stroke="none">
<path d="M0 15360 l0 -15360 9153 0 9154 0 0 77 c0 49 7 93 17 118 14 34 15
41 3 50 -13 9 -19 29 -32 105 l-4 25 19 -25 c11 -14 18 -30 16 -36 -3 -6 3
-11 12 -10 12 1 16 -6 15 -21 -2 -13 2 -24 7 -24 6 -1 14 -2 20 -3 17 -2 79
-77 82 -99 2 -12 10 -22 18 -22 22 0 52 -25 80 -65 36 -51 58 -70 80 -70 19 0
25 14 21 48 -1 6 3 12 9 12 7 0 8 6 1 18 -5 10 -11 44 -12 77 -2 47 0 60 12
60 9 0 19 -21 29 -57 8 -31 18 -60 23 -64 4 -4 7 -21 7 -39 0 -17 5 -36 12
-43 9 -9 396 -12 1679 -12 l1666 0 7 113 c10 149 15 197 27 218 14 28 11 162
-5 195 -18 36 -20 82 -12 314 9 262 16 339 33 385 38 101 55 251 42 364 -26
222 -24 241 25 196 15 -14 31 -25 37 -25 5 0 9 -4 9 -9 0 -6 35 -46 78 -89 94
-96 303 -319 363 -386 24 -27 63 -68 87 -92 23 -23 42 -45 42 -49 0 -3 27 -34
59 -68 87 -91 132 -140 168 -184 72 -87 119 -148 141 -179 12 -19 27 -34 33
-34 5 0 8 -4 5 -9 -4 -5 8 -23 25 -40 17 -17 27 -31 24 -31 -4 0 4 -15 17 -33
14 -18 28 -46 32 -64 4 -17 14 -34 22 -37 10 -4 13 -13 9 -26 -5 -15 -2 -20
10 -20 13 0 16 -6 13 -25 -3 -13 -1 -22 3 -19 16 10 9 -39 -8 -58 -9 -10 -11
-18 -6 -18 13 0 10 -48 -5 -76 -7 -14 -8 -32 -3 -52 5 -17 6 -33 3 -37 -4 -4
-12 -33 -18 -66 l-11 -59 1047 0 c982 0 1047 1 1066 18 11 9 26 18 34 20 8 2
17 7 20 10 9 13 75 58 92 65 10 3 18 11 18 17 0 5 6 10 14 10 8 0 23 11 34 25
11 14 23 25 26 25 8 0 125 89 157 119 13 12 28 21 34 21 5 0 33 19 60 43 28
23 68 54 90 69 22 14 57 42 79 62 21 20 44 36 51 36 7 0 32 18 57 40 25 21 48
36 52 33 3 -3 6 -2 6 4 0 6 46 48 103 92 56 45 118 94 137 110 31 25 93 65
215 137 50 31 127 67 230 109 90 37 193 51 435 60 80 3 183 9 228 15 46 5 172
10 280 11 215 2 346 15 522 54 117 25 341 63 505 85 114 15 261 41 440 79 162
33 353 47 435 32 128 -25 246 -114 284 -216 20 -51 97 -188 108 -193 5 -2 6
-8 2 -13 -3 -5 -1 -9 5 -9 5 0 20 -17 32 -37 13 -21 27 -41 32 -44 6 -4 11
-22 12 -40 1 -19 6 -42 10 -51 5 -13 3 -18 -8 -18 -8 0 -29 -14 -46 -32 -20
-21 -31 -27 -31 -17 0 14 -50 59 -66 59 -3 0 -3 -11 0 -24 6 -23 4 -24 -29
-19 -22 3 -35 2 -35 -5 0 -6 -9 -14 -20 -17 -11 -4 -18 -11 -14 -16 4 -6 -14
-10 -48 -9 -29 1 -73 -3 -97 -9 -24 -7 -46 -9 -49 -6 -3 3 2 5 11 5 15 0 19
15 17 55 -1 3 7 13 16 22 15 15 15 18 0 28 -19 14 -21 32 -3 38 6 2 0 2 -15 0
-22 -4 -27 -1 -22 11 4 11 1 16 -10 16 -9 0 -16 5 -16 11 0 6 -6 9 -12 6 -7
-2 -28 5 -46 15 -40 22 -58 23 -66 2 -4 -9 -9 -14 -13 -11 -9 10 -43 -12 -43
-28 0 -21 -5 -19 -37 13 -22 22 -28 24 -31 11 -3 -17 -42 -29 -93 -29 -16 0
-29 -5 -29 -12 -1 -8 -6 -5 -15 5 -10 14 -20 17 -37 11 -13 -4 -27 -7 -31 -6
-5 1 -20 -7 -35 -19 -15 -11 -28 -16 -30 -11 -2 6 -12 8 -23 5 -12 -4 -26 2
-37 15 -18 21 -51 25 -64 8 -3 -6 -20 -11 -36 -12 -16 -1 -48 -5 -71 -9 -28
-4 -47 -3 -56 5 -12 10 -15 10 -15 0 0 -10 -3 -10 -15 0 -8 6 -20 8 -27 4 -7
-5 -22 -7 -33 -6 -13 2 -27 -8 -38 -25 -19 -28 -20 -28 -134 -30 -63 -1 -120
-7 -127 -12 -7 -6 -47 -9 -88 -8 -71 3 -77 2 -89 -19 -7 -13 -17 -20 -23 -17
-6 4 -28 9 -48 10 -29 3 -38 0 -38 -11 0 -9 -5 -16 -11 -16 -5 0 -7 -5 -4 -10
4 -6 11 -8 16 -5 14 9 11 -4 -8 -36 -10 -16 -23 -27 -30 -25 -7 3 -13 -1 -13
-8 0 -8 -16 -21 -35 -30 -38 -18 -46 -45 -20 -66 12 -10 13 -16 5 -24 -8 -8
-14 -7 -21 4 -8 13 -11 13 -20 -3 -5 -9 -16 -17 -24 -17 -8 0 -19 -8 -24 -18
-6 -9 -11 -12 -11 -6 0 7 -7 14 -14 17 -10 4 -13 1 -10 -7 6 -15 -23 -27 -77
-31 -20 -1 -43 -6 -50 -11 -21 -13 -82 -4 -95 14 -6 9 -18 13 -28 9 -9 -4 -16
-2 -16 4 0 5 13 15 29 20 19 7 28 16 25 24 -3 8 5 19 18 26 13 6 26 17 30 23
5 8 8 7 8 -1 0 -7 5 -13 10 -13 19 0 10 19 -12 26 l-22 7 22 17 c28 23 28 30
-3 30 -14 0 -24 3 -24 8 1 4 0 10 -1 15 -1 4 -3 12 -4 19 -1 13 -66 31 -66 19
0 -4 -15 -8 -33 -9 -53 -4 -80 -11 -88 -23 -4 -7 -16 -9 -28 -6 -12 3 -24 1
-27 -4 -3 -5 -12 -5 -23 1 -12 6 -22 5 -29 -2 -8 -8 -15 -8 -25 1 -11 9 -17 8
-27 -4 -10 -12 -16 -13 -26 -4 -8 6 -14 9 -14 5 0 -3 -12 -1 -27 5 -35 14
-103 23 -85 11 8 -6 -27 -13 -94 -20 -59 -6 -110 -16 -114 -22 -4 -6 -11 -10
-16 -9 -20 3 -35 -1 -30 -10 9 -13 -17 -58 -31 -54 -6 2 -17 -2 -24 -10 -12
-12 -15 -12 -24 -1 -6 9 -19 11 -33 7 -18 -4 -23 -11 -19 -29 4 -24 -4 -29
-45 -25 -21 3 -24 -15 -5 -22 7 -3 5 -6 -5 -6 -11 -1 -18 -9 -18 -22 0 -11 -5
-17 -10 -14 -6 4 -8 10 -5 15 3 4 -4 6 -15 3 -23 -6 -26 -19 -7 -26 9 -4 9 -6
0 -6 -6 -1 -15 4 -18 9 -11 19 -25 10 -25 -16 0 -15 -4 -23 -10 -19 -6 4 -8
15 -5 26 4 11 2 19 -5 19 -6 0 -9 -4 -5 -9 3 -5 1 -12 -4 -16 -6 -3 -7 -13 -4
-23 5 -13 3 -14 -7 -5 -10 9 -17 9 -32 0 -15 -10 -21 -9 -28 3 -8 13 -10 13
-10 -2 0 -21 -63 -60 -84 -52 -9 3 -22 1 -30 -5 -7 -6 -15 -8 -18 -5 -3 2 -8
-2 -12 -11 -3 -9 -2 -13 4 -10 6 3 10 -1 10 -9 0 -9 -4 -16 -10 -16 -5 0 -7
-7 -4 -15 4 -11 2 -13 -9 -10 -8 4 -17 -1 -21 -10 -4 -11 -12 -15 -22 -11 -10
4 -22 -1 -30 -11 -18 -24 -18 -38 1 -23 12 10 16 9 21 -5 10 -24 -9 -51 -32
-47 -16 3 -14 -1 9 -25 15 -16 24 -32 21 -36 -4 -4 -13 1 -20 11 -11 14 -15
15 -23 3 -6 -10 -10 -10 -16 -1 -5 8 -11 8 -23 -3 -10 -8 -32 -22 -51 -32 -20
-10 -30 -20 -24 -26 5 -5 818 -8 2042 -7 l2033 3 -27 29 c-14 16 -27 38 -27
50 -1 11 -6 27 -12 34 -7 10 -5 16 5 22 10 7 16 4 20 -7 4 -13 7 -14 13 -4 9
14 44 -28 77 -92 l19 -37 1555 0 c1544 0 1667 2 1648 33 -4 6 0 8 11 4 9 -4
30 2 49 13 17 11 38 20 45 20 7 0 20 7 28 15 9 8 26 15 40 15 13 0 24 5 24 10
0 6 8 10 18 10 9 0 57 20 107 45 49 25 98 45 108 45 10 0 20 7 23 15 3 8 21
17 40 21 19 3 34 9 34 13 0 4 26 15 58 26 31 11 77 29 101 42 24 13 50 23 57
23 8 0 14 4 14 9 0 5 15 12 33 16 17 4 64 22 102 40 39 18 87 41 108 50 20 10
37 21 37 26 0 5 6 6 14 3 7 -3 16 2 20 11 3 9 10 14 15 11 5 -3 11 0 14 7 4
12 84 54 218 116 37 17 70 31 73 31 3 0 6 -14 6 -31 0 -26 -12 -43 -68 -95
-71 -67 -101 -79 -202 -76 -45 0 -104 -24 -144 -60 -11 -10 -24 -18 -28 -18
-5 0 -26 -12 -48 -26 -21 -14 -43 -23 -49 -20 -5 4 -12 2 -15 -3 -8 -13 -144
-81 -162 -81 -8 0 -23 -9 -35 -21 -11 -11 -23 -18 -26 -15 -3 3 -18 -3 -33
-14 -16 -11 -35 -20 -44 -20 -9 0 -16 -4 -16 -8 0 -4 -26 -16 -58 -27 -31 -10
-77 -30 -102 -44 -24 -14 -50 -26 -57 -27 -6 -1 -38 -14 -70 -29 -32 -15 -74
-34 -93 -41 -29 -11 997 -13 6068 -14 l6102 0 0 15181 0 15181 -25 -4 c-14 -3
-25 -1 -25 4 0 5 -9 6 -20 3 -23 -7 -26 5 -7 24 10 10 7 12 -13 9 -14 -2 -30
-14 -38 -28 -12 -23 -13 -22 -6 19 l6 45 -26 -18 c-26 -16 -26 -16 -15 2 9 14
9 23 0 38 -10 15 -11 15 -7 2 3 -10 1 -20 -4 -23 -12 -7 -51 35 -44 47 3 5 -3
12 -15 15 -24 6 -24 4 -12 37 7 17 6 26 -2 30 -9 5 -9 8 1 12 10 5 8 10 -7 21
-12 8 -19 18 -16 23 3 5 -4 15 -16 24 -20 14 -20 16 -5 31 9 9 16 23 16 31 0
12 -588 14 -4382 12 l-4382 -3 -24 -80 c-40 -134 -59 -172 -121 -240 -63 -69
-117 -109 -194 -144 -55 -25 -75 -29 -122 -26 -31 2 -63 9 -70 15 -8 7 -23 9
-35 5 -13 -4 -20 -2 -20 6 0 9 -3 10 -10 3 -7 -7 -29 -8 -55 -4 -24 4 -42 3
-39 -2 3 -4 -2 -8 -11 -8 -12 0 -15 5 -11 16 4 11 2 15 -8 11 -8 -3 -31 3 -51
13 -28 14 -50 17 -88 13 -29 -3 -65 -5 -80 -4 -25 0 -27 -2 -16 -15 12 -14 11
-16 -6 -13 -11 2 -24 14 -30 26 -7 17 -16 21 -34 18 -14 -2 -31 1 -38 7 -9 7
-13 7 -13 -1 0 -10 -61 25 -68 40 -1 3 -16 3 -33 1 -17 -3 -37 2 -47 10 -9 8
-34 23 -55 32 -21 10 -54 34 -73 54 -19 20 -34 30 -34 23 0 -10 -5 -9 -20 4
-11 10 -20 15 -20 11 0 -4 -19 8 -41 28 -23 19 -46 33 -50 30 -5 -3 -9 1 -9 9
0 10 -8 13 -24 10 -19 -4 -25 0 -30 22 -4 15 -10 25 -13 22 -3 -4 -20 5 -38
18 -17 14 -35 22 -38 18 -4 -3 -7 -1 -7 5 0 6 -7 9 -15 6 -10 -4 -15 0 -15 14
0 49 -6 52 -111 52 -93 0 -99 -1 -99 -20 0 -12 -6 -33 -14 -48 -7 -15 -16 -45
-20 -67 -4 -22 -10 -51 -12 -65 -3 -14 -8 -45 -10 -70 -3 -24 -10 -52 -15 -62
-5 -9 -9 -26 -9 -38 0 -22 -29 -82 -42 -88 -5 -2 -8 -7 -8 -12 0 -5 -5 -21
-12 -37 -6 -15 -12 -46 -14 -68 -1 -22 -3 -40 -4 -40 -1 0 -4 -20 -6 -45 -2
-25 -13 -64 -24 -87 -11 -24 -20 -45 -20 -49 0 -8 -53 -78 -62 -82 -5 -2 -8
-8 -8 -13 0 -6 4 -8 9 -4 5 3 12 1 15 -4 3 -5 -1 -11 -9 -15 -8 -3 -15 -14
-15 -25 0 -10 -7 -22 -16 -25 -9 -4 -14 -9 -11 -12 3 -4 -7 -20 -24 -38 -16
-17 -34 -47 -39 -67 -6 -20 -17 -42 -25 -49 -8 -7 -15 -17 -15 -22 0 -6 7 -5
15 2 24 20 42 6 37 -29 -4 -27 -22 -45 -22 -22 0 4 -11 6 -23 4 -17 -4 -26
-15 -33 -40 -6 -23 -16 -37 -26 -39 -10 -1 -18 2 -18 7 0 6 -8 6 -19 -1 -24
-13 -41 -13 -21 0 12 7 12 12 2 22 -10 10 -15 10 -22 -2 -8 -12 -13 -11 -32 7
-29 28 -64 24 -60 -6 2 -11 -2 -21 -7 -21 -6 0 -11 -9 -11 -19 0 -11 -5 -23
-12 -27 -14 -9 -78 -12 -83 -4 -6 9 -65 11 -65 2 0 -13 -52 -1 -68 15 -7 7
-23 13 -35 14 -12 0 -34 2 -49 4 -15 2 -30 -1 -33 -6 -4 -5 -14 -5 -27 2 -15
8 -19 8 -14 0 4 -6 0 -11 -8 -11 -9 0 -16 4 -16 9 0 5 -7 12 -16 15 -8 3 -12
2 -9 -4 9 -15 -1 -12 -42 10 -21 11 -48 20 -60 20 -12 0 -24 4 -27 9 -3 5 -16
7 -28 3 -14 -3 -19 -1 -14 6 3 6 -3 16 -14 22 -11 6 -20 8 -20 6 0 -3 -19 2
-42 10 -23 8 -47 13 -53 10 -7 -2 -18 0 -26 5 -11 7 -11 9 4 9 9 0 17 5 17 10
0 6 -16 8 -40 5 -31 -4 -40 -1 -40 10 0 10 -9 13 -37 9 -20 -2 -40 -9 -44 -15
-4 -7 -8 -5 -12 5 -5 12 -12 14 -32 6 -14 -5 -25 -6 -25 0 0 15 -41 23 -54 10
-8 -10 -7 -12 7 -7 23 8 22 2 -4 -22 -13 -12 -17 -21 -10 -26 6 -3 10 -21 10
-38 -1 -18 -3 -24 -6 -15 -4 15 -6 15 -24 -3 -13 -13 -18 -27 -13 -37 12 -30
13 -63 2 -56 -7 5 -9 2 -6 -7 7 -19 -12 -45 -37 -52 -18 -4 -18 -5 3 -6 15 -1
22 -7 22 -21 0 -11 -3 -19 -7 -19 -20 3 -24 -2 -13 -16 10 -12 10 -15 -2 -15
-7 0 -19 -13 -25 -30 -8 -21 -18 -30 -35 -30 -17 0 -19 -3 -9 -9 9 -6 10 -11
2 -15 -6 -4 -9 -12 -5 -17 3 -5 10 -7 15 -4 5 4 9 -1 9 -9 0 -21 -24 -10 -40
18 -16 31 -49 23 -62 -15 -5 -16 -14 -29 -20 -29 -5 0 -6 5 -2 12 4 7 3 8 -4
4 -7 -4 -12 -13 -12 -19 0 -8 -22 -12 -68 -12 -68 0 -68 0 -49 20 18 20 18 20
-8 43 -14 12 -21 22 -15 22 7 0 9 8 5 19 -3 10 0 31 7 46 10 22 9 28 -3 37
-10 7 -7 8 12 4 19 -4 29 -1 33 10 4 11 1 14 -13 9 -20 -6 -51 3 -51 15 0 5 9
6 20 3 14 -4 20 0 20 10 0 8 6 18 13 20 9 4 9 8 -2 15 -10 7 -10 11 -1 14 7 2
13 20 14 41 0 20 4 37 8 37 8 0 4 38 -6 63 -6 12 -3 24 9 37 11 13 16 30 13
50 -3 16 -2 28 0 25 13 -13 31 19 25 46 -4 23 -2 29 12 29 16 0 16 2 4 18 -14
16 -16 66 -6 159 2 18 0 30 -4 27 -5 -3 -19 7 -31 22 -13 15 -29 32 -35 40 -7
7 -13 20 -13 29 0 9 -4 14 -9 11 -19 -12 -42 6 -35 27 5 16 3 19 -10 14 -9 -4
-16 -2 -16 3 0 6 -9 10 -20 10 -11 0 -20 5 -20 10 0 6 5 10 10 10 6 0 2 9 -8
21 -12 12 -18 28 -14 41 3 14 1 19 -6 14 -7 -4 -12 -1 -12 6 0 8 -5 6 -11 -4
-5 -10 -17 -18 -24 -18 -8 0 -15 -8 -16 -17 -1 -12 -4 -9 -8 7 l-7 25 -8 -22
c-4 -13 -11 -23 -16 -23 -5 0 -7 6 -4 14 4 10 -1 14 -15 13 -21 -1 -28 -13
-12 -19 5 -1 3 -12 -5 -23 -13 -17 -16 -18 -25 -5 -8 13 -11 12 -24 -4 -13
-17 -15 -18 -15 -3 0 9 -6 17 -14 17 -8 0 -17 6 -19 13 -3 7 -6 4 -6 -6 -1
-11 -8 -18 -18 -16 -55 5 -70 -1 -81 -33 -7 -18 -10 -23 -8 -10 2 12 0 22 -5
22 -8 0 -13 -21 -10 -46 1 -10 -25 -26 -61 -38 -10 -3 -25 3 -34 12 -10 9 -34
18 -55 18 -20 1 -42 4 -47 8 -6 3 -13 2 -17 -4 -3 -5 -23 -10 -43 -9 -32 0
-34 1 -14 9 12 5 22 17 22 26 0 12 -7 15 -30 12 -24 -4 -30 -1 -30 14 0 10 -5
18 -11 18 -6 0 -8 -9 -4 -20 4 -11 2 -20 -4 -20 -6 0 -11 7 -11 16 0 12 -6 15
-25 10 -26 -7 -32 3 -14 21 13 13 3 20 -35 27 -33 6 -42 13 -31 24 4 4 10 1
12 -6 3 -6 9 -10 14 -6 15 9 0 24 -25 24 -12 0 -32 9 -44 20 -12 12 -22 18
-22 14 0 -4 -8 0 -18 9 -10 10 -21 14 -25 11 -3 -3 -11 5 -18 18 -7 12 -19 28
-28 35 -11 9 -12 12 -3 13 7 0 10 5 7 10 -4 7 -13 4 -24 -9 -17 -19 -17 -19
-31 12 -12 28 -14 29 -21 11 -7 -18 -8 -18 -8 -1 -1 10 -16 32 -35 49 -21 18
-32 36 -29 45 4 9 -2 16 -16 20 -11 3 -19 9 -16 13 3 4 -2 13 -10 20 -8 7 -15
23 -15 37 0 13 -4 22 -9 19 -5 -3 -14 8 -20 24 -5 17 -14 30 -19 30 -12 0 -12
32 1 48 6 8 6 12 -2 12 -6 0 -11 -5 -11 -12 0 -6 -3 -8 -7 -4 -5 4 -7 11 -6
14 1 4 -6 15 -15 26 -9 10 -16 20 -14 22 1 2 2 13 2 24 0 20 -7 20 -6660 20
l-6661 0 -28 -21 c-16 -12 -35 -19 -43 -17 -17 7 -63 -17 -80 -40 -7 -11 -24
-25 -38 -32 -13 -7 -31 -19 -38 -27 -7 -7 -20 -13 -27 -13 -8 0 -16 -8 -19
-18 -8 -25 -58 -52 -63 -34 -7 20 -26 14 -20 -8 4 -15 -4 -25 -31 -42 -21 -12
-45 -32 -55 -44 -9 -13 -32 -27 -50 -33 -18 -7 -42 -26 -55 -47 -22 -34 -51
-42 -44 -13 5 21 -8 5 -26 -33 -13 -24 -25 -34 -47 -36 -16 -2 -36 -8 -42 -14
-7 -6 -19 -8 -27 -5 -8 3 -25 -2 -38 -12 -13 -10 -39 -26 -58 -36 -19 -10 -54
-38 -77 -63 -33 -36 -46 -43 -65 -39 -19 5 -35 -4 -75 -38 -29 -25 -79 -59
-112 -75 -34 -17 -61 -35 -61 -40 0 -5 -10 -12 -22 -16 -18 -5 -88 -48 -117
-70 -2 -2 -6 -18 -10 -36 -4 -18 -11 -33 -16 -33 -26 -2 -55 -18 -60 -34 -3
-10 -15 -29 -26 -42 -11 -12 -22 -34 -26 -48 -3 -14 -27 -56 -52 -94 -57 -85
-71 -111 -76 -138 -4 -19 -31 -48 -46 -49 -3 0 -13 -23 -23 -51 -13 -34 -26
-53 -42 -59 -14 -6 -24 -18 -24 -29 0 -13 -23 -38 -62 -68 -35 -26 -74 -60
-87 -76 -27 -32 -61 -95 -61 -113 0 -7 -6 -19 -13 -26 -7 -7 -37 -62 -66 -123
-30 -60 -58 -118 -62 -127 -5 -10 -9 -25 -9 -33 0 -9 -4 -14 -8 -11 -5 3 -9
-9 -10 -27 -4 -76 -9 -105 -30 -150 -12 -26 -19 -54 -16 -62 4 -8 -4 -34 -16
-57 -12 -23 -19 -50 -16 -60 2 -11 -2 -22 -10 -25 -19 -7 -78 -93 -64 -93 16
0 12 -32 -8 -65 -10 -16 -22 -50 -26 -73 -3 -24 -15 -61 -26 -81 -28 -57 -60
-157 -60 -191 0 -17 -9 -51 -20 -76 -12 -25 -18 -54 -15 -64 7 -21 -8 -88 -31
-137 -15 -33 -43 -179 -44 -224 0 -14 -23 -70 -51 -125 -45 -86 -51 -106 -51
-154 2 -64 -27 -154 -70 -218 -43 -65 -58 -99 -92 -198 -26 -75 -29 -93 -19
-103 14 -13 9 -69 -9 -104 -7 -14 -5 -24 9 -40 13 -15 13 -18 2 -9 -15 11 -15
8 -6 -31 8 -36 6 -54 -12 -105 -11 -34 -21 -68 -21 -75 0 -7 -9 -32 -20 -55
-11 -22 -20 -48 -20 -57 0 -18 -19 -57 -31 -66 -5 -3 -14 -32 -21 -64 -9 -45
-9 -60 0 -63 27 -9 8 -43 -67 -117 -44 -43 -78 -82 -75 -86 2 -5 -8 -31 -23
-60 -19 -35 -24 -53 -16 -56 9 -3 8 -14 -5 -41 -9 -20 -20 -38 -24 -40 -11 -5
-10 -32 1 -32 5 0 14 7 21 15 30 36 58 9 35 -34 -8 -17 -15 -37 -15 -46 0 -10
-9 -30 -21 -46 -12 -17 -22 -43 -23 -58 -1 -15 -12 -40 -24 -56 -26 -33 -27
-43 -6 -66 14 -15 13 -19 -10 -44 -30 -33 -32 -42 -10 -67 16 -17 15 -21 -20
-73 -20 -30 -36 -57 -36 -61 0 -3 -11 -19 -25 -36 -23 -28 -24 -30 -9 -54 15
-23 15 -26 -10 -58 -31 -42 -33 -62 -5 -69 12 -3 18 -10 15 -16 -4 -6 -1 -18
5 -29 10 -15 6 -23 -19 -49 -17 -16 -33 -45 -37 -64 -4 -21 -25 -54 -54 -86
l-48 -51 19 -39 c15 -30 16 -40 6 -48 -7 -5 -30 -30 -51 -54 -40 -49 -48 -81
-19 -81 10 0 22 -3 25 -6 8 -8 -9 -42 -37 -73 -12 -13 -16 -25 -11 -28 16 -5
5 -75 -16 -102 -14 -17 -16 -28 -9 -41 14 -27 14 -27 -38 -80 -47 -48 -92
-103 -92 -113 0 -3 12 -7 28 -9 l27 -3 -28 -27 c-21 -19 -27 -33 -22 -47 4
-14 1 -23 -9 -27 -22 -8 -20 -26 2 -22 23 4 28 -36 9 -66 -13 -20 -13 -23 0
-32 12 -8 13 -16 3 -56 -9 -36 -27 -62 -77 -113 -35 -37 -62 -70 -59 -73 3 -3
14 2 24 11 10 10 26 17 35 17 14 0 15 -4 5 -25 -14 -31 -52 -57 -72 -49 -11 4
-19 -3 -26 -22 -6 -15 -20 -34 -30 -41 -11 -8 -20 -20 -20 -28 0 -12 5 -12 35
1 44 18 45 18 45 -4 0 -22 -30 -52 -52 -52 -9 0 -23 -11 -32 -25 -9 -14 -35
-37 -58 -51 -29 -19 -37 -28 -28 -34 9 -6 5 -9 -14 -12 -14 -2 -25 -7 -24 -13
2 -5 12 -8 23 -6 50 9 60 6 57 -14 -2 -11 -9 -24 -16 -30 -6 -5 -20 -27 -29
-47 -10 -21 -22 -38 -27 -38 -5 0 -12 -11 -16 -25 -3 -14 -15 -30 -25 -36 -11
-5 -19 -16 -19 -23 0 -20 62 -84 85 -88 15 -3 19 -10 17 -28 -5 -34 -21 -52
-42 -45 -19 6 -50 -32 -50 -60 0 -21 45 -41 62 -28 7 5 21 13 31 16 15 6 14 2
-5 -23 -12 -17 -29 -30 -39 -30 -18 0 -29 -19 -29 -54 0 -12 -6 -28 -12 -35
-10 -11 -10 -14 0 -18 19 -7 14 -51 -8 -73 -22 -22 -26 -50 -8 -68 8 -8 8 -15
-2 -27 -10 -12 -10 -15 4 -15 9 0 16 -4 16 -10 0 -5 -7 -10 -16 -10 -11 0 -15
-9 -14 -32 3 -55 1 -64 -25 -103 -15 -20 -24 -40 -21 -42 3 -3 0 -15 -6 -26
-6 -12 -10 -47 -10 -79 1 -53 -4 -66 -49 -140 -27 -45 -49 -85 -49 -89 0 -4
11 -10 25 -13 22 -6 24 -9 15 -26 -6 -11 -9 -24 -6 -29 3 -5 -4 -21 -16 -37
-13 -15 -17 -25 -11 -21 16 10 27 -11 15 -26 -5 -7 -13 -26 -16 -44 -4 -17
-13 -37 -21 -43 -7 -6 -11 -19 -8 -29 3 -10 0 -22 -5 -25 -6 -3 -8 -15 -5 -26
4 -14 -2 -22 -21 -30 -14 -5 -26 -13 -26 -18 0 -5 -11 -22 -25 -38 -30 -34
-30 -40 -7 -49 15 -6 14 -8 -7 -16 -21 -8 -23 -14 -19 -59 3 -28 2 -50 -2 -50
-3 0 -17 -19 -30 -42 -24 -42 -26 -47 -29 -69 0 -5 -5 -8 -9 -5 -4 2 -14 1
-22 -5 -11 -6 -6 -9 18 -9 17 0 32 -4 32 -9 0 -5 -24 -25 -54 -45 -55 -36 -71
-60 -61 -88 4 -10 -5 -24 -25 -38 -30 -21 -31 -23 -13 -42 15 -17 15 -21 3
-29 -13 -8 -13 -11 2 -22 15 -12 14 -15 -14 -32 -30 -17 -30 -18 -11 -34 25
-20 36 -48 22 -57 -5 -3 -7 -14 -4 -24 4 -12 -1 -19 -15 -23 -12 -3 -24 -15
-27 -26 -3 -11 -11 -17 -18 -15 -7 3 -16 1 -20 -5 -3 -6 1 -14 9 -17 14 -5 13
-9 -1 -32 -9 -15 -25 -34 -36 -43 -18 -15 -18 -17 21 -53 27 -26 38 -44 35
-57 -6 -20 -23 -27 -23 -9 0 11 -30 13 -54 4 -24 -9 -19 -24 7 -24 22 0 22 0
-3 -20 -14 -11 -33 -20 -43 -20 -10 0 -15 -4 -12 -10 3 -5 15 -10 26 -10 16 0
19 -5 14 -20 -3 -11 -2 -20 3 -20 13 0 32 -71 26 -96 -3 -12 1 -26 10 -33 8
-7 12 -19 9 -27 -4 -12 -8 -12 -20 3 -8 10 -12 12 -8 6 4 -9 -3 -13 -24 -13
-16 0 -33 -4 -36 -10 -3 -5 -14 -10 -24 -10 -19 0 -39 -31 -43 -70 -2 -19 -9
-25 -28 -26 -31 0 -80 -20 -80 -32 0 -17 51 -33 65 -22 11 9 18 5 30 -14 14
-21 15 -39 9 -103 -4 -43 -8 -116 -8 -163 0 -56 -4 -89 -13 -98 -7 -7 -13 -22
-13 -33 0 -26 -32 -87 -37 -71 -7 19 -23 14 -23 -8 0 -11 7 -20 15 -20 17 0
20 -16 5 -25 -8 -5 -7 -12 2 -23 12 -15 11 -16 -5 -3 -15 12 -21 11 -42 -9
-13 -13 -22 -26 -20 -31 3 -4 1 -10 -5 -14 -6 -4 -8 -11 -5 -16 10 -15 -15
-10 -31 6 -20 20 -31 19 -43 -4 -8 -15 -5 -20 15 -30 14 -6 30 -9 35 -5 6 3 8
-17 7 -50 -2 -49 -5 -56 -23 -56 -52 0 -64 -10 -58 -48 5 -25 3 -33 -6 -28 -6
4 -9 12 -5 17 3 6 -2 9 -12 7 -14 -2 -19 4 -21 26 -3 37 -24 52 -40 29 -10
-13 -13 -14 -14 -2 -1 8 -1 17 -1 20 1 3 -10 4 -23 1 -17 -3 -25 0 -25 9 -1 8
-9 -4 -20 -26 -13 -29 -15 -42 -7 -47 7 -5 8 -8 2 -8 -6 0 -11 -9 -12 -20 -2
-22 16 -27 34 -9 9 9 8 17 -2 33 -13 19 -12 23 5 34 11 7 20 9 19 5 -4 -21 2
-34 13 -30 18 6 50 -12 43 -24 -4 -5 -10 -7 -15 -4 -15 9 -4 -24 15 -45 10
-11 15 -23 12 -27 -12 -11 -52 -11 -59 1 -5 6 -8 1 -8 -11 0 -16 -6 -23 -20
-23 -11 0 -20 5 -20 12 0 9 -3 9 -12 0 -10 -10 -10 -15 -1 -20 16 -10 14 -79
-3 -93 -8 -6 -14 -20 -14 -30 0 -11 -3 -19 -7 -20 -5 -1 -24 -2 -43 -3 -19 -2
-48 -9 -64 -18 l-28 -15 30 -31 c17 -18 34 -27 37 -22 9 14 34 0 28 -16 -3 -8
0 -21 7 -29 9 -11 9 -15 1 -15 -7 0 -17 -13 -22 -30 -11 -29 -49 -44 -49 -19
0 5 -8 9 -17 7 -10 -1 -23 1 -29 5 -7 4 -14 -1 -17 -13 -3 -11 -2 -18 2 -16 3
2 24 1 47 -3 49 -9 86 2 78 24 -3 8 -2 15 4 15 6 0 12 -6 15 -12 6 -18 -4 -49
-14 -43 -4 3 -7 -7 -5 -22 1 -16 -1 -33 -6 -39 -5 -7 2 -15 17 -22 31 -14 32
-38 3 -47 -25 -9 -57 26 -58 63 0 12 -5 22 -11 22 -5 0 -7 -5 -3 -11 5 -8 1
-8 -14 0 -28 15 -55 14 -46 -1 6 -10 5 -10 -7 -1 -12 10 -15 8 -16 -8 -1 -12
9 -25 28 -34 16 -9 29 -19 29 -24 0 -5 9 -11 20 -14 25 -6 27 -37 2 -37 -10 0
-23 -5 -29 -11 -8 -8 -13 -8 -17 0 -4 6 -21 11 -37 11 -23 0 -30 -4 -28 -17 3
-34 -1 -54 -10 -49 -14 9 -41 -4 -41 -20 0 -8 9 -14 20 -14 11 0 20 -7 20 -15
0 -9 7 -18 15 -21 8 -4 15 -12 15 -20 0 -9 8 -13 23 -10 14 2 21 10 20 21 -2
22 14 6 19 -19 2 -16 -3 -19 -24 -19 -92 3 -88 2 -94 33 -4 17 -8 30 -10 30
-1 0 -14 -4 -29 -10 -26 -10 -26 -10 -8 -34 10 -13 21 -22 26 -19 4 2 7 0 7
-5 0 -5 -9 -12 -20 -15 -15 -4 -20 -14 -20 -41 0 -21 -5 -37 -12 -38 -7 0 -19
-2 -26 -2 -7 -1 -17 -8 -22 -16 -8 -13 -11 -12 -24 5 -12 16 -17 18 -27 8 -9
-9 -10 -13 -1 -13 20 0 52 -43 52 -71 0 -28 -20 -42 -45 -33 -30 12 -15 -26
27 -65 42 -41 47 -62 8 -41 -11 6 -29 8 -40 5 -10 -3 -21 -1 -25 5 -3 5 -15
10 -26 10 -12 0 -19 7 -19 20 0 21 -8 25 -26 12 -14 -9 -27 -45 -14 -37 6 3
10 -1 10 -10 0 -8 11 -20 25 -25 14 -5 25 -17 25 -27 0 -14 2 -15 9 -5 6 11
17 5 45 -24 42 -44 46 -53 11 -30 -14 9 -25 12 -25 7 0 -6 -10 -15 -21 -22
-17 -8 -23 -8 -29 1 -9 15 -30 5 -30 -14 0 -38 52 -101 75 -92 20 7 19 4 -4
-23 -15 -17 -23 -20 -43 -12 -13 5 -30 16 -37 25 -17 20 -34 10 -25 -16 8 -27
36 -58 45 -52 4 2 15 -11 25 -31 9 -19 20 -35 25 -35 5 0 9 -7 9 -15 0 -8 5
-15 10 -15 6 0 10 -10 10 -21 0 -12 8 -28 18 -35 16 -12 15 -13 -6 -14 -12 0
-25 7 -28 15 -4 8 -12 15 -20 15 -8 0 -13 3 -12 8 1 4 -3 17 -10 30 -7 12 -11
26 -8 31 3 5 -4 11 -17 13 -20 4 -22 0 -21 -36 1 -62 2 -66 24 -66 11 0 20 -7
20 -15 0 -9 13 -29 29 -44 16 -16 27 -32 23 -36 -4 -4 5 -4 21 0 25 7 27 5 27
-26 0 -29 -4 -34 -25 -35 -21 -2 -24 1 -14 12 16 19 7 26 -38 30 -25 2 -32 0
-23 -7 12 -7 10 -9 -7 -9 -14 0 -23 6 -23 16 0 14 -2 14 -15 0 -8 -8 -12 -21
-9 -29 3 -8 0 -18 -7 -23 -7 -4 -10 -3 -6 3 9 15 -19 24 -43 15 -19 -7 -17
-10 16 -25 26 -13 34 -21 27 -28 -8 -8 -17 -8 -31 0 -10 6 -22 8 -25 4 -4 -3
-9 2 -13 11 -7 18 -25 22 -21 4 1 -6 -5 -13 -14 -15 -11 -3 -22 8 -33 31 -20
43 -20 46 2 46 14 0 15 -2 2 -10 -8 -5 -13 -10 -10 -11 56 -9 70 -8 70 6 0 8
-5 15 -11 15 -6 0 -9 7 -5 15 6 15 -5 20 -18 8 -10 -10 -60 -10 -67 1 -4 5
-11 6 -17 2 -8 -4 -8 -16 0 -37 11 -33 -2 -63 -17 -38 -5 8 -4 10 3 5 8 -5 10
-1 5 9 -5 13 -7 14 -14 3 -14 -22 -10 -38 9 -38 10 0 28 -9 41 -21 14 -14 26
-18 34 -11 18 13 88 -29 78 -47 -5 -8 -13 -11 -19 -7 -5 3 -15 -1 -22 -9 -12
-14 -44 -10 -35 5 3 5 1 11 -4 14 -5 4 -12 -3 -16 -14 -5 -16 -10 -17 -23 -9
-13 8 -26 7 -52 -8 -50 -28 -50 -45 0 -26 39 15 43 15 71 -1 23 -14 36 -15 59
-8 15 6 31 7 35 4 4 -4 6 -2 5 3 -5 24 2 30 34 32 22 1 40 -5 51 -17 19 -20
57 -16 48 6 -4 10 0 12 11 8 15 -6 15 -9 2 -29 -9 -14 -11 -26 -5 -36 5 -8 8
-32 7 -54 -1 -28 2 -39 11 -37 7 1 10 -1 7 -6 -6 -10 30 -43 38 -35 3 4 6 2 6
-4 0 -6 8 -10 18 -9 12 1 16 -5 15 -22 -2 -16 4 -25 22 -32 14 -5 25 -15 25
-21 0 -6 9 -9 20 -6 19 5 25 -4 20 -28 -1 -5 5 -14 13 -20 13 -9 13 -13 1 -30
-13 -18 -16 -18 -42 -3 -15 8 -35 14 -44 13 -10 -2 -18 1 -18 6 0 5 6 9 13 9
6 0 -1 12 -16 25 -16 14 -33 23 -38 20 -12 -8 -2 -51 22 -93 21 -37 23 -46 9
-37 -6 3 -7 -1 -4 -9 3 -9 10 -16 15 -16 5 0 9 -11 9 -25 0 -29 -12 -32 -31
-8 -9 11 -10 14 -2 9 9 -5 11 -2 7 7 -7 19 -33 15 -50 -7 -14 -19 -34 -14 -34
10 0 8 -7 14 -15 14 -8 0 -15 -9 -15 -20 0 -11 7 -20 15 -20 9 0 18 -7 21 -15
4 -8 12 -15 19 -15 7 0 15 -7 19 -15 3 -8 1 -15 -4 -15 -6 0 -10 -4 -10 -10 0
-5 7 -10 15 -10 11 0 14 -7 11 -25 -4 -21 -1 -25 20 -25 24 0 32 14 14 25 -16
10 -11 33 8 37 16 4 82 -54 82 -73 0 -5 7 -9 15 -9 9 0 15 -10 15 -26 0 -14 5
-34 11 -45 9 -19 9 -19 -10 -10 -11 6 -29 11 -41 11 -15 0 -20 5 -17 14 4 9
-8 25 -30 42 -30 22 -34 24 -30 8 4 -11 9 -32 13 -48 4 -16 13 -41 20 -55 12
-23 12 -27 -4 -33 -27 -10 -62 38 -55 75 5 26 4 29 -16 22 -12 -4 -21 -2 -21
4 0 6 5 11 10 11 6 0 10 5 10 12 0 9 -3 9 -12 0 -18 -18 -27 -14 -24 11 3 20
-1 23 -23 19 -23 -5 -24 -3 -13 10 10 13 10 17 0 21 -10 4 -10 8 2 16 10 7 11
11 3 11 -7 0 -13 6 -13 14 0 11 -10 13 -42 9 -51 -5 -51 -5 -52 -43 -1 -22 4
-30 17 -30 9 0 17 -5 17 -11 0 -7 9 -9 21 -6 24 6 49 -13 49 -36 0 -10 7 -13
20 -10 15 4 20 0 20 -16 0 -12 -6 -21 -15 -21 -8 0 -15 -4 -15 -9 0 -10 61
-41 80 -41 6 0 10 -6 8 -12 -3 -8 -23 -13 -46 -14 -23 0 -45 -4 -49 -7 -12
-12 -18 -7 -37 27 -13 25 -23 32 -37 29 -22 -6 -25 -19 -5 -30 8 -4 16 -17 18
-28 2 -13 11 -19 23 -18 11 1 23 -4 27 -10 6 -9 8 -9 8 1 0 24 28 12 35 -15 3
-15 12 -31 18 -35 9 -6 9 -10 0 -16 -9 -6 -8 -11 6 -22 16 -11 17 -15 6 -27
-19 -18 -33 -16 -47 7 -7 11 -18 20 -25 20 -11 0 -9 -11 13 -72 9 -25 54 -24
61 2 3 11 14 20 24 20 10 0 21 5 24 10 11 18 24 10 41 -25 16 -34 16 -37 -2
-50 -25 -19 -31 -18 -42 1 -7 13 -17 15 -38 10 -27 -7 -28 -8 -10 -21 11 -8
16 -21 13 -30 -5 -10 0 -15 13 -15 11 0 20 -4 20 -9 0 -5 7 -17 16 -26 16 -15
15 -18 -6 -38 -16 -15 -24 -18 -27 -9 -6 15 -30 16 -35 0 -5 -14 -48 25 -48
43 0 8 -5 8 -15 -1 -13 -10 -15 -9 -15 9 0 32 -35 27 -50 -8 -15 -36 4 -74 32
-65 14 4 20 -2 24 -25 4 -18 11 -34 16 -37 14 -9 27 14 21 37 -4 14 0 19 13
19 21 0 57 -20 37 -20 -18 0 -9 -27 17 -50 23 -20 23 -21 4 -35 -13 -10 -14
-14 -5 -15 8 0 11 -7 8 -19 -3 -15 -1 -18 11 -14 10 5 13 2 8 -6 -5 -7 -17
-11 -27 -8 -11 3 -19 1 -19 -4 0 -5 7 -9 15 -9 21 0 19 -19 -2 -27 -24 -9 -34
-26 -21 -34 17 -11 0 -42 -19 -35 -9 4 -31 9 -50 12 -26 4 -32 2 -27 -10 3 -8
14 -18 24 -21 11 -3 17 -12 14 -20 -6 -15 11 -28 44 -31 17 -2 26 3 29 17 7
25 28 19 28 -7 0 -10 7 -25 15 -31 13 -11 13 -14 0 -22 -10 -7 -19 -6 -31 5
-20 18 -29 18 -29 -1 0 -15 -5 -17 -40 -17 -37 0 -42 2 -37 17 4 8 -8 29 -28
50 -32 32 -39 46 -37 67 2 14 -29 17 -35 2 -4 -12 -8 -13 -14 -3 -6 10 -11 10
-25 -2 -15 -12 -17 -12 -12 1 3 8 -2 21 -11 28 -12 10 -13 15 -3 18 17 8 15
31 -3 38 -8 3 -15 1 -15 -5 0 -5 -10 -13 -22 -18 -19 -7 -32 -1 -70 31 -27 22
-54 41 -60 42 -20 4 -78 40 -78 49 0 4 -6 7 -14 7 -8 0 -21 6 -28 13 -40 38
-125 86 -155 87 -13 0 -30 11 -38 24 -9 13 -29 30 -46 36 -16 7 -35 20 -42 29
-7 9 -27 27 -46 41 -28 19 -37 21 -53 11 -22 -14 -26 -12 -42 20 -6 12 -15 21
-20 19 -5 -1 -13 5 -18 14 -5 9 -20 16 -33 16 -13 0 -40 9 -62 19 -21 11 -50
22 -64 25 -18 4 -29 14 -33 31 -7 29 -21 32 -31 8 -5 -15 -9 -12 -20 15 -14
32 -15 33 -40 16 -21 -14 -23 -19 -13 -32 11 -13 10 -14 -2 -10 -8 2 -15 11
-15 19 -1 28 -15 40 -35 29 -10 -5 -27 -10 -37 -9 -10 0 -13 3 -5 6 6 2 12 20
12 38 0 25 -4 32 -17 31 -12 -1 -19 7 -21 22 -3 17 -9 22 -25 20 -12 -2 -21
-9 -19 -17 1 -7 -3 -11 -10 -9 -7 3 -12 15 -10 26 2 15 -2 22 -13 22 -12 0
-15 -6 -10 -20 3 -11 2 -20 -4 -20 -25 0 -41 14 -41 36 0 13 -4 24 -10 24 -5
0 -10 -6 -10 -13 0 -23 -21 -37 -41 -26 -14 7 -16 15 -10 32 5 14 5 30 0 40
-8 13 1 27 40 64 56 53 67 69 175 228 41 61 93 136 115 168 23 31 41 59 41 61
0 3 19 33 42 68 51 77 49 73 138 220 38 64 70 118 70 121 0 3 16 29 36 58 20
30 52 85 71 123 19 37 51 94 72 125 21 31 59 95 85 142 26 48 53 92 61 99 8 7
15 16 15 20 0 10 69 125 126 211 24 36 44 73 44 82 0 9 9 21 19 27 11 5 43 53
72 106 30 53 63 105 75 117 12 12 29 37 39 56 9 18 37 58 61 88 24 29 44 58
44 63 0 6 7 18 16 28 20 22 116 149 129 171 6 9 30 43 55 75 25 33 61 82 80
110 20 28 68 94 107 146 127 168 133 177 133 188 0 5 24 35 53 65 29 30 59 69
66 88 7 19 17 42 22 52 7 13 5 17 -11 17 -11 0 -20 5 -20 11 0 5 -5 7 -10 4
-6 -3 -10 0 -10 8 0 8 -16 22 -35 33 -19 10 -35 23 -35 29 0 10 -58 51 -74 53
-5 0 -13 7 -18 16 -5 9 -13 14 -19 11 -5 -4 -9 1 -9 9 0 9 -4 16 -10 16 -5 0
-24 16 -43 35 -36 37 -50 44 -41 20 4 -8 2 -15 -4 -15 -5 0 -12 9 -15 21 -4
16 -11 19 -26 14 -12 -4 -21 -2 -21 4 0 6 -5 11 -10 11 -21 0 -122 71 -175
124 -30 29 -57 51 -60 48 -5 -5 -7 1 -9 31 -1 6 -7 18 -13 25 -7 7 -13 27 -13
43 0 16 -4 29 -10 29 -16 0 -58 94 -62 136 -2 21 -9 44 -17 50 -9 7 -12 21 -8
41 3 17 1 35 -4 40 -22 22 -38 207 -35 398 3 180 5 198 39 336 20 80 43 158
51 175 42 86 66 142 66 151 0 16 29 70 44 82 8 7 19 25 26 41 7 16 21 32 31
35 10 4 19 10 19 15 0 9 47 60 55 60 3 0 18 13 33 30 16 16 34 30 40 30 6 0
24 17 41 37 22 27 27 39 18 45 -8 5 -7 8 6 8 21 0 24 35 14 165 -2 28 0 61 3
75 4 14 4 70 0 125 -5 55 -5 105 -2 110 13 20 11 40 -5 53 -16 11 -16 12 0 12
13 0 17 10 18 43 2 78 1 251 -1 417 -2 155 -3 165 -23 180 -29 20 -45 18 -92
-11 -22 -13 -43 -24 -47 -24 -5 0 -21 -12 -37 -27 -29 -28 -61 -37 -61 -17 0
5 -5 7 -10 4 -6 -4 -7 -11 -4 -17 5 -7 -2 -9 -20 -4 -18 4 -25 3 -24 -6 2 -8
-6 -12 -24 -10 -20 3 -28 -1 -28 -12 0 -30 -25 -16 -43 24 -9 22 -17 44 -17
48 0 15 -137 20 -205 7 -22 -4 -44 -8 -50 -9 -5 -1 -15 -5 -21 -8 -16 -10 -99
-12 -189 -3 -107 10 -111 11 -144 34 -15 11 -39 22 -52 25 -76 15 -91 20 -99
36 -5 10 -20 20 -34 24 -26 6 -116 87 -116 103 0 13 -29 27 -51 24 -10 -1 -20
12 -28 39 -6 22 -17 40 -24 40 -8 0 -8 3 1 9 11 7 11 9 -2 14 -16 6 -66 79
-66 97 0 6 -9 30 -20 52 -11 23 -20 48 -20 55 0 7 -4 13 -10 13 -5 0 -10 6
-10 14 0 8 -12 24 -26 37 -14 13 -33 32 -42 43 -10 10 -29 30 -44 44 -16 14
-28 32 -28 41 0 9 -25 40 -55 70 -30 30 -55 59 -55 65 0 6 -14 20 -30 31 -40
26 -61 111 -64 260 -1 33 -5 65 -9 71 -3 6 -3 14 0 18 4 4 6 21 5 39 -1 18 5
84 14 147 8 63 18 132 21 153 4 27 10 37 23 37 31 0 49 109 25 146 -18 28 -21
122 -6 174 6 19 11 47 11 62 0 21 22 49 93 120 50 52 103 103 117 115 31 28
70 71 70 78 0 12 44 54 52 49 4 -3 8 3 8 13 0 10 22 41 50 68 27 28 50 55 50
61 0 6 16 18 35 27 19 9 35 22 35 28 0 6 8 8 20 4 12 -4 20 -2 20 5 0 6 5 8
10 5 6 -3 10 1 10 10 0 9 5 13 11 9 10 -6 31 1 82 28 11 5 21 7 24 5 2 -3 13
2 24 11 12 11 15 18 8 23 -7 4 -8 12 -5 18 10 16 26 14 26 -4 0 -8 5 -15 10
-15 6 0 10 14 10 32 0 41 26 71 50 58 13 -7 22 -4 35 10 10 11 24 20 31 20 7
0 15 6 18 13 3 6 3 1 0 -13 -6 -24 -6 -24 13 -7 11 9 22 14 26 11 8 -8 68 16
63 25 -3 4 4 12 14 19 16 10 22 8 33 -8 8 -11 17 -17 20 -13 4 3 1 13 -6 21
-7 10 -8 13 -1 9 7 -4 17 0 24 9 7 8 20 12 28 9 9 -3 19 0 23 7 6 10 13 8 28
-9 11 -11 17 -24 14 -27 -4 -3 -2 -6 4 -6 6 0 14 8 18 18 6 16 7 16 19 0 7
-10 19 -18 26 -18 7 0 0 11 -16 25 -24 21 -27 27 -14 35 10 6 11 10 3 10 -7 0
-13 7 -13 15 0 8 -4 15 -10 15 -5 0 -7 -6 -4 -13 3 -8 -2 -19 -10 -26 -11 -10
-17 -8 -28 8 -8 12 -17 18 -20 15 -3 -3 -5 3 -4 13 0 12 -6 18 -19 18 -11 1
-19 7 -17 14 2 8 -4 21 -13 31 -8 9 -13 19 -10 22 4 3 -8 10 -24 16 -17 6 -31
16 -31 23 0 6 6 9 13 6 8 -3 19 -2 26 3 8 5 3 9 -16 13 -21 4 -32 15 -43 41
-7 19 -17 33 -22 30 -11 -7 -32 16 -36 41 -2 11 -15 39 -28 63 -17 30 -22 48
-15 56 11 13 11 138 0 146 -8 6 -17 50 -31 150 -13 101 -4 370 16 443 8 32 18
86 22 120 4 34 11 65 16 68 15 9 8 143 -10 212 -5 20 -8 37 -5 37 3 0 0 6 -6
13 -6 8 -8 16 -6 19 3 3 1 17 -4 31 -6 14 -13 46 -16 71 -2 25 -8 62 -11 83
-4 21 -7 45 -7 53 1 8 -5 58 -13 110 -7 52 -16 165 -19 250 -3 85 -8 166 -9
181 -6 45 -16 230 -21 388 -4 129 -8 162 -26 197 -15 32 -25 41 -36 37 -13 -5
-15 -2 -10 11 7 17 -21 72 -31 62 -2 -3 -18 2 -34 10 -16 9 -36 13 -44 10 -8
-3 -13 -2 -10 2 3 5 0 25 -6 45 -8 25 -17 37 -30 37 -10 0 -18 -5 -18 -11 0
-5 -5 -7 -10 -4 -6 3 -23 -3 -39 -14 -21 -16 -31 -18 -34 -9 -2 7 -8 1 -12
-14 -9 -35 -41 -37 -72 -4 -13 13 -39 27 -58 30 -19 4 -35 11 -35 17 0 11 -49
59 -61 59 -4 0 -15 3 -25 7 -12 4 -15 3 -10 -5 4 -7 1 -12 -7 -12 -7 0 -19 12
-26 28 -7 15 -19 40 -27 55 -8 16 -14 37 -14 48 0 14 -7 19 -26 19 -15 0 -23
4 -19 10 4 6 16 10 27 8 12 -2 23 3 25 10 3 6 0 12 -6 12 -6 0 -11 9 -11 20 0
22 -15 27 -23 8 -4 -8 -6 -7 -6 4 -1 9 5 19 12 21 9 4 9 6 -1 6 -7 1 -10 6 -7
11 3 6 2 10 -2 10 -5 0 -14 -9 -21 -21 -13 -20 -14 -20 -32 -4 -18 16 -19 31
-5 68 5 12 2 17 -9 17 -9 0 -16 -5 -16 -12 0 -6 -9 -2 -20 10 -12 13 -20 35
-20 57 0 19 -5 35 -11 35 -7 0 -9 11 -6 26 3 17 0 28 -10 31 -12 5 -12 7 -1
15 10 7 8 8 -7 7 -33 -2 -41 1 -26 10 12 7 12 13 3 24 -7 7 -9 17 -5 20 3 4 1
7 -5 7 -7 0 -12 11 -12 25 0 14 -4 25 -10 25 -5 0 -7 -8 -4 -17 5 -17 5 -17
-9 0 -8 9 -21 17 -30 17 -19 0 -39 120 -22 132 6 5 3 8 -7 8 -10 0 -18 3 -19
8 0 4 -2 24 -4 46 -1 21 -6 41 -11 45 -5 3 -9 71 -10 151 0 80 -2 269 -3 421
-1 152 1 288 5 303 l6 26 -457 0 c-414 0 -457 -2 -451 -16 29 -75 37 -683 10
-775 -8 -30 -17 -68 -19 -85 -2 -17 -13 -69 -24 -115 -12 -46 -22 -117 -23
-156 -2 -40 -6 -73 -10 -73 -5 0 -8 -9 -8 -21 0 -11 -4 -29 -10 -39 -9 -16
-20 -71 -23 -112 -1 -10 -7 -18 -14 -18 -7 0 -13 -11 -13 -24 0 -12 -5 -37
-11 -55 -11 -32 -38 -41 -68 -22 -19 12 -59 -7 -67 -31 -3 -10 -29 -43 -57
-73 -29 -29 -73 -76 -99 -104 -27 -28 -48 -47 -48 -43 0 4 -6 -2 -13 -14 -23
-39 -56 -89 -66 -101 -12 -13 -19 -43 -25 -95 -2 -21 -8 -44 -15 -51 -6 -8
-17 -32 -25 -53 -8 -21 -15 -31 -15 -22 -1 11 -6 15 -15 12 -7 -3 -13 -11 -13
-17 1 -51 -4 -69 -19 -63 -10 4 -14 2 -11 -6 2 -7 10 -12 16 -10 7 1 11 -10 9
-31 -1 -18 1 -38 5 -44 4 -6 0 -16 -8 -23 -11 -9 -12 -16 -5 -25 11 -14 3 -45
-11 -45 -5 0 -9 -5 -9 -12 0 -9 3 -9 12 0 15 15 42 16 33 1 -4 -6 -9 -8 -12
-6 -2 3 -20 -10 -39 -28 -20 -20 -41 -32 -49 -28 -9 3 -15 -1 -15 -10 0 -9 -9
-19 -20 -22 -14 -4 -20 -15 -20 -35 0 -28 -2 -29 -32 -24 l-33 5 25 -15 c16
-10 19 -15 10 -16 -13 0 -13 -1 0 -10 13 -8 13 -10 -1 -10 -9 0 -20 7 -23 16
-4 9 -9 14 -12 11 -3 -3 -1 -14 5 -25 5 -10 6 -23 2 -28 -18 -19 -21 -52 -7
-67 9 -8 12 -23 9 -36 -7 -28 -19 -27 -27 4 -5 19 -13 25 -34 25 -36 0 -61
-36 -40 -57 13 -12 16 -12 28 1 10 13 10 16 -4 16 -17 0 -22 15 -7 25 5 3 17
-5 25 -17 17 -24 22 -63 7 -53 -6 3 -13 -1 -18 -9 -9 -17 -43 -24 -60 -13 -8
5 -13 3 -13 -6 0 -8 -7 -17 -15 -21 -11 -4 -13 -11 -6 -30 10 -24 6 -36 -11
-36 -5 0 -8 8 -6 18 2 11 -2 16 -12 14 -8 -2 -20 5 -27 14 -12 16 -13 16 -13
-8 0 -14 7 -28 15 -32 8 -3 15 -11 15 -17 0 -9 -3 -9 -14 0 -11 9 -15 9 -18
-1 -3 -9 -16 -9 -62 1 -41 9 -54 16 -48 24 6 8 2 18 -9 29 -18 17 -20 17 -39
-4 -25 -27 -25 -38 -3 -38 14 0 12 -4 -7 -17 -14 -10 -28 -17 -32 -15 -13 4
-9 -16 5 -21 9 -4 8 -8 -3 -16 -9 -7 -11 -14 -5 -18 6 -5 11 -20 12 -35 1 -20
-2 -25 -13 -21 -20 8 -59 -28 -42 -38 7 -4 9 -12 4 -16 -4 -4 -14 1 -22 11
-11 16 -17 17 -26 8 -8 -8 -8 -12 -1 -12 6 0 14 -7 17 -16 4 -11 2 -15 -8 -11
-8 3 -22 -3 -32 -14 -16 -18 -16 -19 -1 -13 9 3 17 11 17 18 0 16 20 -16 20
-33 0 -8 -7 -11 -20 -8 -13 3 -21 -1 -25 -14 -4 -10 -11 -19 -16 -19 -6 0 -8
4 -5 9 8 12 -22 36 -32 26 -4 -4 -1 -10 6 -12 23 -9 12 -20 -18 -18 -34 2 -38
-6 -14 -29 14 -14 13 -16 -9 -14 -17 2 -23 7 -19 17 3 8 1 12 -5 8 -15 -9 -22
-68 -11 -89 15 -29 1 -20 -22 15 -12 17 -19 24 -16 15 3 -10 -1 -21 -9 -25 -7
-5 -15 -12 -16 -18 -3 -9 -28 -8 -39 1 -2 3 1 14 8 24 7 11 10 20 6 20 -11 0
-31 -26 -39 -49 -5 -16 -10 -20 -18 -12 -7 7 -6 15 3 26 7 8 9 15 4 15 -4 0 1
6 11 14 16 12 17 16 6 30 -7 9 -22 16 -32 16 -14 0 -17 7 -16 32 1 18 -3 32
-11 34 -7 1 -8 0 -2 -3 7 -3 7 -9 1 -16 -9 -12 -11 -18 -11 -37 0 -5 -7 -7
-16 -3 -8 3 -13 11 -10 19 3 7 0 15 -7 18 -9 3 -8 7 3 15 8 5 15 24 16 42 1
17 -1 26 -5 20 -12 -18 -43 -1 -38 21 6 21 -26 43 -48 34 -8 -3 -17 -1 -20 3
-2 5 5 11 17 14 15 4 19 10 12 19 -16 21 -17 78 -3 78 8 0 3 7 -9 16 -12 8
-22 24 -22 35 0 10 -5 19 -10 19 -6 0 -3 11 6 25 10 15 12 25 5 25 -6 0 -10 3
-9 8 3 13 -14 77 -24 90 -7 8 -7 12 -1 12 6 0 9 12 7 28 -6 61 -16 92 -27 92
-7 0 -6 4 3 10 12 8 13 12 1 19 -9 6 -10 14 -4 27 10 20 9 33 -2 102 -4 23 -4
42 1 42 13 0 15 61 3 76 -7 9 -6 19 2 32 10 16 10 23 0 36 -7 8 -10 20 -6 26
10 16 7 122 -3 132 -5 5 -4 38 3 78 7 39 9 70 5 70 -12 0 -11 88 1 96 8 4 7 9
-2 14 -10 7 -10 12 0 23 6 9 8 18 3 21 -5 3 -8 34 -8 71 1 36 -1 65 -4 65 -3
0 -5 24 -4 53 0 28 -2 56 -5 61 -2 5 -5 35 -6 66 -1 31 -4 61 -8 66 -3 5 -5
41 -4 80 0 38 -2 74 -4 79 -7 12 -10 62 -14 209 -3 119 -10 156 -30 156 -7 0
-18 6 -24 14 -10 12 -8 13 8 9 24 -6 26 0 10 29 -8 15 -8 19 0 14 6 -4 11 -2
11 3 0 6 -7 11 -15 11 -8 0 -15 9 -15 21 0 11 -5 29 -10 39 -7 14 -6 30 5 57
8 21 13 47 12 58 -2 19 -35 52 -47 48 -3 -1 -7 11 -8 27 -2 22 2 28 15 25 11
-1 17 -9 15 -21 -2 -15 -1 -16 7 -5 6 10 3 23 -11 42 -11 15 -17 32 -13 39 4
6 -3 22 -16 36 -12 13 -17 24 -11 24 7 0 12 7 12 15 0 8 -9 15 -20 15 -23 0
-27 15 -5 24 8 3 15 0 15 -6 0 -8 4 -8 13 1 10 11 10 14 0 18 -7 3 -13 11 -13
18 0 8 -8 18 -17 24 -14 8 -15 12 -4 25 12 14 11 16 -5 16 -11 0 -15 3 -9 8
19 13 12 47 -10 45 -20 -1 -20 -1 -1 13 21 15 18 24 -11 28 -12 2 -17 11 -16
25 2 15 -3 21 -17 21 -11 0 -20 5 -20 11 0 6 -9 24 -21 40 l-20 29 -542 -1
c-298 -1 -553 -5 -567 -9 -23 -7 -23 -8 -3 -9 12 -1 24 -5 27 -9 5 -9 -8 -34
-18 -33 -23 3 -24 -2 -6 -21 11 -12 20 -27 20 -34 0 -14 -42 -15 -51 -1 -4 5
-7 -10 -7 -33 -1 -24 -7 -47 -14 -51 -7 -4 -9 -11 -5 -15 3 -4 -3 -15 -14 -25
-21 -18 -26 -43 -14 -71 5 -13 1 -20 -16 -27 l-24 -10 23 0 c24 -1 31 -21 7
-21 -8 0 -15 -6 -15 -14 0 -20 17 -29 23 -14 3 8 6 6 6 -4 1 -19 -14 -24 -24
-8 -11 18 -22 10 -22 -16 0 -18 2 -22 8 -13 10 16 11 14 13 -23 1 -16 -1 -28
-5 -28 -12 0 -17 -49 -5 -53 6 -3 1 -15 -13 -30 -12 -14 -20 -30 -17 -35 3 -6
0 -13 -6 -15 -10 -4 -10 -6 0 -6 16 -1 15 -16 -3 -35 -13 -13 -13 -15 5 -21
22 -7 27 -25 8 -25 -9 0 -8 -4 2 -10 8 -5 11 -10 5 -11 -5 -1 -14 -2 -20 -3
-5 0 -11 -4 -13 -9 -5 -14 10 -57 20 -57 11 0 0 -43 -12 -48 -10 -4 0 -42 11
-42 17 0 9 -33 -13 -51 -11 -11 -16 -19 -10 -19 6 0 10 -9 9 -20 -1 -11 -5
-20 -9 -20 -4 0 -8 -20 -8 -45 0 -25 5 -45 10 -45 13 0 13 -47 1 -55 -5 -3 -9
-19 -9 -37 1 -29 2 -30 16 -12 14 18 14 18 7 -1 -4 -11 -10 -30 -12 -43 -7
-29 -23 -38 -35 -21 -7 10 -8 6 -5 -14 2 -15 0 -30 -4 -33 -11 -7 -12 -54 -1
-54 18 0 6 -53 -13 -61 -11 -4 -16 -8 -11 -8 5 -1 3 -7 -3 -14 -20 -24 -41
-95 -29 -99 6 -2 4 -10 -6 -20 -21 -21 -20 -44 2 -58 14 -10 14 -11 0 -6 -10
3 -18 -2 -21 -14 -3 -11 -2 -19 2 -18 19 2 19 -4 1 -22 -12 -12 -26 -18 -33
-15 -7 4 -3 -2 8 -12 11 -10 20 -28 19 -40 -1 -13 4 -23 10 -23 6 0 5 -4 -3
-9 -8 -5 -21 -7 -30 -4 -9 3 -3 -4 12 -15 18 -12 25 -22 18 -26 -6 -4 -11 -3
-11 3 0 6 -7 8 -15 5 -8 -4 -15 -1 -15 5 0 6 -5 11 -12 11 -9 0 -9 -3 0 -12
16 -16 15 -33 -1 -22 -7 5 -4 1 6 -9 23 -20 15 -36 -8 -17 -14 12 -15 9 -12
-23 2 -20 1 -34 -4 -32 -4 3 -10 2 -13 -3 -3 -4 9 -21 25 -37 31 -29 27 -44
-14 -45 -14 0 -16 -4 -7 -19 14 -27 13 -31 -10 -31 -11 0 -20 -4 -20 -10 0 -5
8 -10 18 -10 14 0 15 -2 2 -10 -13 -8 -12 -10 3 -10 23 0 22 -5 -9 -46 -24
-31 -25 -36 -12 -52 10 -11 12 -25 7 -42 l-7 -25 -1 28 c-1 16 -7 27 -15 27
-22 0 -30 -19 -16 -35 10 -12 9 -15 -4 -15 -9 0 -16 -7 -16 -15 0 -18 16 -20
23 -2 3 7 6 5 6 -5 1 -10 7 -18 14 -19 6 -1 1 -5 -13 -9 -17 -5 -19 -8 -7 -9
24 -1 21 -31 -4 -31 -11 0 -17 -4 -14 -10 3 -5 0 -10 -8 -10 -10 0 -13 -9 -11
-31 3 -24 1 -30 -11 -25 -18 7 -20 -5 -2 -23 10 -10 8 -11 -6 -5 -17 6 -18 5
-6 -15 8 -11 19 -21 26 -21 7 0 13 -4 13 -9 0 -13 -28 -22 -35 -11 -13 22 -24
9 -14 -17 11 -29 5 -58 -10 -48 -5 3 -12 1 -16 -5 -4 -6 -11 -8 -16 -5 -5 4
-9 1 -9 -4 0 -6 7 -11 15 -11 8 0 15 -9 15 -19 0 -24 -16 -36 -23 -19 -3 7 -6
3 -6 -9 -1 -25 -21 -32 -21 -8 0 8 -7 15 -15 15 -8 0 -14 -3 -14 -7 4 -25 -2
-53 -11 -48 -5 3 -10 2 -10 -4 0 -5 6 -12 13 -14 6 -3 2 -6 -10 -6 -14 -1 -23
5 -23 14 0 22 -28 18 -35 -4 -3 -11 -12 -22 -20 -25 -11 -4 -12 0 -4 20 10 28
4 48 -13 38 -5 -3 -8 -15 -5 -25 3 -11 1 -17 -4 -14 -4 3 -23 -2 -40 -11 -22
-11 -28 -18 -19 -24 10 -6 9 -9 -1 -12 -19 -7 -49 10 -49 27 0 8 -4 15 -10 15
-5 0 -10 -5 -10 -12 0 -9 -3 -9 -11 -1 -12 12 -52 5 -43 -8 3 -5 0 -9 -5 -9
-6 0 -11 4 -11 10 0 5 -6 8 -12 7 -7 -2 -3 1 10 7 26 12 30 28 5 24 -14 -2
-17 3 -15 25 2 18 -1 26 -7 22 -6 -3 -11 -15 -11 -25 0 -23 -19 -30 -48 -17
-17 8 -19 13 -10 19 9 5 6 8 -9 8 -19 0 -22 4 -17 29 5 23 2 32 -15 41 -12 6
-26 8 -31 5 -6 -3 -10 -2 -10 3 0 5 -11 7 -24 5 -16 -3 -25 1 -30 13 -5 14 -4
15 8 5 17 -14 40 -5 30 11 -4 6 1 17 10 23 15 11 14 13 -9 19 -14 4 -25 14
-25 24 0 14 -2 14 -9 3 -6 -9 -16 -11 -27 -6 -13 5 -15 9 -6 12 6 3 12 11 12
19 0 8 5 14 12 14 17 0 3 11 -19 14 -11 2 -17 10 -15 22 3 14 1 15 -10 7 -9
-7 -24 -5 -53 8 -22 10 -35 19 -30 20 30 6 41 3 52 -11 11 -13 12 -13 13 2 0
10 5 15 13 12 20 -7 38 18 25 36 -8 12 -9 12 -4 -2 8 -27 -13 -21 -26 7 -12
27 -33 33 -42 13 -3 -7 -4 -1 -2 14 1 15 -2 29 -8 32 -6 2 -3 11 9 20 20 17
20 17 -1 7 -31 -15 -50 2 -28 24 12 11 19 14 22 6 2 -6 8 -8 14 -5 6 4 5 9 -3
15 -10 6 -10 13 -1 36 l12 28 -27 -32 -28 -31 0 29 c0 17 5 29 13 29 6 0 12 5
12 11 0 5 -5 7 -10 4 -16 -10 -80 -13 -80 -4 0 4 4 9 9 11 13 5 24 48 12 48
-5 0 -11 -8 -14 -17 -3 -16 -5 -16 -11 2 -5 11 -10 26 -12 34 -3 11 -7 11 -19
1 -13 -11 -15 -8 -13 21 2 27 0 33 -14 31 -12 -2 -15 3 -11 19 3 11 9 17 12
12 3 -5 14 -12 23 -16 15 -5 16 -4 5 13 -6 11 -19 20 -27 20 -13 0 -13 2 -1 9
24 15 -6 43 -38 36 -20 -4 -29 0 -39 16 -11 17 -11 23 -2 29 9 6 9 9 -1 14 -8
3 -4 4 9 2 26 -5 28 0 7 21 -9 8 -13 23 -10 33 5 15 2 17 -16 13 -15 -4 -20
-3 -15 5 5 8 2 10 -8 6 -11 -4 -16 0 -16 15 0 12 -5 21 -11 21 -7 0 -9 10 -7
24 4 18 1 23 -10 19 -12 -5 -12 -2 -3 15 10 18 9 22 -4 22 -8 0 -15 5 -15 11
0 5 -4 8 -9 5 -4 -3 -6 6 -3 19 4 24 -14 59 -27 51 -3 -2 -6 16 -7 40 0 23 -7
51 -15 60 -7 9 -12 28 -11 41 2 16 -4 31 -19 44 -12 10 -19 20 -16 20 25 5 33
3 39 -11 5 -10 7 -7 5 10 -1 14 -8 24 -15 22 -9 -1 -13 10 -12 35 1 63 -15
130 -37 151 -7 7 -13 20 -13 28 0 7 -11 16 -25 20 -14 3 -25 12 -25 20 0 19
10 18 26 -3 16 -23 28 -11 19 17 -4 13 -12 19 -21 16 -17 -6 -19 5 -3 21 7 7
5 15 -6 27 -9 9 -13 16 -8 16 5 0 14 -5 21 -12 6 -6 15 -8 19 -4 9 8 -49 56
-60 49 -4 -2 -4 -10 -1 -16 4 -7 1 -7 -7 1 -12 11 -11 15 5 28 20 14 20 14 0
29 -10 8 -23 15 -28 15 -4 0 -6 6 -3 14 3 8 1 17 -6 20 -7 2 -2 5 11 5 13 1
21 -2 19 -6 -3 -5 -1 -17 4 -28 6 -15 8 -12 5 13 -3 19 -7 36 -9 39 -3 2 -1
17 3 33 7 23 5 28 -6 23 -10 -3 -17 2 -20 15 -4 14 -11 18 -27 14 -15 -4 -19
-1 -14 10 3 9 0 21 -6 28 -9 10 -9 11 1 6 6 -4 12 -2 12 4 0 6 -7 13 -15 16
-8 4 -15 15 -15 26 0 10 -4 17 -9 14 -5 -3 -14 0 -20 8 -9 10 -8 15 4 19 10 5
13 15 9 35 -4 22 -2 31 11 36 14 5 16 2 11 -18 -4 -15 0 -28 9 -36 13 -11 14
-8 9 21 -10 57 -13 62 -27 51 -9 -8 -16 -6 -25 9 -7 11 -8 19 -2 19 5 0 10 -5
10 -11 0 -5 5 -7 11 -3 6 3 9 19 7 35 -3 16 0 29 5 29 6 0 3 8 -6 18 -10 10
-17 22 -17 27 0 5 7 17 17 27 15 17 15 18 0 18 -19 0 -23 20 -4 20 6 1 -1 7
-18 15 -16 7 -25 14 -19 14 17 1 14 142 -4 148 -11 5 -11 7 -1 14 9 5 10 11 2
21 -6 7 -11 15 -12 18 -2 37 -16 90 -22 90 -5 0 -8 6 -6 13 1 9 -459 13 -2270
15 l-2273 2 0 -15360z m29969 13433 c8 -15 12 -16 22 -5 16 15 33 16 23 1 -4
-8 4 -9 27 -4 19 4 37 12 41 18 5 8 15 7 34 -2 22 -10 29 -10 35 1 7 10 9 9 9
-4 0 -10 7 -18 15 -18 8 0 15 4 15 9 0 10 48 2 56 -10 3 -5 10 -9 15 -9 6 0 7
4 4 10 -7 12 54 1 72 -12 7 -5 17 -7 22 -4 6 4 18 2 28 -3 10 -5 43 -17 73
-26 30 -9 57 -21 60 -26 3 -5 15 -10 25 -12 31 -6 94 -35 111 -52 9 -8 22 -15
30 -15 8 0 14 -4 14 -10 0 -5 9 -10 21 -10 14 0 19 -5 16 -14 -4 -10 4 -18 24
-25 36 -12 62 -37 54 -51 -3 -5 1 -10 9 -10 17 0 66 -49 66 -67 0 -6 6 -14 13
-17 10 -5 10 -7 0 -12 -7 -3 -13 -12 -13 -20 0 -9 -4 -12 -10 -9 -5 3 -10 2
-10 -4 0 -5 8 -14 17 -20 10 -5 15 -12 11 -16 -3 -3 -14 -2 -25 4 -10 5 -27
12 -38 16 -20 6 -20 7 1 18 21 12 21 12 3 31 -19 19 -19 19 -19 -2 0 -14 -5
-20 -14 -16 -7 3 -13 15 -13 27 -1 41 -3 48 -14 42 -6 -4 -8 -13 -5 -21 6 -15
-6 -19 -18 -7 -3 4 -21 12 -40 18 -26 9 -37 9 -52 -2 -16 -12 -14 -13 19 -13
20 0 37 -4 37 -10 0 -5 -9 -10 -20 -10 -11 0 -20 -6 -21 -12 0 -10 -2 -10 -5
-1 -3 7 -11 10 -18 7 -30 -12 -86 -10 -86 3 0 18 -21 16 -47 -5 -16 -12 -20
-21 -13 -32 7 -12 12 -12 29 4 19 17 21 17 21 3 0 -10 -5 -17 -11 -17 -5 0 -7
-5 -4 -10 4 -6 11 -8 16 -4 13 8 7 -28 -6 -39 -5 -5 1 -6 15 -2 24 6 25 6 5
-10 -20 -16 -20 -17 5 -13 21 2 25 -1 23 -19 -2 -13 2 -23 7 -23 16 0 11 -42
-7 -62 -9 -10 -11 -18 -6 -18 6 0 14 -10 18 -22 l7 -23 8 25 c7 21 8 22 9 5 1
-12 7 -27 14 -34 10 -11 8 -13 -10 -9 -15 4 -23 0 -26 -13 -3 -13 0 -19 10
-19 12 0 13 -3 4 -14 -9 -10 -8 -15 2 -19 10 -4 13 -18 11 -45 -2 -29 2 -45
17 -61 26 -28 31 -27 18 5 -8 24 -8 25 6 14 12 -10 18 -10 30 0 13 11 14 10 9
-4 -3 -9 0 -24 7 -34 13 -15 12 -16 -3 -3 -15 11 -21 11 -33 1 -8 -7 -15 -19
-15 -26 0 -8 -4 -14 -10 -14 -18 0 -11 -20 8 -21 11 -1 8 -4 -8 -8 -15 -4 -28
-3 -32 3 -4 6 -6 1 -5 -12 0 -12 5 -22 10 -22 5 0 6 -10 2 -22 -5 -20 -5 -21
5 -5 6 9 16 14 22 11 7 -5 9 -2 5 9 -3 9 1 18 10 21 19 8 33 -1 33 -20 0 -20
-18 -18 -23 4 -4 14 -5 13 -6 -3 0 -12 -6 -26 -13 -33 -9 -9 -9 -12 3 -12 9 0
16 -6 17 -12 1 -7 3 -24 4 -37 3 -24 28 -43 28 -22 0 6 7 11 15 11 19 0 19 -5
-1 -35 -9 -14 -12 -26 -8 -26 31 -4 41 -3 53 9 12 12 16 11 25 -5 19 -33 16
-45 -9 -39 -19 5 -23 3 -19 -8 7 -19 -37 -9 -49 11 -10 16 -27 17 -27 2 0 -5
4 -8 9 -4 10 5 27 -32 23 -49 -2 -5 6 -6 16 -4 11 3 26 2 33 -3 9 -6 2 -9 -22
-9 -26 0 -39 -5 -44 -17 -6 -17 -7 -17 -16 0 -11 19 -29 23 -29 5 0 -13 29
-48 41 -48 4 0 9 8 12 18 3 12 6 9 12 -12 5 -19 4 -31 -5 -36 -7 -5 -9 -16 -5
-30 5 -17 4 -21 -6 -15 -11 6 -12 5 -1 -6 19 -20 15 -24 -23 -24 -19 0 -35 4
-35 9 0 5 -6 3 -14 -4 -8 -6 -12 -18 -9 -26 3 -8 1 -14 -4 -14 -5 0 -10 12
-11 26 -1 14 -8 32 -16 40 -18 17 -50 6 -52 -18 -2 -22 3 -22 23 -3 8 8 19 12
25 9 7 -4 3 -13 -11 -23 -19 -15 -20 -18 -6 -43 7 -16 10 -28 5 -28 -5 0 -7
-7 -3 -16 5 -14 3 -15 -14 -6 -18 10 -20 8 -18 -19 1 -18 -4 -33 -14 -39 -9
-5 -13 -10 -8 -11 4 -1 12 -3 17 -4 6 -1 15 -3 20 -4 6 0 10 -6 10 -12 0 -7
-12 -9 -32 -5 -35 6 -69 -6 -49 -18 6 -4 11 -2 11 3 0 21 16 11 17 -10 2 -28
12 -37 22 -20 6 9 10 7 14 -9 4 -17 11 -21 26 -17 18 4 19 2 10 -15 -8 -16 -8
-23 2 -29 7 -4 17 -5 21 -3 4 3 8 0 8 -7 0 -7 -10 -9 -25 -7 -14 3 -25 2 -25
-3 0 -10 52 -59 63 -59 4 0 5 -5 2 -11 -4 -6 -13 -8 -21 -5 -8 3 -14 1 -14 -5
0 -6 -7 -17 -15 -26 -8 -8 -13 -19 -10 -24 4 -5 -1 -9 -10 -9 -9 0 -13 5 -10
10 10 17 -7 11 -22 -7 -8 -10 -12 -12 -8 -5 5 9 -1 11 -22 7 -15 -4 -52 -6
-80 -7 -29 0 -53 -3 -53 -8 0 -4 -10 -6 -22 -2 -15 4 -19 2 -13 -8 5 -8 3 -11
-6 -8 -8 3 -19 -2 -25 -10 -9 -12 -15 -12 -33 -3 -23 13 -45 4 -64 -26 -4 -7
-13 -13 -18 -13 -6 0 -8 4 -5 9 9 15 -5 42 -17 34 -18 -11 -81 -10 -89 1 -4 6
-15 0 -28 -15 l-20 -24 20 37 c21 36 95 108 111 108 5 0 9 7 9 17 0 15 -1 15
-18 0 -10 -10 -21 -17 -25 -17 -3 0 -20 -13 -37 -30 -16 -16 -54 -41 -84 -54
-30 -14 -57 -30 -61 -35 -3 -6 -20 -11 -37 -11 -27 0 -29 2 -17 16 11 14 10
15 -11 12 -17 -2 -31 5 -43 19 -10 12 -24 20 -31 17 -7 -3 -32 5 -54 16 -23
12 -47 20 -54 17 -7 -2 -21 5 -31 17 -17 19 -17 21 -1 26 15 6 16 7 2 13 -9 3
-19 3 -22 -1 -10 -9 -46 -10 -46 0 0 4 5 8 11 8 8 0 8 5 -1 15 -7 9 -10 27 -6
45 3 18 1 30 -5 30 -6 0 -10 23 -9 53 0 28 -4 74 -9 101 -6 26 -8 52 -5 57 3
5 20 9 38 9 18 0 36 3 39 6 4 4 23 8 43 10 45 4 74 13 74 23 0 5 -19 4 -42 -1
-24 -4 -71 -11 -105 -15 -55 -5 -63 -4 -69 13 -3 11 -19 47 -34 81 l-28 61 35
34 c55 52 173 204 173 223 0 18 -24 -4 -70 -62 -28 -38 -74 -92 -102 -121
l-50 -52 -45 50 c-52 58 -83 69 -58 20 9 -16 20 -30 25 -30 5 0 18 -13 29 -29
l21 -30 -23 -25 c-14 -14 -29 -26 -36 -26 -6 0 -11 -4 -11 -8 0 -9 -82 -72
-120 -92 -22 -12 -24 -12 -12 2 9 11 10 18 2 23 -5 3 -10 13 -10 22 0 9 -8 22
-17 29 -15 11 -15 13 -3 14 13 1 13 2 -1 13 -22 17 -30 56 -16 79 10 16 9 22
-5 32 -21 15 -23 24 -5 23 56 -2 57 14 0 38 -24 10 -33 20 -29 30 3 8 0 15 -7
16 -9 0 -9 2 1 6 6 2 10 9 6 14 -10 16 6 31 21 19 11 -9 12 -7 8 8 -2 11 0 23
6 26 10 7 16 -20 12 -53 -2 -7 2 -10 9 -6 7 4 10 17 8 30 -5 26 22 30 34 5 6
-11 7 -10 5 5 -1 11 -9 20 -17 21 -21 0 -50 15 -50 24 0 4 15 7 33 6 25 -1 32
3 32 18 0 11 -8 20 -18 22 -14 2 -17 -2 -12 -19 6 -21 5 -21 -9 -3 -19 24 -36
12 -36 -24 0 -19 -7 -33 -20 -40 -25 -13 -27 2 -3 26 16 15 16 17 -2 30 -11 8
-13 14 -6 14 9 0 12 13 10 42 -4 47 16 65 27 24 3 -14 9 -26 13 -26 16 0 18
13 6 37 -7 13 -12 35 -10 48 2 20 0 22 -16 12 -15 -9 -21 -8 -33 8 -20 26 -20
35 -1 35 17 0 20 16 5 25 -5 3 -10 11 -10 16 0 6 6 7 13 3 9 -6 9 -4 1 7 -18
22 -28 80 -15 88 6 4 12 25 12 47 1 23 11 54 25 76 13 21 24 42 24 47 0 5 9
11 21 14 13 3 19 12 17 24 -2 14 3 17 21 15 17 -1 22 2 18 12 -7 17 20 76 34
76 5 0 9 9 9 20 0 11 7 23 15 26 8 3 17 14 20 25 4 10 13 19 21 19 8 0 17 7
20 15 3 8 20 23 37 34 74 46 116 79 109 86 -4 4 6 5 21 1 20 -5 27 -3 22 5
-11 16 16 30 32 17 10 -8 12 -7 7 6 -6 15 5 21 29 17 11 -2 37 25 37 38 0 6 8
11 18 11 10 0 23 5 30 12 9 9 12 7 12 -12 1 -24 1 -24 15 5 7 17 14 25 14 19
1 -6 15 -11 31 -12 22 0 30 4 30 16 1 15 2 15 15 -2 13 -17 14 -17 36 3 28 26
35 26 48 4z m-28194 -194 c62 -46 72 -71 55 -124 -6 -20 -14 -55 -17 -78 -2
-23 -9 -46 -14 -51 -19 -20 -8 -55 33 -107 23 -30 45 -56 48 -59 12 -10 287
-347 327 -400 38 -50 134 -167 201 -246 29 -34 41 -50 371 -464 257 -322 245
-307 326 -405 91 -108 126 -162 169 -254 6 -13 25 -33 43 -45 38 -25 49 -77
25 -116 -18 -28 -25 -157 -10 -176 5 -7 6 -42 2 -78 -6 -59 -9 -66 -25 -61
-11 4 -19 2 -19 -5 0 -6 5 -8 10 -5 6 3 10 -2 10 -11 0 -10 7 -25 15 -34 14
-16 13 -17 -17 -17 -20 1 -32 -4 -30 -11 3 -16 -1 -15 -28 8 -13 11 -19 20
-14 20 5 1 -2 7 -16 14 -15 9 -33 34 -45 65 -14 38 -26 53 -47 60 -15 6 -28
17 -28 25 0 22 -27 20 -40 -3 -15 -29 -47 -35 -78 -15 -15 9 -31 23 -35 31 -4
7 -15 13 -22 13 -8 0 -15 4 -15 9 0 15 -45 21 -80 11 -19 -5 -55 -11 -81 -11
-37 -2 -54 -8 -77 -31 -17 -15 -36 -28 -41 -28 -6 0 -11 -4 -11 -9 0 -5 -30
-28 -67 -52 -36 -24 -85 -56 -107 -71 -23 -15 -57 -35 -76 -44 -19 -10 -55
-31 -80 -48 -25 -17 -61 -39 -80 -48 -19 -10 -38 -25 -43 -33 -4 -8 -14 -15
-22 -15 -7 0 -20 -6 -27 -13 -28 -26 -132 -71 -165 -70 -81 2 -109 26 -250
213 -48 63 -99 126 -113 140 -22 23 -39 48 -74 110 -5 9 -22 24 -37 32 -15 9
-39 39 -53 67 -14 28 -41 67 -60 87 -19 20 -38 40 -43 45 -31 35 -145 139
-152 139 -5 0 -16 10 -25 23 -8 12 -13 15 -10 6 3 -10 0 -20 -5 -24 -6 -3 -8
-11 -5 -17 4 -7 -2 -8 -17 -3 -13 4 -27 13 -31 19 -15 23 -17 -3 -3 -54 8 -30
15 -55 15 -56 1 -10 -42 -44 -49 -39 -6 3 -11 1 -11 -5 0 -18 -68 50 -100 100
-33 52 -36 67 -17 101 9 18 21 24 44 24 17 0 35 -3 39 -7 13 -14 24 -8 24 12
0 11 -5 20 -11 20 -6 0 -9 10 -7 23 2 12 9 21 16 19 25 -5 11 37 -33 103 -35
53 -45 69 -59 100 -8 17 -33 50 -55 73 -23 24 -41 45 -41 48 0 10 -92 144
-119 172 -16 18 -53 65 -82 105 -29 39 -94 113 -144 162 -66 64 -94 99 -98
122 -11 56 -37 59 -104 9 -32 -24 -69 -55 -83 -70 -14 -15 -41 -34 -60 -42
-34 -15 -36 -14 -57 13 -13 15 -23 24 -23 19 0 -5 -6 -3 -14 3 -8 7 -12 21 -9
31 3 11 0 20 -6 20 -6 0 -11 5 -11 10 0 6 6 10 14 10 9 0 12 7 9 20 -3 11 -1
20 3 20 5 0 15 15 23 33 8 17 17 34 20 37 14 11 61 79 61 87 0 4 9 14 20 21
11 7 20 19 20 26 0 8 4 16 8 18 5 2 36 37 69 78 76 94 170 191 248 255 33 28
65 55 70 61 6 6 33 26 60 46 319 224 520 320 855 409 47 12 87 25 90 29 9 13
63 26 97 23 20 -1 54 -18 88 -44z m27745 -1174 c0 -7 7 -26 15 -41 8 -16 15
-34 15 -40 0 -12 -47 -20 -151 -28 -31 -2 -61 -6 -66 -9 -11 -7 -11 23 1 41 4
7 40 40 79 72 72 60 72 60 90 39 9 -12 17 -27 17 -34z m3910 -44 c0 12 2 12 9
0 6 -9 16 -11 32 -6 l24 8 -20 -23 -20 -23 25 8 c14 4 28 12 31 18 4 6 13 6
24 -1 24 -13 55 -4 56 17 0 10 2 11 6 4 2 -7 13 -13 23 -13 13 0 18 -6 15 -20
-2 -11 0 -22 6 -25 5 -4 9 -1 9 4 0 6 12 11 28 11 20 0 23 -3 12 -10 -8 -5
-12 -11 -10 -13 11 -10 70 -16 75 -7 6 10 65 -17 82 -39 11 -14 12 -14 13 1 0
9 5 20 12 24 7 4 8 3 4 -4 -5 -8 4 -10 28 -7 19 3 52 -2 73 -9 22 -8 46 -10
54 -6 8 4 28 10 46 13 26 5 33 3 38 -13 4 -11 11 -20 16 -20 6 0 7 5 4 10 -3
6 1 10 9 10 8 0 18 -5 21 -10 4 -6 14 -10 23 -9 31 3 42 -1 40 -13 -2 -7 4
-12 11 -10 14 3 36 -5 84 -30 11 -5 20 -8 21 -6 2 2 8 12 15 23 11 18 12 17 6
-8 -4 -20 -1 -29 12 -34 9 -4 19 -1 21 5 2 7 8 12 14 12 6 0 7 -7 4 -16 -5
-12 -2 -15 10 -10 13 5 14 4 6 -7 -15 -18 -5 -27 30 -27 27 0 28 1 14 16 -20
19 -20 24 -2 24 8 0 17 -12 21 -27 3 -15 16 -35 28 -46 12 -10 32 -27 45 -38
12 -10 27 -19 34 -19 6 0 26 -11 44 -25 18 -14 37 -25 43 -25 5 0 13 -9 16
-20 3 -11 11 -20 16 -20 5 0 8 -10 6 -22 -2 -13 -2 -17 0 -10 3 6 11 12 19 12
11 0 13 -6 9 -20 -5 -14 -2 -20 10 -20 8 0 25 -16 36 -35 12 -19 24 -35 29
-35 4 0 18 -27 30 -61 15 -39 27 -58 36 -55 8 3 11 -2 9 -13 -2 -11 9 -30 24
-45 20 -19 27 -34 23 -52 -2 -13 1 -31 8 -39 9 -10 14 -68 16 -183 3 -182 10
-261 24 -307 5 -16 12 -75 15 -130 3 -55 10 -125 15 -155 21 -112 33 -334 28
-525 -1 -22 2 -69 6 -105 12 -102 14 -141 20 -355 3 -110 8 -256 12 -325 8
-153 8 -656 0 -725 -3 -27 -8 -86 -11 -130 -6 -77 -26 -201 -45 -275 -12 -51
-53 -253 -53 -267 0 -7 -4 -13 -9 -13 -4 0 -7 -3 -6 -7 6 -18 -47 -166 -67
-187 -5 -6 -21 -31 -34 -56 -14 -25 -30 -50 -35 -56 -6 -6 -29 -36 -51 -67
-22 -31 -46 -56 -52 -57 -7 0 -13 -3 -13 -8 0 -4 -17 -15 -39 -24 -21 -9 -47
-25 -56 -35 -10 -10 -21 -18 -24 -19 -24 -3 -67 -19 -71 -25 -3 -5 -26 -11
-50 -15 -25 -3 -55 -8 -67 -10 -59 -11 -79 -11 -101 -3 -20 8 -23 7 -18 -7 5
-14 4 -15 -8 -5 -10 8 -30 9 -72 2 -41 -6 -61 -5 -66 2 -4 7 -11 7 -22 -2 -10
-9 -16 -10 -16 -3 0 6 -7 9 -15 6 -8 -4 -25 0 -38 8 -12 7 -40 13 -62 12 -22
-1 -57 2 -78 6 -30 6 -39 5 -46 -9 -20 -38 -51 -140 -56 -183 -3 -26 -14 -87
-24 -135 -10 -49 -19 -95 -19 -103 -3 -40 -34 -153 -50 -182 -11 -19 -28 -34
-41 -36 -18 -3 -20 -6 -10 -18 9 -11 7 -14 -13 -14 -33 0 -65 -25 -72 -57 -4
-16 -15 -57 -26 -93 -10 -36 -26 -92 -35 -125 -9 -33 -20 -69 -25 -80 -5 -11
-13 -50 -19 -88 -6 -37 -16 -100 -22 -140 -6 -39 -17 -88 -24 -107 -12 -34 -7
-144 9 -210 12 -50 30 -155 27 -164 -1 -6 2 -19 8 -30 5 -12 12 -38 15 -58 14
-90 19 -114 27 -124 4 -5 5 -20 2 -33 -3 -12 -1 -32 5 -44 18 -39 24 -61 28
-117 8 -89 8 -91 1 -180 -4 -47 -9 -132 -13 -190 -3 -57 -8 -108 -10 -112 -3
-4 0 -8 6 -8 7 0 11 -22 11 -62 -1 -35 0 -112 1 -173 1 -85 -3 -120 -16 -155
-10 -25 -19 -54 -20 -65 -1 -11 -7 -31 -13 -45 -6 -14 -14 -41 -18 -60 -4 -19
-21 -61 -38 -94 -21 -39 -31 -73 -31 -102 0 -34 -4 -43 -16 -41 -10 1 -15 -6
-16 -23 -1 -14 -4 -40 -8 -57 -4 -18 -4 -33 1 -33 5 0 9 -9 10 -20 1 -11 11
-29 21 -40 11 -12 25 -42 32 -68 7 -26 20 -55 29 -65 9 -11 16 -24 16 -30 0
-7 10 -32 22 -57 25 -53 46 -137 38 -151 -4 -5 -2 -9 4 -9 5 0 13 -21 17 -47
3 -27 11 -56 16 -67 7 -12 6 -22 0 -28 -7 -7 -6 -15 4 -26 9 -8 13 -23 11 -33
-3 -11 -1 -19 3 -19 5 0 12 -15 15 -32 4 -18 11 -37 15 -43 4 -5 11 -24 14
-41 4 -16 16 -36 26 -44 11 -8 20 -22 20 -31 0 -10 7 -16 18 -15 12 1 18 -8
20 -30 3 -30 5 -31 27 -20 13 6 26 20 27 31 3 20 38 35 38 16 0 -6 -8 -11 -17
-11 -14 0 -15 -2 -4 -12 10 -11 14 -10 22 5 14 23 39 22 39 -3 0 -20 11 -26
23 -13 4 3 3 11 -3 17 -5 7 -5 17 0 26 8 13 10 12 10 -2 0 -25 21 -23 27 2 3
11 9 20 13 20 5 0 15 3 23 6 9 3 14 0 14 -8 -1 -7 2 -15 8 -18 5 -3 10 4 10
14 0 11 6 21 13 24 10 3 13 -5 10 -29 -2 -28 0 -33 15 -31 11 2 17 -4 17 -15
0 -14 2 -15 13 -4 10 10 8 15 -6 25 -16 13 -16 14 3 19 11 3 20 12 20 21 0 18
35 22 45 5 4 -6 13 -8 21 -5 8 3 14 1 14 -5 0 -6 7 -9 15 -5 15 5 18 -3 16
-39 -1 -18 0 -18 11 -4 16 19 48 32 48 19 0 -6 -6 -10 -13 -10 -19 0 -50 -36
-43 -49 10 -15 38 -1 31 16 -3 11 -1 13 10 9 8 -3 15 -1 15 4 0 6 8 5 19 -2
11 -7 17 -16 15 -20 -3 -4 2 -8 10 -8 10 0 13 -6 9 -16 -4 -10 3 -24 19 -37
14 -12 27 -34 30 -50 5 -23 3 -27 -13 -22 -21 7 -27 -10 -6 -18 8 -3 6 -10 -8
-22 -16 -13 -16 -15 -3 -11 9 2 22 -2 29 -10 8 -10 15 -11 24 -4 16 13 28 0
15 -15 -8 -9 -3 -14 19 -18 20 -4 31 -14 35 -32 7 -29 21 -32 34 -9 8 15 12
15 31 2 11 -8 18 -18 14 -21 -3 -4 2 -7 12 -7 10 0 15 -3 12 -7 -4 -3 -2 -12
3 -18 8 -9 6 -15 -6 -19 -15 -6 -14 -9 7 -29 13 -12 27 -21 31 -20 4 2 5 -3 2
-11 -3 -7 -16 -13 -29 -13 -22 0 -23 2 -13 21 10 19 9 19 -4 8 -11 -8 -18 -9
-22 -3 -8 13 -35 3 -65 -25 -14 -13 -28 -21 -33 -18 -4 3 -8 -10 -8 -28 1 -29
2 -31 14 -16 12 16 15 16 32 2 17 -14 17 -15 2 -10 -11 3 -18 0 -18 -9 0 -7
-5 -17 -12 -21 -7 -4 -8 -3 -4 4 4 7 3 12 -3 12 -5 0 -13 -9 -16 -20 -7 -22
-13 -24 -35 -10 -9 6 -17 5 -22 -3 -11 -18 -10 -29 4 -21 7 4 8 3 4 -5 -6 -9
-11 -9 -24 1 -12 10 -16 10 -19 0 -3 -6 -9 -9 -14 -6 -6 3 -17 0 -26 -8 -15
-11 -16 -11 -10 5 8 21 -6 22 -27 2 -9 -9 -17 -11 -21 -5 -3 5 -12 10 -18 10
-9 0 -9 -2 0 -8 8 -5 2 -17 -18 -40 -32 -36 -39 -39 -39 -16 0 8 -4 12 -10 9
-5 -3 -10 -1 -10 4 0 6 -5 11 -10 11 -6 0 -9 -3 -9 -7 1 -5 1 -16 0 -25 -1
-15 -4 -15 -32 -1 -26 13 -33 13 -40 2 -7 -11 -9 -10 -9 4 0 10 -4 16 -9 12
-6 -3 -15 3 -21 12 -9 16 -10 15 -5 -5 6 -22 5 -23 -32 -17 -21 4 -46 9 -55
11 -10 3 -18 -2 -21 -13 -3 -13 -5 -11 -6 7 -1 19 -4 21 -10 11 -5 -8 -7 -20
-4 -28 6 -15 -32 -19 -42 -3 -3 5 0 7 9 4 11 -4 13 0 9 16 -4 15 -8 18 -13 10
-6 -9 -11 -7 -19 6 -7 13 -10 14 -11 5 0 -8 -3 -11 -7 -8 -3 4 -12 2 -20 -4
-9 -8 -13 -8 -13 -1 0 18 -32 43 -47 38 -8 -4 -17 3 -23 17 l-9 22 0 -22 c-1
-12 -6 -23 -12 -25 -6 -2 -13 -15 -14 -30 -4 -34 -25 -73 -34 -60 -4 6 -11 5
-19 -4 -11 -12 -10 -14 5 -15 16 0 16 -1 -2 -9 -12 -5 -14 -9 -6 -9 11 -1 10
-4 -4 -14 -10 -8 -15 -19 -11 -25 4 -7 3 -12 -2 -12 -5 0 -17 -18 -27 -40 -10
-22 -22 -40 -26 -40 -4 0 -11 -10 -14 -21 -5 -15 -9 -18 -15 -9 -5 8 -10 9
-14 2 -3 -6 -2 -13 3 -16 11 -7 -16 -66 -30 -66 -5 0 -9 -7 -9 -15 0 -17 -30
-48 -51 -53 -8 -2 -21 -10 -30 -18 -8 -8 -23 -14 -32 -14 -20 0 -23 -16 -4
-24 6 -3 -2 -3 -20 0 -26 3 -31 1 -27 -11 4 -10 0 -15 -10 -15 -9 0 -16 5 -16
11 0 6 -9 9 -20 6 -17 -4 -20 -2 -14 15 5 17 3 20 -10 15 -9 -4 -27 -1 -41 5
-18 8 -28 8 -38 0 -10 -9 -20 -9 -40 1 -15 6 -27 15 -27 19 0 4 -7 5 -15 2 -8
-4 -12 -11 -8 -17 3 -6 1 -7 -6 -3 -6 4 -14 1 -17 -8 -5 -13 -8 -12 -24 2 -11
8 -16 20 -13 25 3 5 -9 22 -26 38 -25 22 -31 34 -26 50 4 13 2 25 -5 29 -6 4
-13 40 -15 82 -3 41 -9 88 -15 103 -7 18 -7 32 -1 38 6 6 4 15 -5 25 -10 10
-13 24 -8 44 4 18 2 28 -3 25 -13 -8 -33 79 -21 91 5 5 2 14 -7 22 -8 7 -15
18 -15 24 0 6 -9 19 -20 29 -11 9 -20 22 -20 29 0 10 2 10 9 0 7 -11 9 -11 14
2 5 12 0 16 -23 16 -17 0 -30 -4 -30 -10 0 -5 -5 -10 -10 -10 -6 0 -9 5 -8 11
2 6 -7 12 -19 14 -13 1 -23 -1 -23 -4 0 -12 15 -28 30 -33 10 -3 5 -7 -12 -10
-19 -4 -25 -1 -21 9 3 8 -2 13 -16 13 -14 0 -19 -5 -15 -15 4 -8 1 -15 -5 -15
-7 0 -5 -9 5 -25 10 -15 12 -25 5 -25 -6 0 -11 -7 -11 -15 0 -8 8 -15 17 -15
14 0 15 -2 4 -12 -11 -10 -14 -10 -18 0 -7 17 -30 15 -37 -4 -4 -11 -12 -14
-24 -9 -23 10 -76 7 -80 -5 -7 -19 -20 -10 -15 10 9 32 -12 23 -28 -12 -9 -21
-21 -32 -31 -32 -20 2 -25 -12 -7 -18 6 -2 13 -15 14 -30 2 -21 -1 -25 -16
-21 -10 3 -19 12 -19 19 0 24 -19 15 -26 -12 -4 -16 -11 -23 -21 -20 -7 3 -16
-1 -20 -9 -9 -24 -36 3 -29 29 8 32 -5 43 -49 41 -30 -2 -45 3 -58 19 -18 20
-19 20 -12 1 16 -44 17 -55 6 -55 -6 0 -11 5 -11 10 0 6 -8 10 -17 8 -10 -2
-17 3 -15 10 1 6 -5 12 -14 12 -15 0 -15 -2 0 -25 9 -14 12 -25 6 -25 -5 0
-10 5 -10 10 0 6 -7 10 -15 10 -8 0 -15 -4 -15 -8 0 -5 -7 -9 -15 -9 -12 0
-12 3 -2 16 9 12 9 13 0 7 -14 -8 -16 -5 -7 18 3 8 12 12 20 9 8 -3 14 0 14 6
0 6 -6 11 -13 11 -14 0 -47 35 -47 50 0 6 9 10 20 10 13 0 17 -5 14 -14 -4
-11 0 -13 18 -9 21 6 22 5 8 -12 -14 -16 -13 -17 7 -11 16 5 23 2 26 -11 4
-14 5 -13 6 5 0 12 -4 22 -10 22 -7 0 -10 12 -7 30 4 25 1 30 -15 30 -11 0
-25 7 -32 17 -11 14 -13 13 -19 -10 -4 -16 -13 -27 -24 -27 -10 0 -13 3 -7 8
6 4 16 19 22 35 13 28 43 37 43 13 0 -23 16 -27 31 -9 8 9 9 14 3 10 -17 -10
-37 19 -29 42 5 16 3 20 -9 15 -9 -3 -13 -11 -9 -17 3 -6 1 -7 -5 -3 -15 9
-16 36 -1 36 5 0 7 5 3 11 -4 7 -15 1 -31 -17 -22 -26 -23 -29 -6 -36 14 -5
12 -6 -8 -5 -24 1 -26 4 -22 31 4 26 3 28 -10 17 -12 -10 -21 -10 -38 -1 -14
8 -19 8 -15 1 8 -12 1 -13 -31 -5 -14 4 -23 14 -23 26 0 10 5 16 10 13 6 -3
10 -2 10 4 0 5 -13 18 -30 28 -16 9 -30 21 -30 26 0 4 -4 5 -10 2 -6 -3 -10 4
-10 17 -1 30 -39 79 -47 59 -5 -11 -7 -11 -14 0 -6 11 -11 11 -21 1 -18 -18
-28 -15 -28 8 0 11 -4 20 -10 20 -5 0 -10 -6 -10 -12 0 -17 -51 -41 -63 -29
-5 5 -2 15 6 23 8 8 16 23 19 34 2 10 13 20 25 22 14 2 21 10 20 23 -1 10 -5
19 -9 19 -16 0 -23 2 -40 11 -22 12 -65 -20 -45 -33 9 -6 9 -8 0 -8 -6 0 -18
6 -25 14 -8 7 -24 17 -37 21 -13 4 -19 10 -14 14 18 12 23 41 8 41 -8 0 -15 5
-15 11 0 8 -4 8 -15 -1 -19 -16 -34 -5 -28 20 3 11 1 26 -5 33 -13 15 1 100
17 105 6 2 11 10 11 18 0 9 -4 12 -10 9 -9 -6 -15 25 -10 50 8 42 7 65 -3 65
-8 0 -9 3 -1 8 15 10 25 42 14 42 -6 0 -10 6 -10 13 0 8 10 13 23 13 13 -1 22
5 22 14 0 19 17 38 30 35 5 -1 7 0 3 2 -15 9 -8 30 17 51 14 12 30 22 35 22 9
0 30 38 34 60 1 3 5 11 10 19 7 10 6 12 -3 6 -9 -5 -12 0 -9 16 1 13 10 24 18
25 30 2 32 4 19 20 -11 14 -11 18 4 29 9 7 17 20 17 29 0 9 6 16 13 16 9 0 9
2 0 8 -6 4 -15 20 -18 35 -6 21 -4 27 9 27 9 0 16 4 16 10 0 5 -6 7 -14 4 -19
-7 -28 10 -33 60 -5 55 -5 57 0 90 3 17 -3 49 -13 72 -10 23 -16 45 -13 48 4
3 -5 6 -18 6 -17 0 -20 3 -10 9 11 7 11 10 0 17 -8 5 -20 27 -28 49 -8 22 -17
42 -21 45 -5 3 -11 23 -14 45 -4 22 -14 51 -23 65 -10 14 -16 31 -14 39 1 8
-7 22 -19 31 -11 9 -23 29 -25 45 -2 17 -4 31 -4 33 -1 1 -1 4 -1 7 0 3 -9 25
-20 51 -11 25 -20 54 -20 64 0 11 -7 23 -15 27 -8 5 -17 30 -20 63 -9 87 -28
184 -38 191 -4 3 -7 10 -6 15 3 10 -3 56 -26 199 -8 50 -17 110 -20 135 -3 25
-9 63 -12 85 -13 75 -4 406 11 417 6 4 4 13 -3 22 -12 15 -8 20 12 17 4 0 7 6
7 15 0 8 -4 12 -10 9 -14 -8 -13 1 3 25 10 17 9 22 -2 29 -9 6 -10 11 -2 15 6
4 9 12 6 17 -4 5 -1 9 5 9 7 0 9 17 5 48 -11 105 -16 222 -14 317 0 55 1 111
2 125 0 14 -3 48 -6 75 -8 55 -13 102 -23 185 -3 30 -8 63 -10 73 -5 30 -19
238 -18 292 0 55 13 253 20 300 2 17 4 140 5 273 l2 244 34 -7 c19 -3 42 -9
51 -12 9 -3 4 4 -11 15 -16 11 -35 32 -43 47 -14 27 -20 106 -8 117 3 3 7 38
9 76 1 39 6 75 10 81 16 27 22 234 7 239 -6 2 -7 39 -4 95 8 115 6 380 -2 427
-11 62 -14 300 -4 300 5 0 8 10 7 23 -3 27 9 121 21 162 5 17 10 55 12 85 1
30 5 60 8 65 4 6 7 28 8 50 0 23 8 62 17 88 8 25 16 80 17 122 1 41 4 75 7 75
6 0 4 58 -3 120 -3 19 -5 78 -5 130 -2 285 -2 310 9 310 7 0 9 8 5 21 -10 31
-21 189 -15 212 2 4 3 11 4 16 0 5 4 13 8 17 4 4 5 18 2 31 -4 14 -2 34 4 46
5 12 16 49 23 82 7 33 17 66 22 72 5 7 7 20 3 28 -3 8 -2 15 3 15 4 0 14 19
21 43 8 23 18 45 23 48 8 5 14 27 16 54 1 6 19 31 42 57 22 26 39 48 37 50 -4
4 72 77 129 124 27 21 54 46 61 56 7 10 22 18 33 18 10 0 19 5 19 10 0 6 4 10
10 10 15 0 50 33 44 42 -3 4 6 8 20 8 15 0 27 7 31 19 6 20 54 34 82 24 11 -4
14 -3 9 5 -5 8 0 12 14 12 12 0 18 5 15 10 -3 6 -1 10 4 10 6 0 11 -7 11 -15
0 -8 5 -15 11 -15 5 0 8 4 5 9 -3 4 3 18 13 30 12 14 22 18 26 11 3 -5 11 -10
16 -10 6 0 7 5 4 10 -3 6 -2 10 3 10 5 0 12 -10 16 -22 5 -18 8 -20 15 -9 5 8
16 11 29 7 11 -4 23 -2 26 3 4 6 13 8 21 4 8 -3 15 0 15 6 0 6 7 8 17 4 12 -5
14 -3 8 8 -7 11 -6 12 7 2 8 -7 18 -10 21 -6 4 3 7 2 7 -3 0 -11 60 -12 78 -1
8 5 12 2 12 -9 0 -11 6 -15 20 -11 11 3 20 1 20 -4 0 -5 16 -7 35 -4 19 2 35
0 35 -4 0 -5 22 -11 48 -14 65 -8 152 -46 145 -63 -5 -13 7 -18 35 -15 6 1 12
-5 12 -14 0 -8 5 -15 11 -15 6 0 9 7 5 15 -6 17 9 21 19 5 10 -16 19 -12 37
21 10 17 22 28 27 24 18 -10 40 51 43 116 2 36 9 68 15 74 7 6 15 33 18 60 8
80 16 119 27 132 5 7 7 16 4 22 -3 5 1 12 10 15 9 3 14 13 11 20 -3 8 1 17 9
20 8 3 14 19 14 35 0 17 6 50 14 73 7 24 14 52 14 63 3 67 18 130 32 130 8 0
16 10 18 22 2 15 13 25 28 29 13 3 24 12 24 19 0 23 30 40 49 28 14 -9 22 -8
35 5 13 14 20 14 36 4 22 -13 70 -1 70 19 0 7 8 5 20 -6 15 -14 20 -15 20 -4z
m-3865 -91 c15 -47 12 -166 -6 -215 -9 -27 -18 -42 -18 -32 -1 9 -8 17 -16 17
-8 0 -17 11 -21 25 -3 13 -9 24 -13 23 -19 -4 -38 15 -34 35 4 20 3 20 -7 5
-13 -21 -30 -23 -30 -4 0 8 -6 16 -14 19 -14 6 -80 97 -73 103 3 3 82 24 142
37 51 12 84 7 90 -13z m-24370 -443 c43 -12 65 -28 65 -48 0 -9 4 -8 15 1 12
10 15 10 16 -1 0 -10 2 -11 6 -1 8 21 19 14 33 -23 8 -20 19 -34 26 -31 6 2
10 -5 9 -17 -2 -32 14 -59 31 -53 8 3 12 2 9 -4 -9 -14 17 -49 32 -43 7 3 13
1 13 -5 0 -6 -5 -12 -11 -14 -8 -3 -4 -21 10 -54 12 -28 23 -66 24 -85 1 -19
5 -38 8 -44 15 -25 46 -210 54 -325 3 -36 8 -94 12 -130 3 -36 5 -69 4 -74 -1
-5 -2 -32 -3 -60 0 -28 -5 -54 -11 -58 -8 -4 -7 -11 2 -21 10 -13 9 -16 -8
-22 -13 -4 -18 -12 -14 -21 4 -11 0 -15 -13 -12 -12 2 -19 -3 -19 -14 0 -9 -8
-25 -17 -35 -16 -18 -17 -50 -3 -90 2 -7 0 -13 -5 -13 -7 0 -7 -77 1 -100 1
-3 1 -8 0 -12 0 -5 4 -8 9 -8 6 0 10 -15 10 -32 -1 -50 21 -139 37 -145 7 -3
13 -10 13 -15 0 -6 8 -17 17 -24 10 -7 18 -21 18 -31 0 -33 52 -22 103 21 17
15 22 16 22 5 0 -8 8 1 17 20 9 19 19 29 21 23 2 -8 11 -8 28 -1 14 5 26 9 27
9 2 0 2 -11 2 -25 -2 -26 -35 -71 -35 -47 0 7 -7 12 -15 12 -8 0 -15 -4 -15
-9 0 -6 -13 -18 -30 -28 -16 -9 -30 -23 -30 -30 0 -7 -9 -13 -20 -13 -12 0
-20 -7 -20 -17 0 -15 -2 -16 -10 -3 -5 8 -10 10 -10 4 0 -5 7 -19 15 -30 18
-24 19 -38 3 -28 -10 6 -10 5 -1 -7 6 -8 13 -38 16 -68 6 -54 17 -71 50 -71 9
0 17 -7 17 -15 0 -8 6 -14 13 -13 7 2 13 -10 15 -28 2 -21 11 -35 25 -42 18
-9 19 -11 5 -11 -10 -1 -18 -6 -18 -13 0 -6 -3 -9 -6 -5 -8 8 -34 -18 -34 -35
0 -11 2 -11 9 0 10 17 59 11 72 -9 6 -10 9 -10 9 -1 0 6 10 12 22 12 21 0 21
0 2 -15 -18 -13 -18 -14 4 -8 18 4 21 2 16 -11 -3 -9 -1 -16 5 -16 12 0 13 2
15 40 1 14 5 30 9 37 4 6 1 14 -5 17 -7 4 -3 4 10 2 12 -2 22 0 22 5 0 5 7 9
16 9 8 0 13 4 10 8 -2 4 4 8 14 8 17 0 21 -18 8 -31 -5 -6 -28 -12 -50 -14
-12 -1 -10 -51 2 -51 5 0 7 8 3 18 -3 9 -2 14 2 9 5 -4 16 0 26 9 14 12 21 13
36 4 16 -10 16 -10 -3 -5 -15 4 -24 0 -28 -11 -4 -11 0 -18 14 -21 23 -6 25
-14 8 -32 -11 -10 -10 -11 5 -6 9 4 17 13 17 21 0 8 8 14 18 14 13 0 14 -2 4
-9 -11 -7 -11 -9 2 -14 8 -3 18 -2 21 3 3 5 12 7 20 3 14 -5 20 8 16 31 -1 5
7 6 19 3 23 -6 26 3 8 22 -11 11 -10 12 1 6 9 -5 12 -3 9 6 -3 8 -15 20 -29
26 -17 9 -19 13 -7 13 9 0 20 -5 23 -11 4 -6 13 -8 21 -5 8 3 14 -1 14 -11 0
-13 3 -13 15 -3 13 11 15 8 15 -13 0 -14 3 -32 6 -41 4 -11 1 -16 -10 -16 -9
0 -16 -4 -16 -10 0 -12 3 -12 24 -4 9 3 16 13 16 22 0 12 3 13 11 5 16 -16 52
18 43 40 -3 9 -10 14 -15 11 -5 -3 -9 2 -9 10 0 9 -5 16 -12 16 -6 0 -9 2 -6
5 11 11 59 -7 54 -20 -5 -15 31 -48 39 -35 11 17 25 11 25 -10 0 -11 -7 -23
-15 -26 -12 -5 -13 -10 -4 -20 6 -7 8 -17 6 -22 -3 -4 -2 -14 3 -22 5 -7 3
-21 -3 -31 -6 -10 -7 -22 -3 -26 5 -4 11 -2 13 5 3 6 9 12 14 12 4 0 6 -6 3
-14 -3 -8 -1 -17 5 -21 6 -3 11 -1 11 4 0 6 9 11 20 11 22 0 27 -16 8 -23 -7
-2 -10 -8 -6 -12 9 -10 49 24 47 39 -4 30 2 56 16 70 8 8 15 32 15 54 0 50 8
72 26 72 16 0 34 31 34 60 0 12 4 19 9 16 4 -3 6 5 4 19 -5 21 37 93 60 103 4
2 4 9 1 14 -4 6 -2 8 3 5 6 -4 9 -20 7 -37 -2 -20 0 -29 7 -24 6 3 8 13 5 21
-4 11 -2 13 9 9 8 -3 15 -1 15 4 0 6 8 10 18 10 11 0 27 9 36 19 16 18 16 20
-4 39 -12 11 -19 25 -15 31 3 6 1 11 -4 11 -6 0 -11 -6 -11 -12 0 -7 -5 -5
-11 4 -13 24 5 56 35 64 20 5 24 11 21 36 -4 25 -1 29 13 24 15 -5 15 -5 1 6
-10 9 -13 22 -9 37 5 20 12 24 49 26 35 2 45 -1 48 -16 3 -11 11 -15 20 -12
12 5 14 1 8 -18 -3 -13 -3 -19 2 -14 5 7 26 6 63 -1 30 -7 51 -13 46 -13 -5
-1 3 -12 18 -26 15 -14 25 -29 22 -34 -3 -5 1 -11 9 -15 8 -3 15 -16 15 -29 0
-14 7 -30 15 -37 8 -7 15 -21 15 -31 0 -11 5 -19 11 -19 6 0 8 -7 5 -16 -4
-10 1 -25 10 -35 8 -9 17 -28 19 -41 2 -12 11 -47 20 -76 25 -81 34 -159 35
-292 1 -115 -21 -239 -56 -314 -14 -31 -23 -60 -19 -66 3 -5 2 -10 -3 -10 -9
0 -24 -58 -29 -115 -5 -57 -16 -100 -29 -116 -8 -9 -11 -19 -8 -22 4 -4 -1 -9
-10 -13 -9 -3 -16 -10 -16 -15 0 -13 -94 -109 -107 -109 -6 0 -13 -5 -15 -11
-2 -7 -17 -13 -33 -15 -32 -3 -74 -48 -75 -80 0 -25 -56 -100 -62 -83 -3 9
-10 9 -28 -1 -40 -21 -77 -55 -73 -67 3 -7 -5 -21 -16 -32 -12 -12 -21 -24
-21 -28 -1 -19 -52 -64 -65 -59 -8 3 -15 1 -15 -4 0 -6 -6 -10 -14 -10 -18 0
-76 -48 -76 -62 0 -6 -8 -17 -17 -24 -17 -13 -17 -14 0 -8 18 6 24 -10 7 -21
-5 -3 -7 -12 -3 -20 3 -8 0 -15 -6 -15 -6 0 -11 4 -11 9 0 5 -9 11 -21 14 -17
5 -20 2 -16 -14 3 -12 0 -19 -8 -19 -7 0 -15 -3 -17 -7 -1 -5 -24 -16 -51 -25
-46 -17 -47 -17 -37 2 13 23 -7 28 -29 8 -11 -11 -12 -9 -6 10 6 20 4 23 -12
20 -10 -2 -17 -9 -16 -15 1 -6 -4 -14 -12 -17 -10 -3 -15 1 -15 12 0 14 -2 15
-9 2 -6 -8 -8 -17 -5 -21 2 -4 0 -10 -5 -13 -5 -4 -13 -2 -16 4 -4 7 -16 0
-30 -16 -18 -21 -23 -23 -22 -9 1 12 -7 21 -25 26 -32 8 -34 6 -12 -15 13 -14
13 -16 0 -16 -8 0 -18 9 -21 21 -4 11 -9 18 -12 15 -3 -2 -16 -1 -29 4 -26 10
-37 1 -23 -20 6 -11 9 -12 9 -2 0 7 4 10 10 7 13 -8 -11 -34 -27 -28 -8 3 -10
-3 -6 -18 5 -17 3 -20 -7 -14 -9 6 -11 4 -5 -5 12 -20 16 -90 5 -90 -6 0 -18
-16 -28 -37 -13 -27 -14 -37 -4 -40 6 -3 12 -11 12 -19 0 -10 -8 -12 -30 -8
-25 5 -31 3 -39 -17 -4 -13 -11 -23 -15 -21 -3 1 -16 2 -28 1 -13 0 -18 -3
-11 -5 17 -8 -4 -62 -28 -69 -10 -4 -19 -10 -19 -15 0 -5 -6 -7 -14 -4 -10 4
-15 -6 -18 -37 -3 -34 0 -43 14 -47 10 -2 18 -9 18 -14 0 -5 -4 -6 -10 -3 -6
4 -10 -8 -10 -29 0 -20 -5 -36 -11 -36 -5 0 -7 5 -3 12 4 6 3 8 -4 5 -5 -4
-18 -4 -27 -1 -15 6 -14 8 1 25 10 11 14 22 11 26 -4 3 -7 1 -7 -5 0 -7 -15
-12 -32 -13 -20 0 -27 -3 -18 -7 20 -9 22 -65 2 -57 -7 3 -18 5 -24 5 -6 0 -7
7 -4 16 3 8 2 12 -4 9 -20 -12 -9 -33 21 -39 17 -3 35 -4 39 -1 4 3 10 -2 14
-10 3 -8 1 -17 -4 -20 -12 -8 -60 5 -60 16 0 5 -7 9 -15 9 -8 0 -20 9 -27 20
-7 11 -21 20 -31 20 -11 0 -17 5 -14 13 2 6 -5 20 -15 29 -11 9 -18 24 -16 34
2 12 -9 21 -39 32 -24 9 -43 23 -43 30 0 11 -3 12 -14 3 -11 -9 -15 -8 -21 6
-5 10 -7 21 -7 26 1 4 -4 7 -12 7 -16 0 -32 36 -27 59 2 9 -3 12 -13 8 -9 -4
-16 -3 -16 2 0 10 -37 23 -65 23 -17 -1 -17 0 -2 4 19 6 23 29 7 39 -6 4 -17
1 -25 -5 -8 -7 -15 -9 -15 -6 0 4 -8 0 -17 -10 -17 -17 -18 -17 -21 0 -5 21
-47 18 -47 -4 0 -15 -13 -30 -27 -30 -3 0 -4 8 -1 18 2 10 -3 24 -11 31 -14
12 -16 10 -16 -8 0 -11 -4 -21 -10 -21 -5 0 -10 5 -10 11 0 6 -7 9 -15 5 -9
-3 -15 0 -15 8 0 7 -9 21 -20 31 -11 10 -22 27 -26 38 -4 11 -15 30 -25 41
-11 11 -19 32 -19 48 0 15 -4 28 -10 28 -5 0 -9 3 -8 8 1 4 -3 16 -9 28 -25
44 -52 434 -30 434 5 0 1 8 -9 17 -16 16 -34 54 -48 99 -4 15 -1 28 11 40 17
17 17 17 -11 10 -23 -6 -27 -4 -23 7 3 8 -3 24 -13 35 -17 18 -17 22 -5 32 8
7 15 26 15 42 0 20 4 27 12 22 8 -5 9 0 5 15 -4 17 0 24 16 31 18 7 19 9 4 9
-10 1 -15 5 -12 11 3 5 -3 15 -14 22 -14 9 -17 16 -10 24 6 7 17 10 25 7 8 -3
14 -1 14 5 0 6 -5 12 -11 14 -8 3 -5 10 6 22 14 14 15 20 6 26 -9 5 -10 10 -2
14 14 9 15 46 1 46 -17 0 -11 18 8 24 14 5 18 15 18 41 -1 19 -4 37 -7 40 -12
11 4 55 22 60 10 4 19 11 19 16 0 6 -6 6 -18 0 -25 -13 -40 -1 -40 32 0 20 5
27 14 23 8 -3 14 -1 14 4 0 6 -7 10 -15 10 -8 0 -15 5 -15 10 0 6 -6 10 -14
10 -8 0 -17 6 -20 13 -4 6 -4 2 -2 -11 2 -12 0 -20 -5 -16 -5 3 -9 13 -9 23 0
9 -5 22 -12 29 -9 9 -9 15 0 24 9 9 12 9 12 0 0 -7 6 -12 14 -12 8 0 16 -5 18
-12 3 -7 7 -5 11 6 4 9 3 15 -2 11 -5 -3 -12 -1 -15 4 -4 5 3 12 14 16 22 7
26 20 8 31 -7 4 -8 3 -4 -4 4 -7 5 -12 2 -12 -2 0 -12 -3 -22 -7 -14 -5 -16
-2 -10 20 6 25 5 25 -26 17 l-31 -10 24 23 24 22 -28 3 c-15 2 -27 7 -27 12 0
5 -7 7 -15 4 -16 -7 -21 11 -5 21 5 3 1 19 -10 37 -10 17 -16 37 -13 44 3 8 0
14 -7 14 -6 0 -9 4 -5 9 3 5 1 12 -5 16 -5 3 -10 15 -10 27 0 16 3 18 14 9 11
-9 15 -8 20 5 9 24 7 31 -9 31 -8 0 -15 -4 -15 -9 0 -6 -15 0 -34 11 -18 12
-44 21 -56 21 -17 0 -20 3 -12 13 5 7 6 21 1 32 -4 11 -8 27 -8 35 -1 13 0 13
9 0 8 -12 10 -12 10 -1 0 8 3 12 6 8 3 -3 15 3 27 13 11 11 24 17 30 13 5 -3
8 0 5 8 -3 9 -16 13 -34 11 -24 -3 -31 2 -40 27 -11 27 -9 32 14 53 15 13 20
15 13 5 -12 -15 -12 -17 3 -11 9 3 16 15 16 27 0 18 2 19 18 5 32 -27 49 -29
44 -3 -3 17 2 25 18 30 13 4 18 10 13 14 -6 3 -8 15 -6 26 3 11 6 34 7 50 0
17 6 32 11 34 6 3 16 11 23 18 8 7 17 12 20 10 4 -2 18 7 31 20 23 22 23 23 4
23 -27 0 -39 31 -19 46 17 12 21 34 7 34 -5 0 -17 -7 -26 -16 -9 -9 -19 -13
-23 -10 -3 4 0 11 8 17 11 7 12 11 3 17 -8 5 -9 13 -3 22 5 9 5 19 -2 27 -6 8
-8 16 -4 20 3 3 6 1 6 -5 0 -7 10 -12 23 -12 12 0 17 4 11 8 -6 4 -14 15 -17
26 -6 15 -10 16 -22 6 -12 -10 -15 -9 -15 6 0 11 -7 33 -16 49 -16 32 -24 108
-12 121 4 4 14 1 23 -6 12 -10 15 -10 15 4 0 9 6 16 13 16 18 0 57 34 57 49 0
6 6 11 14 11 20 0 31 21 16 30 -8 5 -9 10 -2 14 6 4 9 13 6 21 -4 10 8 21 41
35 26 11 55 20 65 20 10 0 20 6 23 14 4 10 0 12 -16 8 -21 -5 -21 -5 -4 12 10
10 16 25 13 32 -3 8 0 14 6 14 6 0 1 9 -12 20 -13 11 -18 20 -12 20 6 0 10 9
9 19 0 11 -4 18 -8 15 -17 -10 -16 13 0 25 21 15 17 53 -4 45 -9 -4 -13 2 -11
20 2 15 -1 29 -5 32 -5 3 -9 14 -9 25 0 10 -4 19 -10 19 -5 0 -10 7 -10 15 0
8 7 15 15 15 8 0 15 4 15 10 0 5 -6 7 -14 4 -9 -3 -18 6 -25 27 -14 41 -14 42
4 35 8 -3 15 -1 15 3 0 5 3 17 6 26 4 10 2 15 -6 13 -7 -2 -15 3 -17 10 -3 8
3 11 19 10 18 -3 24 2 26 25 3 23 8 27 35 27 27 1 30 3 17 13 -16 13 -20 73
-6 95 4 8 1 12 -11 13 -10 0 -13 3 -5 6 6 2 12 15 12 28 0 26 33 55 62 55 21
0 22 8 8 45 -8 21 -7 26 2 22 7 -2 12 -10 10 -16 -1 -7 2 -10 8 -6 6 3 8 10 5
15 -3 4 6 11 20 14 16 4 22 11 19 21 -4 10 0 15 11 15 13 0 16 6 13 25 -3 14
-1 25 3 25 5 0 9 6 9 13 0 7 9 21 21 30 16 15 18 21 9 33 -10 12 -8 14 14 12
14 -1 28 -8 30 -15 3 -7 10 -13 17 -13 6 0 9 6 6 14 -3 7 0 19 6 26 9 10 8 12
-5 7 -9 -3 -19 0 -21 7 -6 15 8 14 78 -7z m-1380 -210 c1 -1 12 -24 26 -52 20
-39 24 -57 19 -83 -4 -18 -4 -35 0 -37 5 -3 7 -16 5 -30 -1 -14 1 -25 6 -25 4
0 6 -8 4 -18 -3 -19 -8 -91 -6 -104 1 -5 1 -11 0 -14 0 -4 5 -10 11 -14 9 -6
9 -13 1 -28 -8 -15 -7 -33 5 -72 8 -29 13 -54 10 -58 -3 -3 0 -12 7 -20 9 -12
9 -16 0 -19 -20 -7 -15 -21 8 -28 20 -7 21 -12 15 -60 -3 -30 -2 -56 3 -59 4
-3 6 -16 4 -29 -4 -21 15 -95 62 -242 8 -23 9 -44 4 -51 -5 -6 -2 -19 7 -32
13 -19 13 -23 -6 -42 -25 -25 -26 -50 -1 -57 21 -5 37 -46 21 -51 -12 -4 -14
-33 -2 -31 23 4 32 -5 38 -38 4 -21 14 -43 22 -49 11 -8 12 -13 3 -18 -6 -4
-8 -13 -4 -19 4 -6 8 -18 9 -27 1 -8 5 -37 9 -65 8 -60 10 -101 6 -180 -2 -33
0 -188 4 -345 6 -219 5 -298 -5 -340 -7 -30 -14 -86 -16 -125 -3 -41 -10 -75
-18 -83 -8 -8 -44 -22 -80 -33 -73 -20 -83 -18 -161 30 -47 29 -74 60 -75 83
0 9 -5 18 -12 20 -12 4 5 176 34 346 6 35 11 98 12 140 1 63 -3 84 -21 115
-13 21 -25 49 -27 62 -3 14 -7 33 -10 43 -2 9 -8 44 -11 77 -4 32 -9 64 -12
69 -17 26 -37 156 -34 216 6 127 -7 275 -31 344 -15 43 -19 72 -14 107 6 44
-6 134 -35 264 -22 95 -3 177 34 147 11 -10 17 -9 26 1 6 8 8 17 4 21 -11 11
-16 67 -13 139 1 13 6 17 17 13 8 -4 35 -9 59 -11 35 -5 46 -2 51 11 3 9 0 20
-8 25 -11 7 -11 9 -1 9 9 0 11 7 7 20 -4 12 -2 20 5 20 8 0 9 10 5 29 -9 44 4
80 31 87 19 5 22 9 14 19 -8 10 -7 16 6 23 12 7 13 11 5 17 -9 5 -9 10 -1 20
8 9 3 17 -17 31 -16 10 -32 19 -38 19 -5 0 -11 8 -13 19 -3 16 0 18 24 12 16
-4 29 -8 29 -9z m4321 -1447 c9 0 13 -4 10 -9 -4 -5 -3 -16 0 -25 5 -13 9 -14
20 -5 11 9 14 8 14 -5 0 -9 10 -21 23 -27 29 -13 54 -49 35 -49 -9 -1 -9 -4 2
-13 19 -15 41 -75 30 -82 -5 -3 -10 -2 -13 2 -2 5 -2 2 0 -5 1 -8 3 -21 3 -30
0 -13 3 -12 15 4 12 16 16 17 24 4 7 -9 6 -17 -1 -21 -6 -4 -7 -12 -4 -18 4
-6 3 -11 -3 -11 -5 0 -12 6 -15 13 -3 6 -3 2 0 -11 4 -16 2 -23 -8 -21 -26 3
-39 -1 -32 -12 4 -8 9 -7 15 2 7 12 9 12 9 0 0 -8 7 -11 18 -9 21 6 46 -17 36
-33 -4 -8 -9 -7 -15 2 -10 17 -20 8 -22 -20 -1 -11 -7 -23 -15 -26 -8 -3 -10
0 -6 8 5 9 4 9 -6 0 -10 -9 -10 -15 -2 -26 7 -8 9 -17 5 -20 -3 -4 0 -13 7
-22 7 -8 8 -15 4 -15 -5 0 -15 9 -22 20 -7 12 -18 18 -25 13 -9 -5 -9 -4 0 8
14 18 5 69 -13 69 -8 0 -14 -5 -14 -11 0 -5 -5 -7 -10 -4 -6 4 -8 11 -5 16 4
5 1 9 -5 9 -6 0 -8 5 -5 11 4 6 13 8 21 5 9 -3 14 1 14 14 0 10 -6 20 -12 23
-7 2 -4 3 7 1 12 -2 27 7 38 22 17 23 17 24 0 21 -10 -1 -23 -6 -29 -10 -16
-10 -26 4 -13 20 9 10 8 13 -5 13 -9 0 -16 -7 -16 -15 0 -8 -5 -15 -11 -15 -6
0 -9 7 -6 15 4 8 2 17 -4 20 -5 4 -13 -4 -18 -17 -7 -16 -10 -18 -10 -6 -1 9
-7 19 -13 21 -10 4 -10 8 1 15 10 7 11 14 2 31 -7 12 -9 27 -5 33 5 8 2 9 -9
5 -16 -6 -21 4 -20 41 1 7 -10 15 -24 18 l-25 7 27 17 27 17 -31 11 c-17 6
-31 16 -31 22 0 7 6 8 18 1 28 -15 74 -11 68 6 -4 8 -3 20 1 26 5 8 8 8 11 -1
2 -7 10 -12 18 -12z m10974 -811 c93 -11 261 -62 299 -91 13 -10 20 -18 16
-18 -4 0 -3 -6 3 -12 10 -13 15 -40 13 -65 -2 -19 -28 -4 -34 19 -8 31 -24 13
-19 -22 4 -29 -10 -41 -23 -20 -3 5 -12 7 -20 3 -11 -3 -13 -1 -9 10 3 9 12
18 20 21 9 3 12 11 9 17 -5 7 -12 6 -23 -4 -38 -33 -98 -41 -259 -34 -40 2
-73 0 -73 -3 0 -4 -23 -3 -51 2 -47 9 -54 7 -98 -21 -26 -17 -59 -31 -72 -31
-14 0 -34 -6 -44 -14 -14 -10 -26 -11 -43 -5 -15 6 -31 5 -43 -2 -12 -6 -27
-8 -35 -5 -19 7 -44 -3 -44 -19 0 -8 -8 -11 -19 -8 -11 3 -29 -2 -41 -10 -13
-9 -34 -13 -51 -10 -22 3 -29 0 -29 -12 0 -19 -29 -32 -39 -17 -5 8 -14 7 -34
-3 -17 -9 -27 -10 -27 -3 0 6 -7 5 -17 -3 -9 -8 -24 -13 -34 -11 -11 2 -20 -5
-24 -18 -9 -27 -42 -39 -79 -29 -35 10 -36 10 -41 -27 -2 -16 -4 -30 -4 -32
-1 -2 -8 4 -17 12 -23 23 -31 20 -38 -15 -5 -25 -9 -29 -26 -24 -31 10 -62 -4
-55 -24 3 -10 -3 -22 -17 -31 -12 -8 -36 -30 -55 -49 -19 -19 -39 -31 -48 -27
-8 3 -17 1 -20 -4 -3 -5 5 -10 17 -12 30 -4 30 -22 1 -26 -13 -2 -23 -7 -23
-12 0 -5 -10 -20 -22 -34 -13 -13 -27 -30 -33 -36 -5 -6 -19 -17 -29 -24 -12
-8 -19 -24 -18 -43 0 -27 -3 -32 -29 -35 -22 -4 -29 -1 -29 13 0 9 7 22 15 29
8 7 15 21 15 31 0 11 8 27 18 37 9 10 26 34 36 53 39 68 139 191 229 280 87
86 226 199 246 199 5 0 14 7 21 15 31 38 259 132 409 170 162 41 285 51 421
34z m-16506 -451 c7 -13 17 -42 20 -66 4 -24 18 -71 32 -105 17 -41 26 -86 28
-132 3 -49 12 -87 30 -129 26 -58 33 -132 19 -203 -5 -20 -7 -21 -26 -9 -12 8
-34 16 -48 20 -14 3 -49 28 -78 55 -30 28 -61 53 -70 56 -15 5 -155 185 -179
231 -6 11 -27 32 -46 45 -20 13 -36 29 -36 35 0 22 107 110 172 143 35 17 80
42 99 56 43 30 65 31 83 3z m34831 -208 c-4 -6 5 -10 20 -10 22 0 25 -3 20
-20 -5 -16 -2 -20 15 -20 18 0 19 3 10 20 -9 16 -8 20 5 20 9 0 13 -4 10 -10
-3 -5 -2 -10 4 -10 5 0 13 5 16 11 4 5 12 8 18 6 7 -2 20 0 30 5 12 6 19 5 23
-7 3 -8 11 -15 16 -15 6 0 7 7 4 16 -3 8 -2 12 4 9 6 -3 10 -13 10 -20 0 -9 6
-12 15 -9 8 3 22 -1 30 -10 9 -9 23 -16 30 -16 8 0 21 -10 29 -22 9 -12 16
-17 16 -10 0 8 10 3 24 -10 13 -13 51 -49 85 -80 34 -32 61 -62 61 -66 0 -5 9
-17 20 -27 11 -10 20 -23 20 -29 0 -6 14 -26 31 -44 17 -18 32 -38 33 -45 4
-19 39 -87 45 -87 3 0 7 -14 8 -30 1 -17 9 -38 18 -46 8 -9 13 -20 9 -25 -3
-5 4 -24 15 -43 11 -18 18 -35 16 -38 -3 -3 2 -22 12 -44 9 -21 17 -41 18 -44
5 -19 27 -86 49 -146 35 -100 68 -223 61 -235 -4 -5 -2 -9 2 -9 10 0 32 -121
41 -225 7 -78 9 -510 3 -595 -2 -30 -8 -68 -13 -85 -16 -58 -18 -228 -3 -322
8 -50 12 -99 9 -107 -3 -9 -1 -16 4 -16 6 0 11 -8 11 -17 -1 -23 8 -74 23
-143 6 -30 12 -59 13 -65 1 -5 3 -12 3 -15 4 -11 3 -489 0 -545 -2 -33 -7 -65
-11 -71 -3 -6 -7 -38 -8 -70 -2 -33 -6 -66 -10 -74 -7 -15 -18 -76 -25 -143
-2 -21 -9 -57 -15 -80 -14 -51 -18 -227 -5 -234 5 -3 1 -10 -8 -15 -9 -5 -16
-17 -16 -26 0 -15 -2 -15 -10 -2 -8 11 -10 7 -8 -17 2 -25 5 -30 15 -21 25 20
13 -8 -12 -30 -14 -12 -25 -32 -25 -45 0 -13 -3 -27 -7 -31 -8 -7 -11 -25 -15
-73 -3 -36 -14 -43 -21 -15 -3 9 -6 1 -7 -18 -4 -51 -5 -54 -13 -68 -5 -7 -13
-9 -19 -6 -7 5 -9 2 -5 -8 3 -9 0 -21 -6 -27 -6 -6 -8 -11 -4 -11 4 0 1 -16
-8 -36 -8 -19 -15 -49 -15 -67 -1 -47 22 -140 38 -153 12 -9 11 -13 -4 -28
-14 -15 -15 -21 -5 -35 6 -9 22 -37 34 -63 12 -26 27 -48 32 -48 6 0 11 -9 12
-19 1 -11 11 -38 22 -61 11 -23 17 -49 14 -57 -4 -11 -2 -14 5 -9 12 7 17 -10
13 -48 0 -10 3 -24 9 -31 8 -9 5 -14 -8 -17 -21 -6 -39 -80 -21 -86 6 -3 6 -8
-1 -17 -8 -9 -8 -15 0 -20 5 -3 10 -12 10 -18 0 -8 -3 -7 -9 2 -7 11 -10 9
-16 -9 -5 -15 -2 -25 6 -31 15 -9 7 -12 -27 -10 -12 1 -25 -8 -34 -24 -7 -14
-17 -25 -22 -25 -4 0 -8 -9 -8 -19 0 -24 -29 -36 -36 -16 -10 24 -21 17 -22
-12 -2 -55 -6 -65 -28 -75 -13 -6 -26 -23 -29 -39 -4 -19 -11 -26 -21 -22 -9
3 -14 -1 -14 -14 0 -22 -36 -49 -43 -30 -2 7 -14 1 -30 -15 -31 -31 -33 -38
-13 -38 9 0 12 -7 9 -19 -3 -12 -11 -17 -23 -14 -10 3 -21 0 -24 -6 -4 -7 1
-11 13 -11 11 0 22 -4 26 -9 11 -18 -10 -19 -45 -1 -31 16 -37 16 -65 3 -35
-17 -67 -56 -41 -51 15 3 16 1 16 -29 0 -14 -2 -15 -17 -1 -10 9 -24 13 -30
11 -7 -3 -13 2 -13 11 0 9 -6 16 -14 16 -8 0 -17 6 -19 13 -4 7 -6 6 -6 -4 -1
-9 7 -20 16 -23 15 -6 15 -8 3 -16 -9 -6 -17 -5 -21 1 -3 6 -9 2 -11 -9 -3
-11 -2 -25 2 -31 9 -15 40 -3 40 15 0 8 7 14 15 14 21 0 19 -9 -7 -32 -16 -13
-22 -28 -20 -48 3 -21 -2 -30 -17 -35 -12 -3 -21 -10 -21 -14 0 -4 -8 -7 -18
-8 -15 -1 -18 4 -14 24 3 18 10 23 22 20 10 -2 24 -1 31 4 12 7 12 9 0 9 -8 0
-11 6 -7 16 5 14 1 13 -26 -3 -36 -21 -56 -16 -98 22 -18 17 -20 17 -14 2 11
-30 -13 -18 -26 13 -7 17 -16 30 -21 30 -12 0 -11 -17 1 -25 6 -3 10 -11 10
-16 0 -6 -6 -7 -12 -3 -8 5 -7 1 2 -10 13 -16 12 -20 -9 -37 -13 -11 -32 -19
-42 -19 -11 0 -16 -5 -13 -14 3 -7 -3 -17 -13 -20 -14 -6 -15 -4 -6 5 7 7 9
19 3 34 -5 13 -6 26 -3 29 4 3 1 6 -5 6 -7 0 -12 5 -12 12 0 6 3 8 7 5 9 -10
33 13 32 32 0 10 -2 11 -6 4 -7 -18 -23 -16 -23 2 0 24 -18 17 -22 -7 -2 -13
-11 -24 -23 -26 -11 -3 -17 -1 -12 4 4 4 -1 16 -10 26 -14 16 -15 18 -1 13 12
-5 17 2 20 24 3 17 1 31 -4 31 -4 0 -8 -6 -8 -14 0 -8 -13 -17 -30 -21 -27 -6
-28 -8 -15 -22 8 -8 13 -18 10 -23 -3 -5 1 -11 7 -14 7 -3 4 -5 -7 -3 -11 1
-20 9 -20 17 0 8 -4 18 -9 21 -12 9 1 42 13 34 5 -3 12 -1 15 4 4 5 -3 13 -14
16 -12 4 -25 18 -30 31 -9 24 -30 33 -30 14 0 -5 -7 -10 -15 -10 -9 0 -15 9
-15 25 0 14 -4 25 -10 25 -14 0 -50 37 -51 53 0 10 -2 10 -6 0 -2 -7 -10 -13
-16 -13 -5 0 -7 3 -4 7 9 9 -23 44 -34 37 -5 -3 -9 3 -9 14 0 16 -6 19 -31 16
-24 -3 -30 0 -27 13 2 9 14 20 28 24 23 7 24 7 3 8 -16 1 -21 5 -16 17 5 14 3
15 -14 6 -17 -9 -19 -8 -18 11 1 12 9 23 18 25 18 4 22 14 10 25 -3 4 -12 2
-20 -4 -10 -9 -13 -8 -13 0 0 7 -4 9 -10 6 -5 -3 -10 -2 -10 4 0 5 6 12 13 14
7 4 6 6 -5 6 -9 1 -18 -5 -20 -11 -3 -7 -7 -2 -10 10 -4 12 -2 22 4 22 5 0 -2
14 -17 32 -14 17 -23 34 -18 37 4 3 9 17 11 31 1 14 -1 20 -5 14 -5 -5 -19
-10 -32 -10 l-23 0 21 14 c11 8 21 19 21 24 0 6 -7 5 -15 -2 -8 -7 -16 -10
-16 -6 -5 24 -4 33 4 49 7 16 6 17 -11 8 -22 -12 -63 -11 -55 2 3 5 14 7 24 4
27 -7 24 12 -3 22 -14 5 -26 5 -29 -2 -4 -5 -12 0 -19 13 -10 18 -9 24 1 31
11 7 10 9 -3 9 -10 0 -33 15 -51 34 -31 31 -33 35 -18 47 9 8 22 14 29 15 28
2 32 5 32 18 0 8 -5 16 -11 18 -9 3 -9 9 0 25 17 33 13 50 -14 57 -14 4 -25
11 -25 16 0 6 -12 10 -26 10 -14 0 -23 4 -19 10 4 6 10 8 14 5 5 -2 17 2 27
10 11 8 14 14 7 15 -25 0 -14 39 12 46 22 5 24 9 13 22 -10 12 -10 16 0 19 6
3 12 18 12 33 0 16 5 32 10 35 6 3 10 17 10 31 0 14 4 22 10 19 9 -5 15 24 11
49 -1 4 3 14 9 21 14 17 -6 130 -27 151 -8 7 -12 18 -8 23 3 5 1 12 -5 16 -6
4 -8 10 -5 15 3 5 -4 14 -15 20 -11 6 -20 17 -20 25 0 8 -8 20 -19 27 -10 7
-27 30 -38 50 -11 21 -23 35 -27 31 -3 -3 -6 4 -6 16 0 12 -7 24 -15 27 -8 4
-15 11 -15 16 0 5 -9 22 -19 37 -24 33 -61 129 -61 156 0 11 -6 29 -14 40 -11
16 -24 67 -31 120 -1 6 -4 17 -8 25 -8 20 -48 215 -53 260 -6 53 -12 105 -14
105 -3 0 -7 36 -15 115 -4 41 -9 78 -12 82 -8 14 -3 402 7 503 5 55 17 147 26
205 20 128 23 323 7 365 -31 76 -36 92 -40 115 -2 14 -8 27 -14 28 -5 2 -9 25
-9 50 0 26 -4 63 -9 82 -10 36 -13 63 -32 270 -15 163 -13 379 5 444 23 81 52
157 70 177 9 11 14 19 11 19 -9 0 60 123 83 148 7 8 20 28 29 45 9 18 29 51
44 74 16 23 29 48 29 55 0 7 25 31 55 53 31 22 65 50 76 63 13 15 28 22 40 19
10 -3 19 -1 19 4 0 5 -4 9 -10 9 -5 0 -10 5 -10 11 0 6 7 8 16 5 9 -4 24 5 39
22 14 15 25 21 25 14 0 -8 5 -10 13 -5 6 4 18 8 25 9 8 2 19 9 25 17 7 8 31
26 53 40 32 20 44 23 53 14 9 -9 14 -9 19 0 4 7 21 10 40 8 17 -2 34 0 37 6 4
5 10 7 15 4 4 -3 10 5 14 18 5 18 8 20 16 7 8 -13 10 -13 10 2 0 11 6 15 20
11 12 -3 22 1 26 11 3 9 12 16 19 16 7 0 15 9 18 20 3 14 0 20 -11 20 -8 0
-13 3 -9 6 3 3 27 7 53 7 41 0 44 2 28 14 -10 7 -20 9 -23 4 -8 -11 -71 -2
-71 10 0 5 12 6 26 3 18 -5 25 -3 20 4 -3 6 -2 13 4 17 5 3 10 2 10 -4 0 -7 8
-7 26 -1 16 7 23 7 19 0 -10 -16 12 -12 29 6 15 14 17 14 23 -2 5 -15 8 -14
16 7 6 13 9 30 8 37 -1 6 5 12 14 12 9 0 13 -4 10 -10z m-32620 -986 c0 -11 7
-19 17 -19 10 0 18 -4 17 -9 0 -4 15 -16 33 -26 18 -9 33 -22 33 -28 0 -6 6
-17 13 -23 6 -7 12 -19 12 -27 0 -7 6 -12 12 -10 23 8 61 -38 56 -66 -3 -14
-1 -26 3 -26 5 0 9 -4 9 -10 0 -17 -26 -11 -45 10 -13 14 -14 20 -5 20 7 0 10
3 7 6 -4 4 -12 2 -20 -4 -12 -10 -38 12 -94 81 -19 24 -53 90 -53 104 0 7 -7
10 -15 7 -14 -6 -15 2 -6 44 3 13 26 -8 26 -24z m3760 -6095 c28 -6 73 -13
101 -18 29 -4 63 -15 77 -24 13 -9 34 -13 45 -10 11 3 43 0 71 -6 28 -6 97
-13 154 -16 102 -5 245 -15 302 -21 17 -2 52 -4 80 -4 27 -1 54 -5 60 -10 6
-5 27 -5 48 0 36 8 54 0 43 -19 -7 -10 -121 -25 -186 -24 -26 1 -48 -4 -55
-12 -7 -10 -21 -12 -54 -5 -45 8 -98 -3 -114 -24 -5 -6 -5 -1 -2 12 6 20 3 22
-29 22 -25 0 -36 -4 -36 -15 0 -8 -9 -15 -20 -15 -11 0 -20 -4 -20 -10 0 -5
-9 -14 -21 -21 -17 -9 -24 -7 -39 9 -20 21 -68 20 -82 -2 -4 -6 -8 6 -8 27 0
46 -21 47 -27 1 -2 -16 -11 -36 -19 -44 -13 -13 -16 -13 -24 0 -13 19 -12 30
0 30 5 0 2 9 -7 20 -13 14 -20 17 -30 8 -7 -6 -13 -17 -13 -24 0 -31 -29 0
-32 34 -4 48 -27 52 -53 9 -25 -39 -60 -48 -68 -16 -8 30 -33 18 -29 -15 3
-26 1 -27 -33 -20 -26 5 -35 3 -35 -7 0 -8 -11 -15 -26 -15 -14 -1 -23 1 -19
4 7 7 -77 32 -118 35 -16 1 -34 9 -40 17 -17 22 -74 14 -80 -11 -3 -10 -11
-19 -17 -19 -7 0 -10 6 -7 14 3 8 -1 20 -9 27 -17 14 -13 34 7 34 8 0 13 8 13
18 -1 9 2 17 7 17 5 0 9 -5 9 -12 0 -6 11 2 25 18 14 16 25 23 25 17 0 -19 18
-16 37 7 10 11 24 20 31 20 8 0 12 6 8 15 -4 11 1 15 17 15 13 0 27 4 33 9 12
12 63 20 89 14 11 -3 43 -9 70 -14z m-607 -636 c0 -31 -23 -61 -31 -40 -2 6
-8 -6 -12 -28 -5 -28 -20 -52 -49 -80 l-42 -41 -19 23 c-11 12 -19 31 -17 42
2 11 -2 22 -8 26 -8 5 -4 12 10 22 14 10 20 22 17 34 -6 23 2 24 29 5 13 -10
23 -11 31 -4 7 6 13 7 13 2 0 -4 9 2 20 14 11 12 20 26 20 31 0 6 7 8 15 5 8
-4 15 -1 15 5 0 6 2 11 4 11 2 0 4 -12 4 -27z m332 -187 c0 -7 7 -19 15 -26 8
-7 12 -17 9 -22 -3 -5 3 -12 15 -15 12 -3 21 -8 21 -12 -1 -12 -28 -41 -39
-41 -6 0 -20 -6 -31 -12 -16 -10 -24 -10 -41 0 -18 12 -21 11 -26 -8 -4 -17
-12 -21 -30 -17 -13 2 -26 1 -28 -4 -7 -10 -64 -8 -71 3 -3 5 -1 14 4 21 5 7
6 21 1 32 -12 30 -11 35 10 35 26 0 49 -28 29 -35 -8 -3 -15 -12 -15 -20 0
-16 47 -10 59 8 4 7 11 7 21 -2 10 -8 17 -9 22 -1 3 5 -8 23 -26 40 l-33 29
28 11 c32 12 46 13 45 3 -4 -25 2 -33 19 -24 9 5 26 13 37 16 19 7 19 8 -5 18
-33 15 -33 14 -25 26 9 16 35 13 35 -3z m-510 -55 c-7 -39 -38 -94 -49 -87
-10 6 -45 -23 -38 -31 10 -9 -64 -42 -80 -36 -7 3 -20 0 -28 -7 -8 -7 -15 -9
-15 -4 -1 5 -7 -2 -14 -15 -8 -14 -12 -30 -9 -37 7 -18 84 -5 111 19 12 11 22
17 22 13 0 -5 6 -3 14 3 20 17 48 3 41 -20 -6 -16 -2 -18 26 -12 30 6 31 5 20
-16 -9 -16 -18 -20 -36 -15 -27 7 -80 -21 -105 -55 -17 -25 -35 -28 -26 -4 4
9 1 20 -6 25 -22 13 -29 9 -23 -14 8 -35 -8 -53 -34 -39 -24 13 -65 6 -82 -15
-6 -8 -37 -21 -68 -30 -71 -21 -83 -31 -76 -63 3 -14 0 -33 -5 -41 -8 -12 -10
-8 -8 15 3 28 1 30 -36 33 -29 3 -44 -2 -63 -20 -23 -21 -93 -35 -93 -17 0 15
105 99 125 99 30 1 101 36 130 64 13 13 34 27 45 31 11 3 20 11 20 17 0 21 33
48 59 48 24 0 26 4 27 41 1 24 7 45 15 50 13 7 52 39 89 73 8 8 27 20 42 26
16 8 24 18 21 26 -6 16 27 31 67 31 25 0 26 -2 20 -36z m196 -82 c3 -6 19 -9
34 -7 24 4 29 0 33 -21 6 -32 2 -37 -17 -22 -19 16 -66 -3 -67 -26 0 -12 -2
-14 -6 -4 -4 9 -7 10 -12 2 -4 -6 -24 -14 -45 -16 -21 -3 -45 -12 -54 -21 -14
-15 -14 -17 4 -28 23 -13 67 -14 76 -1 4 5 10 6 14 2 15 -15 -12 -26 -71 -29
l-60 -3 0 30 c0 27 -3 30 -27 28 -16 -1 -28 1 -28 5 1 12 27 42 32 37 2 -3 20
9 39 26 27 24 41 29 66 26 18 -3 31 -1 28 3 -6 9 23 29 42 30 6 0 15 -5 19
-11z m-1486 -709 c0 -6 -10 -14 -23 -19 -13 -5 -40 -25 -60 -45 -21 -20 -45
-36 -55 -36 -10 0 -29 -11 -42 -25 -13 -14 -28 -24 -34 -23 -17 2 -106 -42
-106 -52 0 -6 -11 -10 -24 -10 -13 0 -26 -3 -28 -7 -4 -10 -53 -38 -90 -54
-16 -6 -28 -17 -28 -25 0 -8 -7 -14 -15 -14 -9 0 -18 -7 -21 -15 -5 -13 -9
-13 -21 -3 -13 10 -19 8 -33 -10 -10 -12 -23 -22 -28 -22 -6 0 -12 -3 -14 -7
-1 -5 -21 -17 -43 -28 -33 -17 -41 -26 -43 -53 -3 -32 -4 -33 -21 -18 -16 15
-19 15 -31 1 -11 -13 -15 -13 -22 -3 -7 10 -13 8 -25 -9 -8 -13 -24 -23 -34
-23 -11 0 -19 -5 -19 -11 0 -6 -6 -9 -14 -6 -8 3 -20 -1 -26 -9 -16 -18 -40
-18 -40 0 0 18 25 38 43 34 8 -2 26 8 40 22 39 39 55 50 71 50 8 0 21 9 29 21
16 22 78 59 100 59 8 0 28 14 45 30 18 17 36 30 42 30 6 0 29 14 52 30 22 17
45 30 50 30 6 0 21 9 35 20 14 11 32 20 40 20 8 0 35 15 61 32 74 52 243 139
274 142 3 1 10 4 14 9 11 11 44 9 44 -3z m15448 -2817 c7 -11 25 -17 56 -18
42 -2 50 3 48 26 -1 3 6 6 13 6 11 0 13 -9 8 -40 -6 -39 -5 -40 21 -35 18 4
33 -2 51 -18 13 -12 27 -19 29 -15 3 4 19 6 37 3 21 -3 30 -1 25 6 -3 6 -2 13
3 16 10 7 8 -29 -5 -58 -5 -13 -4 -17 4 -12 13 8 27 -36 18 -59 -3 -8 0 -15 7
-15 8 0 8 -3 -2 -9 -9 -6 -10 -11 -2 -15 6 -4 9 -11 6 -16 -3 -5 -1 -11 5 -15
5 -3 10 -1 10 4 0 6 5 11 11 11 5 0 7 -5 3 -12 -5 -8 -2 -9 9 -5 10 3 17 2 17
-3 0 -6 -6 -10 -14 -10 -8 0 -16 -6 -19 -12 -3 -10 -8 -10 -21 1 -14 12 -16
12 -10 -3 4 -9 3 -16 -2 -15 -19 3 -44 -1 -44 -8 0 -5 16 -8 35 -8 19 0 35 3
35 8 0 4 3 7 8 7 4 0 7 -13 7 -30 0 -16 -4 -30 -8 -30 -5 0 -5 -5 -1 -12 5 -8
2 -9 -9 -5 -10 3 -17 2 -17 -3 0 -6 7 -10 16 -10 8 0 12 -5 9 -10 -4 -6 -11
-8 -16 -5 -5 4 -9 -4 -9 -15 0 -16 -4 -20 -16 -16 -14 5 -15 4 -4 -9 10 -13 9
-15 -9 -15 -13 0 -19 -4 -16 -11 4 -5 12 -8 18 -6 16 5 44 -23 49 -48 1 -11
-3 -20 -9 -20 -7 0 -20 -10 -28 -22 -9 -13 -23 -23 -32 -23 -10 0 -13 -6 -9
-16 4 -11 -1 -18 -14 -21 -11 -3 -20 -10 -20 -15 0 -6 7 -8 15 -4 11 4 14 -1
13 -19 -3 -29 -2 -29 -28 -13 -16 11 -22 9 -34 -7 -15 -19 -15 -19 -16 12 0
17 5 35 11 38 22 14 30 56 14 78 -15 21 -16 21 -13 -18 2 -28 -1 -39 -9 -37
-7 1 -13 -5 -13 -13 0 -8 -9 -15 -20 -15 -21 0 -28 16 -9 22 14 5 0 38 -17 38
-11 0 -13 -7 -8 -26 5 -20 3 -25 -7 -22 -8 3 -13 15 -11 28 2 18 -2 21 -19 17
-16 -4 -19 -2 -15 10 5 12 1 14 -19 11 -19 -4 -29 0 -36 14 -9 17 -8 19 10 13
15 -4 21 -2 21 9 0 8 -10 17 -22 19 -20 4 -19 4 5 6 17 0 27 7 27 16 0 8 -4
15 -10 15 -5 0 -10 -5 -10 -11 0 -5 -4 -8 -8 -5 -13 8 -32 -9 -37 -34 -7 -35
-15 -37 -15 -2 0 18 7 35 16 40 11 6 13 11 5 16 -6 4 -11 2 -11 -4 0 -6 -5 -8
-12 -4 -7 4 -8 3 -4 -4 4 -7 3 -12 -2 -12 -5 0 -9 13 -8 29 1 18 5 27 14 24 8
-4 10 0 6 11 -7 19 -25 21 -42 4 -19 -19 -15 17 4 47 13 20 14 28 4 40 -7 8
-16 12 -21 9 -5 -3 -9 0 -9 7 0 7 10 9 25 7 13 -3 22 -1 19 3 -9 15 -54 10
-54 -6 0 -8 -7 -15 -15 -15 -9 0 -12 6 -8 17 5 12 3 14 -8 9 -8 -4 -6 -1 4 7
21 18 23 57 2 57 -8 0 -15 7 -15 15 0 8 -9 15 -19 15 -23 0 -35 15 -25 31 4 8
9 7 15 -2 5 -9 10 -5 14 13 5 17 12 25 21 21 8 -3 14 1 14 10 0 9 9 19 20 22
13 4 20 15 20 31 0 14 6 24 14 24 23 0 26 14 12 42 -12 24 -12 27 8 36 31 15
44 14 54 -5z m-2628 -8498 c0 -14 -4 -25 -10 -25 -5 0 -10 -5 -10 -11 0 -6
-11 -20 -25 -31 -14 -11 -25 -25 -25 -33 0 -7 -12 -16 -27 -20 -16 -3 -35 -13
-43 -20 -8 -7 -32 -18 -52 -23 -38 -10 -44 -5 -39 30 0 4 2 20 3 37 1 17 4 28
6 26 3 -2 14 1 26 7 11 7 25 11 29 10 4 -1 27 7 52 18 24 11 49 20 54 20 6 0
16 9 23 20 18 28 38 25 38 -5z m55 -435 c4 -52 8 -115 9 -140 1 -25 10 -62 19
-84 9 -21 17 -47 17 -58 0 -18 27 -76 41 -88 8 -7 47 -114 65 -180 8 -30 22
-68 30 -84 7 -16 14 -37 14 -46 0 -10 7 -23 15 -30 8 -7 15 -19 15 -26 0 -8 5
-14 10 -14 6 0 10 -6 10 -14 0 -7 10 -25 21 -40 12 -15 30 -51 41 -79 18 -46
26 -76 53 -202 7 -32 37 -115 65 -180 46 -105 54 -150 42 -230 -7 -56 -16 -82
-31 -96 -18 -17 -19 -23 -10 -42 15 -27 28 -37 54 -37 26 -1 69 -37 88 -75 15
-31 13 -135 -4 -135 -5 0 -6 -6 -3 -14 3 -7 -6 -27 -20 -44 -15 -16 -26 -38
-26 -48 0 -11 -16 -32 -36 -47 -32 -26 -35 -33 -33 -73 2 -24 0 -46 -4 -50
-11 -11 -8 -54 4 -54 6 0 8 -9 4 -22 -12 -39 -11 -43 18 -41 29 2 34 -6 15
-25 -7 -7 -8 -13 -3 -13 32 -4 41 -3 46 5 11 14 42 -2 36 -18 -4 -9 1 -15 11
-15 24 0 50 -6 58 -14 4 -4 -1 -7 -11 -7 -15 0 -16 -3 -7 -12 20 -20 15 -41
-8 -35 -11 3 -20 0 -21 -6 0 -8 -2 -8 -6 1 -6 16 -46 16 -40 0 2 -7 10 -12 16
-10 6 1 11 -2 11 -8 0 -5 -6 -10 -13 -10 -7 0 -22 -24 -32 -53 -24 -64 -26
-75 -15 -82 5 -3 7 -12 4 -19 -3 -8 -1 -17 5 -21 14 -8 14 -45 1 -45 -16 0
-12 -40 4 -46 8 -3 12 -12 9 -20 -3 -8 -1 -14 5 -14 8 0 15 -19 28 -83 2 -10
-3 -20 -12 -24 -13 -5 -12 -9 7 -29 28 -30 15 -47 -32 -42 -26 2 -33 7 -31 21
2 10 -11 34 -27 55 -17 20 -31 44 -31 54 0 10 -9 34 -21 54 -13 24 -18 46 -14
63 6 29 -28 77 -46 65 -5 -3 -9 -2 -8 3 1 4 1 10 -1 13 -9 24 -8 50 2 47 14
-2 22 27 14 49 -8 21 -48 -5 -41 -27 3 -9 -2 -22 -12 -30 -15 -12 -16 -12 -10
4 5 12 1 17 -13 17 -11 0 -20 4 -20 9 0 5 -15 29 -33 53 -55 71 -83 131 -96
203 -5 28 -13 58 -16 68 -4 10 -3 17 4 17 8 0 9 5 1 19 -5 11 -7 27 -4 36 4 9
-1 24 -10 34 -9 10 -14 25 -10 35 4 9 1 16 -6 16 -8 0 -11 10 -7 29 4 18 -1
41 -12 62 -10 19 -22 58 -26 87 -4 28 -10 54 -15 57 -4 3 -11 30 -15 61 -4 32
-11 64 -15 73 -9 16 -42 200 -46 254 -1 15 -3 29 -4 32 -1 3 -4 17 -5 33 -3
25 -19 95 -45 187 -11 43 -12 47 -34 140 -8 33 -19 77 -24 97 -6 22 -7 83 -4
140 15 231 0 435 -43 608 -17 71 -26 190 -14 190 5 0 8 5 7 12 -2 7 3 13 10
14 6 1 17 2 22 3 6 0 10 7 10 14 0 7 30 29 68 49 67 35 67 35 79 14 6 -12 14
-64 18 -116z m3424 -126 c3 -3 -1 -10 -7 -16 -7 -7 -12 -23 -12 -37 -1 -33
-31 -55 -98 -70 -93 -23 -107 3 -39 70 58 55 127 79 156 53z m-3673 -60 c18
-146 -23 -419 -76 -506 -11 -18 -20 -41 -20 -51 0 -30 -79 -192 -100 -205 -17
-10 -19 -7 -29 39 -13 60 -14 129 -2 129 5 0 11 12 14 28 3 15 11 41 18 57 7
17 13 32 13 35 1 3 12 26 25 52 12 27 24 54 25 60 4 21 28 101 36 123 4 11 13
39 20 62 7 23 19 44 26 47 16 6 19 36 4 36 -13 0 -13 87 1 95 5 4 8 12 6 18
-4 12 13 36 25 37 4 0 10 -25 14 -56z m4101 -104 c-3 -13 2 -17 19 -17 15 0
21 4 17 11 -3 6 3 3 14 -6 11 -10 28 -18 39 -19 10 0 14 -3 7 -5 -17 -7 -4
-34 13 -27 7 3 17 -2 20 -11 3 -9 11 -13 18 -9 6 4 4 -2 -4 -12 -14 -17 -13
-18 4 -12 16 7 17 5 6 -9 -12 -13 -11 -17 1 -25 13 -8 35 -12 42 -6 10 6 35
-26 30 -39 -3 -8 3 -17 13 -21 26 -9 40 -25 48 -51 4 -12 12 -20 17 -17 5 4 9
2 9 -3 0 -6 -7 -12 -15 -16 -8 -3 -15 -10 -15 -15 0 -6 6 -8 13 -5 7 2 23 -7
35 -21 17 -20 19 -25 6 -25 -14 0 -14 -1 0 -16 9 -8 21 -12 28 -8 7 4 4 -2 -6
-14 -20 -23 -46 -29 -46 -11 0 14 -25 39 -40 39 -6 0 -13 7 -17 15 -3 9 -17
22 -32 29 -25 13 -115 96 -116 106 0 3 -12 21 -28 41 -15 20 -27 41 -27 47 0
7 -5 12 -12 12 -6 0 -9 3 -5 6 3 3 -5 16 -18 28 -13 11 -26 28 -27 36 -2 8
-10 20 -18 27 -13 10 -13 12 3 18 14 6 15 10 6 21 -10 12 -9 13 5 8 11 -4 16
-14 13 -24z m-5082 -625 c1 -33 -2 -68 -7 -78 -6 -12 -5 -36 2 -65 7 -26 16
-83 20 -127 4 -44 13 -116 20 -160 6 -44 13 -105 15 -135 3 -30 7 -73 11 -95
l5 -40 -25 30 c-14 17 -41 53 -60 80 -19 28 -46 61 -60 74 -14 14 -26 30 -26
36 0 18 -40 65 -55 65 -13 0 -21 -13 -106 -182 -27 -54 -53 -98 -58 -98 -5 0
-16 12 -26 26 -14 22 -15 32 -4 77 7 29 18 59 24 67 7 8 24 41 38 73 14 31 30
57 35 57 4 0 14 22 22 49 26 96 66 116 95 48 8 -19 20 -39 28 -45 8 -7 27 -32
42 -57 25 -38 52 -62 60 -53 12 13 11 115 -2 223 -8 72 -14 144 -12 160 1 17
1 54 1 83 -1 35 2 52 9 50 6 -2 12 -31 14 -63z m-127 -752 c6 -21 14 -56 18
-78 4 -22 13 -53 20 -70 6 -16 19 -61 28 -100 23 -98 32 -130 55 -210 11 -38
25 -90 30 -115 20 -89 50 -216 59 -245 10 -35 6 -55 -16 -72 -23 -19 -35 -16
-29 7 3 11 1 23 -4 26 -15 9 -47 78 -42 92 3 7 1 18 -5 25 -5 7 -15 30 -22 52
-7 22 -18 47 -24 55 -27 36 -36 63 -41 120 -5 67 -14 89 -56 138 -16 18 -31
45 -34 60 -4 15 -10 35 -16 44 -5 10 -9 27 -9 37 0 11 -6 32 -12 47 -10 21
-10 28 -1 31 7 3 10 10 7 17 -6 15 34 96 47 96 5 0 9 18 9 40 0 52 23 53 38 3z"/>
<path d="M1748 26917 c-42 -11 -84 -51 -99 -95 -9 -26 -8 -48 1 -92 7 -32 9
-63 5 -69 -3 -6 -1 -37 5 -68 13 -62 75 -157 97 -149 7 3 13 -1 13 -8 0 -13
41 -36 65 -36 8 0 15 -5 15 -11 0 -8 4 -9 13 0 16 13 28 5 20 -15 -7 -18 17
-17 41 1 11 8 27 15 35 15 14 0 14 -1 1 -10 -13 -8 -12 -10 2 -10 10 0 23 9
30 19 10 16 15 17 26 8 11 -9 17 -7 28 8 8 10 14 25 14 32 0 8 8 26 18 40 9
15 11 24 5 20 -15 -10 -16 -4 -2 48 19 74 4 165 -28 165 -8 0 -11 5 -7 11 4 8
0 8 -15 0 -12 -7 -20 -8 -19 -4 1 4 -3 25 -9 45 -8 28 -8 48 2 80 8 30 9 50 2
65 -9 20 -16 21 -117 20 -60 -1 -123 -6 -142 -10z"/>
<path d="M12508 26458 c7 -7 12 -23 12 -36 0 -21 -2 -22 -15 -12 -13 10 -15 9
-15 -9 0 -12 -6 -21 -15 -21 -8 0 -15 -4 -15 -10 0 -5 7 -10 16 -10 8 0 12 -5
8 -11 -3 -6 0 -15 7 -20 11 -8 10 -13 -8 -28 -26 -22 -30 -33 -9 -25 11 4 14
-1 12 -20 -4 -33 8 -50 36 -52 13 -2 33 -6 46 -9 14 -5 22 -3 22 4 0 6 5 11
11 11 5 0 7 -4 4 -10 -3 -5 1 -10 9 -10 9 0 16 -9 16 -21 0 -12 4 -17 11 -14
7 5 8 52 4 143 -3 76 -6 145 -6 155 0 10 -8 17 -20 17 -10 0 -19 -7 -19 -15 0
-8 -4 -15 -10 -15 -5 0 -10 8 -10 18 0 11 -3 13 -8 5 -5 -8 -13 -9 -22 -3 -8
6 -24 10 -34 10 -16 0 -17 -3 -8 -12z"/>
<path d="M12701 25794 c0 -6 -16 -10 -36 -8 -34 2 -47 -9 -22 -20 6 -3 -1 -3
-16 -1 -22 3 -27 1 -23 -11 4 -9 -1 -14 -15 -14 -11 0 -24 -10 -30 -22 -8 -19
-9 -19 -5 -3 2 11 7 29 11 40 5 16 5 17 -4 5 -6 -8 -11 -11 -11 -6 0 5 -8 -1
-19 -12 -24 -28 -34 -28 -25 0 6 20 5 21 -9 6 -9 -8 -19 -29 -22 -44 -5 -25
-4 -27 7 -14 16 19 38 24 38 9 0 -16 -41 -50 -51 -43 -5 3 -9 0 -9 -5 0 -6 7
-11 15 -11 13 0 14 -4 5 -20 -8 -16 -8 -20 3 -20 8 0 25 -14 38 -31 21 -27 24
-29 30 -12 6 15 8 15 8 2 1 -9 8 -20 17 -23 8 -3 13 -9 10 -14 -2 -4 0 -14 5
-22 7 -12 11 -12 17 -2 7 10 11 10 22 -3 9 -11 9 -15 1 -15 -8 0 -8 -4 1 -14
7 -7 19 -13 27 -12 9 1 16 -5 17 -11 1 -7 2 -17 3 -23 0 -5 7 -10 14 -10 7 0
18 -9 25 -20 37 -60 129 14 135 110 1 19 6 41 10 48 5 8 -1 24 -17 43 -14 17
-26 34 -26 39 0 5 -10 19 -23 32 -13 13 -26 31 -30 41 -3 9 -13 17 -22 17 -8
0 -15 9 -15 20 0 11 -4 20 -9 20 -5 0 -12 10 -14 23 -2 12 -5 17 -6 11z"/>
<path d="M13265 19235 c-3 -8 -7 -22 -10 -30 -2 -8 0 -15 5 -15 6 0 6 -10 0
-26 -6 -14 -10 -41 -10 -60 0 -19 -4 -34 -9 -34 -5 0 -8 -16 -8 -35 1 -19 5
-35 9 -35 5 0 7 -10 6 -22 -5 -39 16 -33 32 8 8 21 21 44 29 50 8 7 11 16 6
24 -5 7 -9 30 -10 49 -4 136 -5 141 -20 141 -9 0 -18 -7 -20 -15z"/>
<path d="M12422 16800 c3 -21 -1 -35 -14 -47 -10 -9 -18 -21 -18 -27 0 -18 59
-78 70 -71 6 3 14 -5 20 -19 15 -41 31 -32 24 14 -4 25 -3 40 4 40 6 0 12 -6
15 -12 3 -10 9 -10 27 0 12 8 19 9 16 4 -6 -10 82 -28 91 -18 13 13 -8 56 -27
56 -11 0 -20 -4 -20 -10 0 -14 -42 -12 -60 3 -8 7 -16 21 -18 32 -4 25 -38 55
-63 55 -10 0 -19 4 -19 9 0 5 -7 12 -16 15 -13 5 -15 1 -12 -24z"/>
</g>
</svg>
