<?xml version="1.0" standalone="no"?>
<!DOCTYPE svg PUBLIC "-//W3C//DTD SVG 20010904//EN"
 "http://www.w3.org/TR/2001/REC-SVG-20010904/DTD/svg10.dtd">
<svg version="1.0" xmlns="http://www.w3.org/2000/svg"
 width="3264.000000pt" height="2448.000000pt" viewBox="0 0 3264.000000 2448.000000"
 preserveAspectRatio="xMidYMid meet">
<metadata>
Created by potrace 1.15, written by Peter Selinger 2001-2017
</metadata>
<g transform="translate(0.000000,2448.000000) scale(0.100000,-0.100000)"
fill="#000000" stroke="none">
<path d="M14598 20566 c-24 -23 -54 -58 -67 -75 -21 -28 -28 -32 -55 -27 -17
4 -32 10 -34 15 -2 5 -25 7 -53 5 -36 -2 -60 2 -87 16 l-37 20 -3 -20 c-4 -23
-21 -26 -47 -6 -18 13 -43 11 -55 -3 -8 -11 -60 -31 -77 -31 -9 0 -26 11 -39
26 -17 18 -24 21 -24 10 0 -9 -6 -16 -14 -16 -15 0 -29 27 -21 40 3 4 -1 20
-9 34 -13 25 -13 24 -12 -26 1 -33 -3 -53 -11 -55 -7 -3 -13 2 -13 11 0 18
-16 21 -25 5 -4 -6 -19 -7 -37 -4 -24 6 -30 3 -35 -13 -7 -28 -32 -36 -53 -17
-17 15 -96 16 -132 0 -11 -4 -24 -1 -35 10 -11 12 -18 14 -21 6 -6 -17 -43
-13 -57 5 -10 14 -14 14 -26 3 -24 -23 -66 -42 -78 -34 -7 4 -18 2 -26 -5 -8
-6 -61 -13 -124 -15 -61 -2 -116 -7 -123 -12 -7 -4 -47 -13 -88 -19 -73 -11
-76 -10 -101 13 -27 24 -39 22 -39 -9 0 -10 -4 -18 -10 -18 -5 0 -10 5 -10 10
0 6 -7 10 -15 10 -8 0 -15 -5 -15 -11 0 -5 -4 -7 -10 -4 -5 3 -10 3 -10 -2 0
-13 -50 -32 -66 -26 -8 3 -21 -1 -30 -8 -11 -9 -50 -14 -114 -15 -53 0 -102
-4 -108 -8 -6 -3 -29 3 -52 15 -35 18 -44 20 -70 9 -16 -7 -32 -21 -35 -32 -4
-10 -28 -39 -53 -63 -41 -40 -51 -44 -79 -39 -22 4 -33 2 -33 -6 0 -6 -8 -9
-18 -6 -12 4 -27 -3 -42 -19 -18 -19 -20 -25 -8 -25 22 0 49 -33 39 -49 -7
-11 -11 -10 -19 6 -10 17 -17 18 -109 10 -54 -4 -195 -9 -313 -10 l-215 -2
-43 29 c-41 28 -44 28 -83 16 -67 -22 -69 -26 -55 -100 l12 -65 14 49 c11 39
15 45 21 30 11 -27 11 -166 0 -183 -10 -16 -31 -6 -31 15 0 8 -4 14 -9 14 -21
0 -41 -13 -41 -26 0 -8 -9 -14 -19 -14 -11 0 -23 -4 -26 -10 -3 -5 -13 -10
-22 -10 -9 0 -26 -9 -37 -19 -13 -12 -42 -21 -76 -24 -72 -7 -110 -17 -110
-28 0 -16 -20 -10 -54 16 -44 33 -80 37 -84 8 -3 -19 -7 -20 -35 -12 -34 10
-52 6 -107 -19 -24 -11 -57 -15 -102 -13 -57 2 -68 0 -68 -14 0 -12 -4 -14
-19 -5 -29 15 -31 13 -24 -20 5 -25 2 -30 -15 -30 -12 0 -24 -11 -32 -29 -6
-16 -22 -39 -35 -51 l-23 -21 -23 24 c-23 24 -129 54 -129 36 0 -4 -21 -11
-47 -14 -27 -4 -61 -13 -78 -20 -16 -8 -33 -11 -38 -8 -5 3 -6 -4 -2 -16 5
-15 2 -21 -9 -21 -9 0 -16 -4 -16 -10 0 -5 -7 -10 -15 -10 -8 0 -15 -4 -15 -9
0 -5 -14 -3 -30 6 -20 10 -35 12 -43 5 -7 -5 -29 -12 -49 -16 -22 -4 -38 -13
-38 -20 0 -13 -49 -26 -103 -26 -16 0 -35 -7 -44 -15 -10 -10 -23 -13 -37 -9
-25 8 -24 8 -96 -8 -30 -7 -63 -19 -72 -27 -11 -10 -34 -14 -62 -12 -24 1 -47
-2 -51 -8 -4 -7 7 -11 31 -11 35 0 37 -1 18 -15 -13 -10 -14 -14 -5 -15 18 0
-6 -30 -25 -30 -7 0 -20 -7 -29 -16 -14 -15 -20 -15 -42 -3 -22 12 -27 11 -38
-4 -8 -11 -19 -15 -30 -11 -10 4 -21 1 -26 -7 -6 -11 -11 -11 -21 -1 -16 16
-55 15 -65 -2 -10 -17 -43 -24 -60 -13 -9 6 -13 2 -13 -12 0 -15 -9 -21 -38
-26 -51 -8 -77 -25 -39 -25 16 0 27 -5 27 -14 0 -12 -9 -11 -51 4 -62 23 -82
17 -77 -21 3 -16 0 -30 -6 -33 -6 -2 -3 -10 8 -18 18 -14 17 -15 -13 -28 -18
-7 -37 -22 -43 -33 -9 -18 -12 -19 -22 -6 -10 14 -56 33 -56 24 0 -2 7 -11 16
-20 9 -8 13 -22 10 -31 -5 -14 -8 -14 -28 0 -25 18 -53 21 -43 6 10 -17 -17
-11 -38 7 -18 17 -20 17 -39 -7 -18 -22 -28 -24 -91 -25 -79 0 -102 -12 -94
-48 8 -33 -43 -70 -102 -73 -25 -1 -52 -4 -60 -6 -8 -1 -21 9 -28 25 -14 27
-37 35 -48 17 -3 -5 -2 -10 3 -10 5 0 12 -9 15 -20 4 -17 2 -20 -14 -15 -10 4
-34 1 -53 -6 -26 -9 -38 -10 -48 -1 -11 8 -20 8 -39 -2 -15 -7 -33 -10 -44 -5
-11 4 -29 8 -40 8 -19 0 -19 0 -2 -13 27 -21 21 -26 -33 -26 -29 0 -50 -5 -50
-11 0 -7 -16 -8 -45 -3 -30 4 -45 3 -45 -5 0 -6 -17 -11 -38 -11 -21 0 -41 -3
-45 -6 -12 -12 16 -41 35 -36 24 6 24 -20 0 -41 -11 -10 -35 -17 -60 -17 -33
0 -40 -3 -36 -15 5 -12 0 -14 -23 -9 -23 4 -35 0 -53 -19 -20 -21 -31 -24 -69
-21 -27 3 -51 11 -58 21 -11 14 -14 13 -24 -10 -12 -27 -46 -41 -73 -31 -11 4
-16 1 -16 -10 0 -10 -8 -16 -21 -16 -18 0 -19 -2 -9 -15 10 -12 10 -18 0 -30
-11 -14 -15 -14 -29 0 -15 13 -20 13 -38 0 -18 -13 -22 -13 -33 0 -16 19 -39
19 -46 0 -4 -8 -15 -15 -25 -15 -11 0 -22 -7 -25 -15 -8 -19 -43 -19 -67 0
-11 7 -25 11 -33 8 -8 -3 -24 1 -37 9 -12 8 -37 18 -56 21 -32 7 -33 6 -19
-10 9 -10 18 -27 20 -38 2 -16 -2 -19 -22 -16 -13 1 -31 12 -38 22 -8 12 -25
19 -44 19 -28 0 -30 -2 -26 -31 4 -25 1 -33 -14 -37 -13 -3 -17 -10 -13 -21
12 -30 10 -36 -11 -39 -12 -2 -26 -14 -32 -27 -14 -30 -42 -39 -86 -27 -28 8
-34 7 -29 -4 3 -8 0 -14 -6 -14 -6 0 -8 -6 -5 -14 4 -9 -6 -16 -33 -21 -77
-15 -94 -13 -106 12 -12 27 -20 29 -36 9 -9 -10 -9 -16 -1 -21 6 -4 9 -14 6
-22 -4 -11 -2 -13 9 -9 26 9 17 -8 -15 -29 -16 -11 -30 -23 -30 -27 0 -13 -31
-9 -60 9 -35 20 -45 52 -22 70 14 10 15 14 3 22 -7 5 -11 14 -7 20 9 14 -23
63 -36 55 -5 -3 -8 -18 -6 -34 1 -15 -4 -35 -12 -45 -10 -13 -11 -18 -2 -24 7
-4 15 -20 18 -35 4 -25 2 -27 -17 -21 -18 6 -21 4 -15 -10 10 -27 -22 -46 -52
-32 -20 9 -27 8 -38 -7 -10 -14 -21 -17 -44 -13 -24 5 -30 3 -30 -11 0 -10 -5
-23 -12 -30 -7 -7 -8 -12 -2 -12 6 0 10 -16 10 -36 -2 -41 -33 -74 -71 -74
-13 0 -25 -6 -28 -14 -7 -18 -82 -56 -112 -56 -13 0 -26 -4 -29 -8 -3 -5 -37
-8 -75 -8 -62 1 -70 -1 -65 -16 5 -18 -30 -48 -57 -48 -9 0 -25 -11 -35 -25
-10 -14 -22 -25 -26 -25 -4 0 -27 -14 -52 -30 -39 -27 -51 -30 -95 -26 -56 5
-66 -4 -25 -23 21 -9 24 -14 15 -25 -7 -8 -20 -12 -30 -9 -11 3 -21 -2 -24
-11 -4 -9 -15 -16 -26 -16 -11 0 -24 -6 -28 -13 -4 -7 -20 -20 -35 -30 -20
-12 -28 -26 -28 -46 0 -16 -6 -31 -12 -34 -17 -5 -48 3 -48 13 0 5 -10 6 -23
3 -27 -7 -56 -41 -57 -66 0 -14 -6 -18 -27 -15 -21 2 -28 -2 -31 -17 -6 -31
-21 -42 -33 -25 -7 11 -8 7 -3 -12 4 -18 2 -28 -5 -28 -6 0 -11 -7 -11 -15 0
-24 -17 -18 -40 15 -21 29 -50 41 -50 20 0 -5 -7 -10 -16 -10 -11 0 -15 -6
-11 -20 4 -16 1 -20 -16 -17 -12 1 -26 5 -32 9 -5 3 -26 9 -45 12 l-35 7 25
-20 25 -21 -27 0 c-16 0 -28 -6 -28 -13 0 -6 -15 -18 -32 -26 -18 -8 -43 -23
-55 -34 -22 -19 -24 -20 -42 -3 -19 17 -20 17 -27 -20 -5 -25 -3 -39 5 -42 6
-2 11 -10 11 -18 0 -17 -73 -94 -89 -94 -6 0 -11 -4 -11 -9 0 -5 -12 -12 -27
-16 -21 -5 -24 -8 -12 -16 10 -6 7 -9 -13 -9 -17 0 -33 -8 -40 -20 -7 -11 -17
-20 -21 -20 -14 0 -67 -61 -67 -77 0 -13 -3 -13 -15 -3 -12 10 -17 7 -26 -14
-7 -15 -23 -29 -36 -32 -13 -4 -23 -12 -23 -18 0 -17 -61 -60 -83 -59 -11 1
-22 -8 -27 -23 -6 -14 -17 -24 -30 -24 -11 0 -20 -5 -20 -11 0 -5 5 -7 11 -3
7 4 10 -1 7 -12 -2 -11 -9 -20 -16 -20 -6 -1 -18 -2 -26 -3 -20 -2 -77 -63
-72 -78 5 -13 -32 -45 -44 -38 -4 3 -19 -7 -33 -21 -21 -21 -29 -24 -46 -15
-16 9 -22 8 -31 -8 -5 -11 -8 -26 -5 -33 2 -7 -4 -24 -15 -37 -15 -17 -26 -22
-45 -17 -20 5 -23 3 -18 -11 5 -13 3 -15 -12 -9 -11 4 -22 2 -27 -6 -6 -11
-10 -10 -17 0 -7 11 -9 11 -14 -1 -3 -8 -1 -19 5 -25 16 -16 -6 -39 -66 -66
-28 -13 -59 -26 -69 -29 -9 -4 -22 -18 -29 -32 -11 -26 -32 -33 -43 -15 -13
21 -35 10 -34 -17 3 -52 1 -57 -17 -42 -15 12 -16 11 -10 -9 6 -18 4 -22 -13
-22 -12 0 -21 -4 -21 -10 0 -5 -7 -10 -15 -10 -9 0 -20 -12 -25 -26 -6 -14
-14 -22 -20 -19 -5 3 -10 -1 -10 -9 0 -10 -9 -16 -24 -16 -14 0 -28 -4 -31
-10 -10 -16 -23 -12 -28 8 -2 11 -7 5 -13 -18 -6 -19 -17 -35 -25 -36 -40 -3
-53 -6 -41 -11 24 -10 11 -23 -47 -50 -42 -19 -57 -31 -53 -42 4 -11 -2 -13
-32 -8 -34 5 -36 4 -30 -15 7 -24 -9 -37 -46 -39 -14 0 -20 -3 -13 -5 7 -3 1
-15 -16 -32 -15 -15 -31 -35 -34 -45 -4 -10 -11 -15 -17 -12 -6 3 -7 -1 -4 -9
7 -18 -7 -21 -23 -5 -8 8 -15 6 -25 -10 -16 -27 -30 -27 -46 0 -10 15 -16 18
-26 10 -7 -6 -16 -7 -21 -3 -4 4 -6 0 -3 -8 2 -8 15 -16 27 -18 16 -3 21 -9
19 -25 -2 -12 -10 -22 -18 -22 -8 0 -27 -13 -43 -28 -15 -16 -32 -25 -38 -22
-6 4 -13 -2 -16 -14 -3 -12 -9 -21 -13 -21 -5 0 -12 -9 -15 -21 -4 -12 -12
-18 -21 -15 -7 3 -13 0 -11 -6 1 -5 -6 -12 -15 -13 -20 -4 -48 -29 -48 -43 0
-12 -30 -26 -49 -23 -13 2 -13 0 -2 -13 18 -21 -5 -31 -42 -17 -18 7 -28 7
-33 -1 -9 -14 17 -29 38 -22 23 7 23 -8 0 -29 -15 -13 -21 -14 -31 -4 -10 9
-12 9 -9 -3 2 -9 -6 -16 -20 -18 -13 -2 -20 -8 -16 -14 5 -7 1 -9 -9 -5 -11 4
-14 2 -11 -7 3 -7 -2 -16 -11 -20 -9 -3 -14 -10 -11 -15 3 -5 -1 -15 -10 -22
-13 -10 -20 -10 -36 0 -11 7 -23 10 -26 6 -4 -3 0 -10 7 -15 11 -6 8 -9 -10
-12 -16 -2 -23 -9 -21 -20 2 -12 -4 -18 -18 -18 -11 0 -20 -6 -20 -13 0 -7
-10 -19 -21 -27 -12 -8 -27 -20 -33 -26 -6 -6 -16 -9 -22 -7 -6 2 -14 -6 -17
-17 -3 -14 -12 -20 -24 -18 -10 2 -17 -2 -15 -9 1 -7 -5 -13 -13 -13 -8 0 -15
-7 -15 -16 0 -8 -5 -12 -10 -9 -6 3 -13 -1 -16 -9 -3 -9 -13 -16 -21 -16 -9 0
-13 -6 -9 -15 3 -8 1 -15 -5 -15 -6 0 -8 -4 -4 -9 3 -5 0 -13 -7 -17 -7 -4
-10 -4 -6 0 6 7 -37 56 -49 56 -2 0 0 -12 3 -26 5 -19 4 -25 -5 -20 -6 4 -11
1 -11 -8 0 -9 -4 -16 -9 -16 -5 0 -13 -9 -16 -20 -3 -11 -13 -20 -21 -20 -8 0
-12 -4 -9 -10 3 -6 -5 -10 -19 -10 -18 0 -24 -4 -20 -14 7 -17 -32 -59 -47
-51 -5 4 -8 3 -7 -2 4 -11 -71 -81 -94 -89 -10 -3 -18 -9 -18 -14 0 -5 -17
-14 -37 -21 -20 -6 -46 -20 -57 -30 -11 -11 -23 -19 -27 -19 -4 0 -9 -10 -11
-22 -2 -18 -9 -23 -31 -21 -15 1 -27 -2 -27 -7 0 -5 -8 -9 -17 -9 -40 1 -58
-8 -55 -27 3 -16 2 -16 -14 -3 -13 10 -16 10 -10 1 9 -16 -20 -41 -47 -42 -10
0 -22 -11 -27 -25 -5 -14 -17 -25 -25 -25 -9 0 -18 -8 -22 -17 -3 -10 -13 -25
-22 -34 -9 -9 -23 -26 -31 -39 -8 -12 -22 -29 -30 -38 -8 -9 -15 -20 -15 -26
-1 -6 -7 -9 -15 -7 -8 2 -28 6 -44 9 -26 4 -28 3 -24 -21 4 -18 -1 -31 -16
-45 -35 -30 -46 -35 -40 -18 5 12 0 16 -19 16 -33 0 -46 -20 -18 -27 24 -6 28
-23 6 -23 -8 0 -15 -4 -15 -10 0 -5 -6 -7 -14 -4 -8 3 -19 -3 -25 -14 -6 -11
-24 -25 -41 -30 -16 -6 -30 -16 -30 -21 0 -6 -9 -11 -20 -11 -11 0 -20 -4 -20
-8 0 -4 -14 -13 -30 -19 -23 -9 -28 -15 -23 -30 6 -15 4 -16 -9 -5 -14 11 -19
9 -37 -16 -16 -23 -26 -28 -47 -24 -22 4 -26 2 -21 -12 5 -12 1 -16 -16 -16
-17 0 -19 -2 -7 -10 11 -7 8 -11 -15 -20 -17 -7 -41 -14 -55 -16 -14 -3 -30
-12 -37 -20 -6 -9 -17 -13 -23 -9 -13 8 -62 -14 -55 -25 3 -4 -4 -18 -15 -30
-19 -22 -21 -22 -45 -6 -27 18 -31 31 -14 42 8 4 7 9 -2 15 -7 4 -19 3 -26 -2
-8 -7 -18 -7 -32 0 -17 9 -22 8 -31 -9 -9 -17 -8 -21 7 -26 41 -13 123 -57
123 -66 0 -5 -5 -6 -11 -3 -14 9 -49 -24 -49 -45 0 -16 -17 -26 -63 -36 -9 -2
-27 6 -38 17 -24 24 -32 79 -13 79 21 0 26 19 10 36 -9 8 -16 20 -16 25 0 6
-10 9 -23 7 -12 -2 -21 -9 -19 -16 1 -7 -10 -17 -24 -22 -21 -8 -29 -7 -38 6
-11 14 -15 14 -46 -3 -18 -10 -35 -24 -37 -30 -6 -17 36 -26 54 -12 13 11 17
10 27 -4 8 -9 22 -15 34 -12 13 2 19 -1 17 -8 -2 -7 16 -28 40 -47 28 -21 45
-43 44 -55 0 -19 -1 -19 -9 1 -6 15 -19 23 -42 26 -31 3 -34 1 -30 -19 5 -25
-11 -30 -38 -13 -9 6 -17 5 -22 -3 -3 -6 -25 -11 -46 -12 -48 -1 -72 -18 -65
-46 6 -22 28 -21 28 2 0 9 13 15 32 17 33 3 39 -3 25 -24 -15 -24 -91 -38 -99
-19 -10 27 -23 16 -23 -20 0 -33 2 -34 29 -29 21 4 30 2 35 -11 3 -10 4 -20 1
-23 -2 -3 -7 3 -11 12 -8 20 -34 21 -34 1 0 -8 5 -15 11 -15 5 0 8 -4 4 -10
-3 -5 -12 -7 -20 -3 -13 4 -15 -818 -15 -6771 l0 -6776 6409 0 6409 0 7 22 8
23 4 -22 4 -23 3145 0 c2439 0 3144 3 3144 12 0 9 3 9 12 0 9 -9 955 -12 4196
-12 l4184 0 19 23 20 22 -11 -22 -11 -23 2551 0 2550 0 0 5015 c0 4497 -2
5015 -15 5015 -9 0 -18 7 -21 15 -4 8 -15 15 -25 15 -10 0 -28 9 -39 20 -12
12 -26 17 -37 13 -16 -6 -16 -5 -4 10 11 15 11 17 -2 17 -8 0 -20 7 -27 15 -7
8 -16 13 -20 10 -4 -3 -13 2 -20 9 -6 8 -25 18 -41 21 -16 4 -33 13 -37 22 -5
8 -13 14 -18 13 -5 0 -10 8 -12 20 -2 11 -8 20 -14 20 -5 0 -28 16 -51 35 -24
21 -47 33 -57 30 -17 -5 -60 35 -60 56 0 6 -6 9 -13 6 -7 -3 -19 4 -25 14 -7
10 -20 19 -30 19 -11 0 -26 17 -40 45 -19 40 -26 45 -54 45 -40 0 -60 12 -56
31 2 11 -9 14 -46 14 -31 0 -51 5 -53 13 -3 6 -10 12 -17 12 -6 0 -19 9 -29
20 -9 11 -31 23 -47 27 -17 3 -30 9 -30 14 0 5 -20 9 -45 9 -25 0 -45 4 -45
10 0 5 -8 9 -17 8 -10 -1 -32 0 -50 0 -27 2 -32 6 -35 30 -3 25 -6 27 -40 24
-20 -1 -39 2 -43 8 -3 5 -17 10 -29 10 -13 0 -29 7 -36 15 -7 8 -18 15 -26 15
-7 0 -15 8 -18 18 -3 9 -15 22 -25 27 -11 6 -50 26 -88 44 -37 19 -85 53 -106
74 -31 32 -45 40 -77 41 -31 0 -42 6 -55 28 -9 16 -20 28 -26 28 -5 0 -9 9 -9
21 0 11 -4 18 -8 15 -5 -3 -21 8 -37 24 -23 24 -31 27 -52 19 -13 -5 -30 -9
-37 -9 -17 0 -28 37 -12 44 6 3 -9 4 -34 3 -33 -2 -45 2 -46 13 0 8 -2 25 -2
38 -2 16 -8 22 -27 22 -23 0 -50 30 -50 57 0 6 -21 34 -46 61 -33 35 -57 51
-83 56 -20 4 -36 11 -36 16 0 4 -19 26 -41 47 -23 21 -51 49 -63 63 -38 44
-78 80 -85 76 -13 -8 -28 9 -49 54 -23 51 -54 73 -96 68 -20 -2 -32 3 -40 17
-6 11 -12 22 -13 24 -2 2 -9 -2 -18 -9 -12 -10 -18 -10 -30 0 -8 7 -15 17 -15
22 0 16 -29 40 -40 33 -5 -3 -10 0 -10 7 -1 21 -57 71 -71 62 -7 -4 -10 -3 -6
3 4 6 -13 29 -37 51 -24 23 -46 49 -48 59 -2 10 -8 18 -13 18 -19 1 -64 37
-70 55 -3 11 -11 17 -18 15 -7 -3 -48 29 -92 70 -44 41 -99 87 -121 102 -23
14 -49 41 -59 60 -10 18 -22 33 -27 33 -5 0 -5 12 -2 28 5 22 4 25 -7 15 -15
-15 -53 -17 -44 -3 3 6 -3 10 -15 10 -11 0 -23 7 -26 15 -4 8 -13 15 -20 15
-8 0 -17 7 -20 15 -6 14 -41 34 -86 49 -10 3 -18 14 -18 24 0 27 -32 52 -67
52 -26 0 -33 5 -42 31 -7 20 -16 30 -28 28 -27 -3 -73 19 -73 35 0 8 -15 22
-32 31 -44 20 -89 60 -80 70 4 5 -1 5 -10 2 -10 -4 -18 -2 -18 3 0 13 -77 83
-102 92 -10 4 -16 12 -13 18 3 5 0 10 -8 10 -8 0 -20 7 -27 15 -7 8 -20 15
-30 15 -9 0 -23 12 -31 28 -15 30 -75 94 -99 105 -8 4 -28 16 -45 27 -16 11
-37 23 -45 27 -25 12 -60 46 -60 59 0 7 -15 16 -32 19 -43 9 -58 22 -58 50 0
29 -15 41 -62 49 -21 4 -38 11 -38 16 0 6 -6 10 -12 10 -15 0 -78 57 -78 70 0
5 -11 12 -25 16 -16 4 -25 13 -25 25 0 10 -4 19 -10 19 -5 0 -16 15 -24 33
-23 49 -55 81 -84 83 -15 1 -36 2 -48 3 -31 2 -124 83 -124 108 0 7 -7 13 -15
13 -24 0 -81 68 -95 113 -8 23 -18 47 -24 52 -26 24 -34 53 -26 88 9 44 -7
139 -26 150 -8 4 -14 13 -14 20 0 19 -99 117 -118 117 -16 0 -42 41 -42 67 0
14 -11 45 -24 67 -13 23 -27 52 -31 66 -4 14 -18 39 -31 57 -13 17 -24 35 -24
40 0 4 -32 39 -71 78 -39 38 -79 86 -90 107 -29 56 -89 143 -126 183 -7 8 -13
16 -13 19 0 3 -15 23 -34 43 -19 21 -53 59 -77 86 -23 26 -47 47 -55 47 -7 0
-19 7 -28 15 -8 9 -18 14 -21 13 -7 -4 -53 34 -133 110 -50 46 -72 61 -88 57
-13 -3 -28 3 -39 14 -20 23 -15 57 16 117 10 21 19 47 19 57 0 17 -2 18 -16 6
-13 -11 -21 -7 -55 29 -25 26 -52 43 -72 47 -61 10 -132 17 -169 17 -21 0 -38
4 -38 9 0 21 -56 58 -88 59 -27 0 -33 4 -38 28 -10 50 -34 67 -93 70 -32 1
-62 8 -71 17 -10 9 -24 13 -33 9 -12 -4 -14 -1 -10 15 4 15 1 21 -11 21 -9 0
-16 3 -15 8 3 18 -15 52 -27 52 -8 0 -14 6 -14 13 0 8 -9 22 -20 32 -11 10
-20 25 -20 33 0 8 -31 44 -69 81 -37 36 -71 77 -75 91 -3 14 -27 48 -54 77
-26 28 -60 68 -76 87 -24 31 -31 35 -45 24 -14 -12 -14 -11 -3 4 18 22 7 38
-25 38 -14 0 -45 14 -70 30 -24 17 -48 30 -52 30 -5 0 -14 7 -21 15 -7 8 -16
13 -20 10 -4 -2 -16 4 -26 13 -25 23 -88 68 -92 64 -1 -1 -18 5 -38 13 -20 8
-47 15 -60 15 -12 0 -25 4 -29 9 -9 16 -66 41 -92 41 -13 0 -51 9 -84 20 -33
11 -65 17 -71 14 -6 -4 -8 -3 -5 4 4 5 4 18 1 27 -5 13 -14 15 -40 11 -26 -5
-35 -2 -47 14 -8 11 -28 22 -47 24 -18 2 -36 9 -39 15 -4 6 -15 9 -24 5 -10
-3 -23 -2 -30 4 -6 5 -34 12 -62 16 -84 11 -111 27 -106 59 1 4 -5 14 -12 22
-16 15 -37 2 -37 -22 0 -15 -43 -17 -70 -3 -11 6 -46 13 -79 16 -36 4 -62 12
-65 20 -3 8 -11 11 -19 8 -8 -3 -20 2 -27 11 -7 8 -20 15 -30 15 -10 0 -20 9
-23 20 -4 14 -14 20 -35 20 -19 0 -35 8 -44 22 -13 19 -24 22 -72 22 -31 -1
-56 3 -56 8 0 5 -4 7 -9 4 -5 -3 -24 5 -42 19 -43 30 -150 85 -167 85 -7 0
-30 11 -50 25 -20 14 -51 25 -68 25 -19 0 -34 6 -38 15 -3 8 -9 15 -13 14 -35
-6 -60 4 -75 30 -11 20 -26 31 -45 33 -20 2 -32 12 -43 34 -8 16 -22 39 -30
50 -36 48 -102 71 -114 39 -6 -16 -36 -21 -36 -6 0 18 -80 90 -115 102 -19 7
-35 17 -35 22 0 6 -18 29 -40 53 -21 23 -42 55 -46 69 -4 17 -11 24 -21 21
-14 -6 -44 6 -67 26 -28 23 -129 83 -203 119 -46 22 -83 45 -83 50 0 5 -7 9
-16 9 -9 0 -29 9 -45 21 -16 11 -37 19 -47 17 -9 -2 -21 0 -27 4 -52 42 -87
56 -124 53 -33 -3 -43 1 -63 24 -13 15 -31 30 -40 34 -19 7 -78 84 -78 101 0
16 -67 50 -93 48 -12 0 -32 6 -44 14 -20 13 -23 13 -23 -1 0 -20 -16 -19 -32
3 -7 9 -22 18 -33 18 -11 1 -47 7 -80 13 -33 7 -68 12 -77 12 -22 0 -28 11
-34 54 -3 25 1 37 13 44 20 11 17 18 -12 23 -17 3 -19 -2 -17 -33 4 -47 -20
-70 -47 -45 -11 10 -22 13 -25 8 -9 -15 -66 -1 -80 19 -11 16 -15 17 -25 6 -9
-12 -22 -9 -74 18 -95 49 -111 58 -125 78 -9 11 -21 16 -32 12 -11 -3 -30 0
-42 7 -13 7 -26 12 -29 13 -4 0 -29 16 -55 35 -27 19 -52 34 -56 32 -5 -1 -8
4 -8 11 0 9 12 14 31 15 40 1 41 3 21 29 -24 32 -62 21 -62 -18 0 -18 -7 -32
-19 -39 -25 -13 -41 -13 -41 1 0 17 -61 88 -82 94 -10 4 -18 13 -18 22 0 9 -6
13 -13 10 -18 -7 -29 2 -48 38 -10 19 -22 29 -33 27 -10 -2 -25 3 -34 10 -10
8 -35 23 -57 33 -22 11 -49 29 -60 39 -36 35 -145 169 -145 178 0 20 -63 86
-76 81 -8 -3 -20 0 -28 6 -7 6 -15 9 -17 6 -3 -2 -22 0 -42 6 -28 7 -39 17
-48 44 -7 18 -15 34 -18 33 -21 -2 -38 10 -110 82 -76 74 -85 88 -82 116 2 19
-89 113 -103 108 -8 -3 -17 0 -21 6 -5 8 -11 7 -23 -2 -12 -11 -16 -11 -20 0
-3 10 -9 9 -24 -4 -16 -16 -21 -16 -28 -4 -6 8 -10 32 -10 53 0 38 -8 45 -27
26 -16 -16 -26 6 -13 30 15 30 13 31 -32 30 -55 -1 -134 8 -148 16 -6 4 -9 13
-6 21 3 8 0 11 -9 8 -9 -4 -16 3 -21 21 -4 18 -11 24 -22 20 -8 -3 -20 3 -28
12 -11 15 -16 16 -31 5 -40 -27 -64 -32 -104 -22 -22 6 -43 9 -48 6 -4 -3 -17
4 -27 15 -10 11 -28 27 -38 37 -11 9 -33 29 -49 45 -17 15 -35 28 -41 28 -26
3 -32 5 -51 16 -11 6 -54 15 -95 18 -41 4 -82 13 -90 19 -33 24 -61 36 -88 36
-42 0 -51 15 -45 75 3 29 2 70 -1 90 -7 35 -9 37 -24 21 -19 -19 -26 -104 -10
-124 6 -7 9 -14 6 -17 -7 -7 -48 7 -48 17 0 18 -44 47 -71 48 -36 0 -90 24
-111 49 -20 23 -58 27 -87 9 -24 -15 -131 7 -131 26 0 9 -9 12 -25 8 -17 -3
-27 1 -31 12 -3 9 -14 16 -23 16 -9 0 -34 9 -56 20 -22 11 -47 18 -56 15 -9
-3 -22 1 -29 10 -7 8 -17 15 -23 15 -6 0 -21 10 -34 22 -21 19 -28 20 -68 11
-44 -10 -46 -9 -81 24 -29 27 -39 31 -50 22 -11 -9 -18 -9 -26 -1 -7 7 -24 12
-39 12 -15 0 -32 7 -39 15 -7 8 -15 13 -19 11 -3 -2 -22 3 -41 11 -19 9 -55
17 -80 18 -71 3 -149 15 -178 27 -69 27 -147 40 -257 42 -66 2 -142 6 -170 10
-27 3 -74 9 -102 12 -29 3 -53 8 -53 12 0 3 7 25 16 49 12 30 14 56 9 89 -10
71 -27 40 -30 -55 -1 -45 -4 -83 -6 -85 -5 -4 -94 7 -184 23 -33 6 -84 11
-113 11 -37 0 -54 4 -58 15 -4 9 -19 15 -36 15 -20 0 -37 8 -50 26 -23 29 -35
26 -18 -5 7 -14 7 -21 0 -21 -5 0 -10 4 -10 9 0 5 -9 11 -19 14 -15 3 -18 1
-13 -11 4 -12 -8 -8 -43 12 -33 20 -46 24 -42 14 8 -21 -44 -19 -70 3 -23 19
-49 14 -56 -11 -7 -27 -33 -35 -62 -20 -28 15 -55 7 -55 -16 0 -12 -6 -15 -25
-10 -14 4 -45 9 -70 13 -25 3 -48 10 -51 14 -8 13 -42 11 -46 -3 -4 -10 -10
-10 -32 0 -15 6 -40 12 -57 12 -18 0 -32 6 -36 16 -4 11 -13 13 -35 9 -22 -5
-35 -2 -51 13 -26 24 -124 65 -137 57 -5 -3 -7 -12 -3 -20 6 -17 -12 -21 -22
-5 -3 6 -13 10 -22 10 -11 0 -14 -6 -9 -26 6 -22 4 -25 -9 -20 -9 3 -25 1 -37
-5 -15 -8 -22 -7 -32 6 -9 13 -17 14 -38 6 -16 -6 -39 -7 -57 -1 -16 4 -31 7
-33 5 -2 -2 -5 5 -5 17 -1 12 -7 26 -14 32 -9 8 -10 4 -7 -16 6 -32 -12 -38
-33 -12 -12 15 -15 14 -30 -4 -22 -28 -99 -28 -134 0 -21 16 -29 18 -40 8 -12
-10 -16 -9 -21 3 -3 8 -5 21 -3 28 3 25 -1 39 -11 39 -5 0 -7 -7 -4 -15 4 -8
1 -15 -4 -15 -6 0 -13 -8 -15 -17 -2 -10 -3 -5 -1 11 3 22 1 27 -12 22 -12 -4
-14 -1 -9 13 7 22 -33 66 -73 82 -45 18 -71 10 -114 -35z m-2881 -527 c-3 -10
1 -26 7 -35 12 -16 13 -16 20 1 3 10 1 24 -5 31 -19 23 -1 33 56 31 l55 -1 1
-36 c0 -19 2 -63 5 -97 3 -34 1 -63 -3 -66 -4 -3 -32 -2 -60 0 l-53 6 -2 56
c-1 53 -2 54 -5 11 -5 -48 -17 -70 -39 -70 -9 0 -14 12 -14 35 0 19 -4 35 -9
35 -4 0 -6 -12 -3 -26 5 -27 -10 -44 -38 -44 -30 0 -43 19 -51 71 -7 46 -6 56
8 67 23 17 62 15 70 -4 4 -12 8 -13 14 -3 4 7 3 21 -2 31 -8 15 -5 20 13 27
29 11 41 4 35 -20z m1268 -3038 c-5 -16 -2 -18 14 -14 12 3 18 9 15 14 -10 17
2 9 40 -26 21 -19 42 -35 47 -35 5 0 9 -11 9 -25 0 -14 7 -28 15 -31 8 -4 15
-12 15 -20 0 -8 5 -14 10 -14 6 0 10 -8 10 -17 0 -16 2 -16 11 -3 8 11 12 12
16 3 2 -7 4 -15 3 -19 -1 -4 4 -10 11 -15 10 -6 10 -11 -2 -25 -12 -15 -12
-17 1 -12 18 6 40 -58 33 -96 -8 -38 -50 -62 -85 -48 -15 5 -28 7 -28 2 0 -12
28 -32 37 -27 5 3 9 -3 9 -14 0 -12 -4 -15 -10 -9 -6 6 -14 6 -23 -2 -10 -8
-12 -7 -8 4 4 9 -1 18 -9 21 -9 4 -16 13 -16 20 0 8 -10 22 -22 30 -18 13 -20
16 -6 16 9 1 18 -4 20 -11 2 -6 10 -8 17 -4 16 10 -6 39 -25 32 -15 -6 -27 9
-31 39 -2 11 -8 22 -13 23 -6 2 -10 14 -10 27 0 27 -17 42 -47 39 -15 -1 -20
3 -15 14 4 12 1 14 -13 8 -18 -7 -55 22 -55 44 0 6 -8 10 -17 8 -18 -3 -19 1
-9 62 3 14 5 30 5 35 1 6 18 11 38 13 21 1 44 9 52 17 20 20 24 19 16 -4z m52
-768 c3 -7 13 -13 23 -13 11 0 20 -10 24 -26 5 -19 11 -24 24 -19 9 3 14 3 10
0 -4 -4 3 -18 15 -32 28 -31 39 -61 26 -68 -11 -7 -3 -25 12 -25 5 0 9 8 9 18
0 14 2 15 10 2 5 -8 5 -17 1 -20 -13 -8 -10 -63 4 -84 8 -10 11 -25 8 -32 -3
-8 0 -14 6 -14 6 0 11 -6 11 -14 0 -7 6 -19 14 -25 21 -18 60 4 53 29 -3 11 1
24 9 31 8 6 14 9 14 6 0 -3 3 -13 7 -23 4 -12 3 -15 -5 -10 -8 5 -10 2 -6 -8
3 -9 9 -16 13 -16 13 0 12 -99 -1 -114 -11 -11 -14 -11 -24 2 -14 19 -35 7
-27 -15 4 -11 3 -14 -5 -9 -7 4 -12 1 -12 -9 0 -9 4 -14 9 -11 5 3 20 0 32 -7
17 -8 23 -19 21 -36 -2 -13 1 -28 6 -33 8 -8 195 -26 612 -58 3 0 5 -19 5 -42
0 -36 3 -43 22 -46 12 -2 24 -10 27 -17 9 -24 -51 -621 -114 -1145 -12 -91
-27 -221 -35 -290 -17 -137 -69 -565 -86 -700 -6 -47 -17 -139 -24 -205 -35
-304 -42 -345 -57 -345 -6 0 -8 11 -6 25 4 20 1 25 -16 26 -11 0 -29 2 -39 4
-9 2 -15 0 -13 -4 3 -4 -11 -7 -29 -7 -19 1 -35 3 -35 7 0 3 -19 6 -42 8 -23
1 -48 7 -55 13 -9 7 -17 7 -28 -2 -8 -6 -19 -9 -25 -5 -5 3 -10 4 -10 0 0 -3
10 -10 23 -14 19 -8 18 -9 -13 -10 -88 -2 -122 0 -115 8 7 6 -15 31 -27 31 -5
0 -6 -4 -3 -10 9 -15 -21 -12 -37 3 -7 7 -17 15 -23 16 -5 2 -20 7 -32 12 -13
5 -30 6 -40 2 -12 -5 -15 -2 -10 10 7 19 -27 44 -38 27 -3 -5 -1 -10 5 -10 6
0 8 -4 5 -10 -9 -15 -25 -12 -25 5 0 8 -4 15 -10 15 -5 0 -10 -4 -10 -9 0 -6
-12 -3 -27 4 -17 9 -29 11 -31 5 -2 -6 -8 -10 -13 -10 -4 0 -5 7 -2 17 5 11 3
14 -6 8 -8 -4 -17 -2 -22 6 -8 12 -12 11 -23 -4 -13 -16 -15 -17 -23 -3 -8 14
-11 14 -28 2 -17 -12 -21 -12 -32 3 -11 14 -14 14 -23 1 -9 -12 -10 -10 -5 10
5 22 5 23 -8 8 -12 -16 -17 -15 -58 9 -24 15 -66 43 -94 62 -151 105 -347 233
-379 246 -17 7 -78 16 -136 19 -58 4 -145 13 -195 21 -142 22 -154 23 -239 14
-206 -21 -256 -34 -275 -73 -10 -21 -15 -25 -22 -15 -6 10 -10 7 -17 -11 -5
-14 -8 -28 -5 -32 2 -4 -5 -18 -16 -30 -23 -24 -26 -34 -11 -43 15 -9 12 -25
-5 -25 -16 0 -56 -20 -66 -33 -3 -4 -11 4 -19 18 -7 14 -17 25 -22 25 -5 0 -7
-4 -4 -9 3 -5 -1 -11 -9 -15 -13 -5 -19 5 -17 25 2 12 -43 -4 -53 -18 -14 -19
-45 -6 -45 20 0 20 -1 20 -13 3 -13 -18 -15 -18 -39 -2 -16 10 -50 17 -92 18
-36 1 -66 6 -66 10 0 4 -9 8 -19 8 -11 0 -22 4 -26 10 -7 11 -45 -19 -45 -37
0 -7 -4 -13 -10 -13 -5 0 -10 7 -10 15 0 8 -4 15 -10 15 -5 0 -10 -4 -10 -8 0
-4 -9 -8 -20 -8 -11 0 -20 7 -20 16 0 9 -3 11 -8 5 -7 -10 -32 -16 -64 -16
-21 0 -24 -15 -5 -23 6 -4 2 -4 -9 -2 -13 2 -33 -6 -49 -20 -15 -13 -30 -22
-34 -20 -8 4 -67 30 -108 47 -17 7 -30 16 -27 20 2 4 -5 5 -16 2 -11 -3 -31 2
-44 10 -13 9 -33 13 -45 10 -18 -5 -22 -2 -19 13 2 16 -2 18 -27 16 -19 -2
-34 3 -42 14 -11 14 -17 15 -38 6 -15 -7 -25 -8 -25 -2 0 6 -7 10 -16 10 -8 0
-13 4 -10 9 3 5 -5 11 -19 13 -14 3 -25 0 -26 -6 0 -6 -4 -2 -9 9 -7 17 -9 17
-9 3 -1 -15 -8 -17 -45 -12 -41 6 -45 5 -49 -17 -12 -64 -5 71 18 336 14 160
32 425 40 590 8 165 19 374 25 465 5 91 12 230 15 310 14 344 36 671 55 793
13 87 48 248 55 255 6 6 328 -30 885 -98 47 -6 103 -12 125 -15 22 -2 182 -20
355 -40 173 -20 403 -45 510 -55 107 -11 209 -22 225 -25 17 -3 77 -10 135
-15 58 -5 177 -16 265 -25 88 -8 237 -22 330 -30 94 -9 186 -17 206 -19 32 -3
36 -1 32 15 -6 21 -18 25 -28 9 -4 -6 -11 -7 -17 -4 -7 5 -4 12 8 21 11 8 15
17 9 21 -6 4 -17 16 -25 27 -14 18 -13 19 1 8 13 -11 20 -10 37 6 28 24 28 29
-2 24 -25 -5 -40 18 -34 48 2 8 -3 13 -10 11 -9 -2 -11 4 -7 18 3 11 3 20 -2
20 -4 0 -9 10 -9 23 -2 40 -22 121 -39 154 -16 31 -135 162 -135 148 0 -4 -7
-2 -15 5 -8 7 -13 16 -10 20 8 14 66 8 72 -7z m1443 -3243 c0 -5 7 -10 16 -10
34 0 285 -135 388 -208 107 -76 155 -128 216 -238 20 -34 18 -64 -4 -64 -11 0
-37 60 -42 95 -2 21 -16 44 -29 49 -10 3 -12 -2 -9 -20 3 -14 1 -23 -4 -20 -5
3 -12 21 -15 40 -7 44 -91 135 -154 167 -26 13 -51 23 -56 21 -5 -1 -6 2 -2 7
3 6 -11 19 -32 29 -21 11 -63 32 -93 48 -30 16 -87 44 -127 62 -72 32 -98 52
-69 52 9 0 16 -4 16 -10z m-1060 -1539 c0 -5 8 -11 19 -14 25 -6 85 -128 77
-155 -4 -11 2 -48 14 -81 11 -34 20 -86 20 -119 0 -62 -15 -122 -31 -122 -5 0
-19 -16 -30 -35 -25 -42 -52 -59 -80 -50 -25 8 -15 25 16 25 43 0 35 15 -8 16
-55 1 -115 24 -120 46 -3 9 2 26 10 38 18 26 7 43 -11 17 -17 -22 -22 -22 -29
3 -3 11 -1 20 4 20 5 0 9 6 9 13 0 8 10 19 23 26 12 6 14 9 5 7 -10 -3 -18 -1
-18 4 0 17 18 20 33 5 12 -12 16 -12 20 -1 3 7 1 19 -3 27 -5 8 -5 16 2 20 7
4 7 13 -1 27 -6 11 -11 40 -11 63 0 38 -5 51 -10 24 -4 -22 -21 -45 -34 -45
-10 0 -12 -11 -9 -38 3 -29 0 -42 -16 -56 -20 -18 -20 -18 -26 7 -4 14 -4 30
-1 36 4 5 2 13 -4 16 -6 4 -8 21 -4 42 5 28 4 34 -6 28 -10 -6 -11 0 -5 31 11
58 12 98 2 105 -14 10 2 29 18 22 8 -3 15 0 15 5 0 17 30 42 50 42 10 0 25 -7
33 -15 13 -13 16 -13 21 1 5 12 10 13 28 3 13 -7 26 -17 30 -23 4 -6 10 -7 14
-3 4 4 -1 16 -11 27 -10 11 -13 20 -7 20 7 0 12 -4 12 -9z m4244 -1217 c-33
-46 -66 -97 -76 -115 -9 -17 -34 -49 -55 -72 -22 -23 -72 -85 -113 -137 -68
-88 -148 -185 -194 -235 -10 -11 -57 -67 -105 -124 -47 -58 -101 -121 -119
-140 l-33 -36 15 31 c8 17 12 34 9 38 -4 3 -2 6 4 6 9 0 154 170 245 287 26
34 129 153 158 183 21 21 181 227 210 270 14 19 30 41 37 48 7 7 25 34 40 59
15 26 29 41 31 34 2 -7 -22 -51 -54 -97z m-1650 -3647 c-63 -56 -237 -230
-347 -349 -71 -76 -76 -63 -7 17 22 26 67 82 101 126 33 44 65 77 70 73 10 -6
48 34 49 52 0 6 12 20 26 30 14 10 38 29 52 41 15 13 32 23 37 23 6 1 23 12
40 25 56 46 39 14 -21 -38z m5431 -1222 c97 -30 193 -86 275 -163 44 -41 88
-88 97 -105 27 -53 34 -88 20 -107 -11 -16 -17 -9 -50 61 -29 58 -54 93 -99
134 -72 67 -175 137 -238 161 -39 15 -73 34 -59 34 2 0 27 -7 54 -15z m2617
-4268 c46 -30 92 -63 103 -74 11 -10 29 -25 41 -33 34 -24 101 -81 157 -134
46 -43 22 -29 -41 24 -13 11 -30 20 -37 20 -8 0 -33 18 -57 40 -24 22 -47 40
-52 40 -4 0 -24 14 -43 30 -19 17 -39 28 -44 24 -5 -3 -8 0 -7 7 2 6 -3 14
-11 17 -8 2 -11 0 -7 -6 3 -6 -7 -4 -23 4 -16 8 -32 21 -35 29 -3 8 -11 15
-18 15 -9 0 -8 -3 2 -10 21 -14 -3 -13 -35 2 -26 12 -36 34 -11 25 10 -4 13
-1 9 9 -3 7 -9 14 -14 14 -5 0 -9 5 -9 10 0 21 52 0 132 -53z m4238 -52 c30
-7 82 -21 115 -29 58 -15 137 -43 240 -84 28 -11 70 -28 95 -38 49 -19 184
-104 177 -110 -2 -3 -60 22 -128 54 -113 54 -228 101 -319 131 -134 44 -224
71 -235 71 -8 0 -17 5 -20 10 -8 13 9 12 75 -5z"/>
<path d="M10629 15734 c-105 -18 -119 -23 -119 -40 0 -11 -5 -12 -17 -6 -20
11 -41 5 -62 -16 -9 -9 -25 -12 -44 -8 -23 5 -28 3 -23 -9 3 -8 0 -16 -7 -17
-32 -4 -88 -19 -102 -27 -5 -3 -13 -6 -17 -7 -5 -1 -11 -3 -15 -4 -5 -1 -16
-1 -26 -1 -21 3 -24 -5 -32 -86 -5 -57 -4 -63 13 -63 10 0 24 6 31 13 11 10
13 8 8 -10 -4 -19 -2 -21 11 -14 10 5 34 16 54 26 21 9 36 21 33 25 -3 5 4 6
15 3 12 -3 22 1 26 11 3 9 15 16 25 16 10 0 19 5 19 10 0 6 11 10 24 10 15 0
33 11 45 26 15 19 27 25 42 21 11 -3 28 -3 37 0 13 6 13 8 -4 14 -15 6 -12 8
14 8 17 1 32 6 32 11 0 13 33 13 47 -1 8 -8 14 -5 23 11 10 19 19 21 61 18 41
-2 49 0 49 15 0 9 7 17 15 17 22 0 18 17 -6 30 -17 9 -25 8 -42 -7 -18 -16
-20 -16 -14 -1 4 11 0 18 -11 21 -12 3 -11 5 6 6 27 1 30 17 3 17 -11 0 -52
-6 -92 -12z"/>
<path d="M10463 15444 c-4 -10 0 -22 9 -28 13 -10 13 -22 3 -96 -7 -47 -16
-110 -19 -141 -6 -45 -11 -58 -27 -62 -21 -6 -26 -36 -6 -38 53 -5 117 18 117
42 0 16 -5 19 -21 14 -20 -7 -20 -5 -13 67 3 40 12 105 18 143 11 68 13 70 41
70 31 0 46 22 24 36 -8 5 -38 9 -67 9 -40 0 -54 -4 -59 -16z"/>
<path d="M11120 15363 c-30 -11 -112 -99 -138 -148 -17 -34 -26 -67 -26 -103
-1 -48 2 -57 32 -83 39 -35 85 -38 142 -9 46 23 60 45 60 94 0 42 -22 58 -77
53 -30 -2 -38 -6 -38 -22 0 -15 8 -21 31 -23 22 -2 34 -9 37 -23 4 -16 -4 -24
-38 -41 -51 -25 -87 -19 -103 17 -18 38 -15 56 19 124 39 77 108 135 151 126
20 -5 28 -3 28 7 0 31 -38 46 -80 31z"/>
<path d="M12078 15168 c-4 -41 -21 -100 -47 -167 -23 -57 -40 -110 -37 -117
10 -27 27 -13 53 42 16 36 30 54 38 50 8 -3 21 7 30 21 22 33 35 16 35 -44 0
-47 28 -87 55 -77 19 8 20 30 1 37 -7 3 -15 27 -19 59 -3 29 -8 60 -11 68 -3
9 10 33 34 60 22 25 40 53 40 62 0 29 -22 33 -42 7 -57 -74 -104 -129 -110
-129 -3 0 0 21 8 47 23 76 15 143 -17 143 -3 0 -9 -28 -11 -62z"/>
<path d="M11220 15140 c-6 -11 -12 -43 -13 -71 -2 -62 16 -81 57 -60 20 11 28
12 41 1 17 -14 18 -13 34 74 6 32 8 62 5 67 -13 21 -34 6 -49 -36 -10 -24 -27
-52 -38 -62 -20 -18 -20 -17 -13 7 18 64 18 87 2 93 -10 4 -20 -1 -26 -13z"/>
<path d="M13202 15043 c-22 -20 -103 -220 -105 -261 -1 -17 4 -27 15 -30 12
-2 20 11 33 53 13 47 18 55 30 45 22 -18 59 -4 94 35 39 44 43 107 10 149 -24
30 -49 33 -77 9z"/>
<path d="M10597 14773 c-4 -3 -7 -25 -7 -47 0 -60 -17 -161 -41 -240 -16 -55
-18 -71 -8 -77 19 -11 26 -4 44 51 19 58 32 64 37 18 2 -21 8 -33 18 -33 11 0
15 12 15 50 0 36 8 66 29 106 30 57 30 93 0 87 -9 -2 -22 -20 -29 -42 -16 -46
-42 -76 -31 -36 3 14 9 54 13 88 5 49 3 66 -8 73 -17 11 -24 11 -32 2z"/>
<path d="M11336 14612 c-4 -7 -5 -21 -1 -32 11 -34 -5 -90 -26 -90 -21 0 -25
-20 -9 -36 12 -12 3 -44 -11 -44 -5 0 -9 -7 -9 -16 0 -26 43 -12 58 19 9 18
21 27 37 27 19 0 24 -6 27 -32 4 -48 31 -43 40 7 31 165 32 175 3 175 -7 0
-16 -15 -20 -32 -8 -38 -31 -78 -45 -78 -5 0 -7 21 -3 48 4 37 1 52 -14 71
-14 17 -22 21 -27 13z"/>
<path d="M10806 14543 c-3 -4 -24 -6 -46 -5 -32 2 -42 -2 -55 -22 -24 -36 -16
-71 15 -72 45 -2 57 -12 52 -44 -3 -22 0 -30 11 -30 16 0 27 20 27 51 0 11 7
19 17 19 9 0 25 8 35 17 15 14 18 14 13 2 -3 -9 1 -21 9 -28 22 -18 75 -4 86
22 8 21 9 20 9 -5 1 -16 5 -28 9 -28 15 0 32 24 32 46 0 13 5 26 10 29 6 4 10
-10 10 -35 0 -34 3 -41 18 -38 35 7 24 118 -13 118 -7 0 -26 -5 -42 -12 -15
-6 -39 -10 -51 -9 -14 2 -35 -7 -50 -21 -21 -19 -24 -20 -19 -5 11 29 -10 57
-42 57 -15 0 -31 -3 -35 -7z"/>
<path d="M11749 14529 c-7 -14 -8 -24 -1 -31 18 -18 -6 -66 -38 -73 -15 -3
-38 -17 -51 -31 l-23 -24 21 -22 c19 -18 27 -20 65 -12 41 9 43 10 56 64 22
90 25 119 12 135 -17 20 -27 19 -41 -6z"/>
<path d="M11555 14520 c-3 -5 -3 -20 1 -33 6 -27 -10 -46 -20 -22 -15 40 -76
-11 -76 -64 0 -29 3 -33 23 -28 12 2 29 8 39 11 11 5 16 3 15 -10 -3 -29 21
-27 37 3 l15 28 -2 -30 c-1 -20 3 -30 14 -33 18 -3 29 24 29 72 0 23 -3 27
-20 23 -17 -4 -18 -1 -13 27 3 17 7 33 9 35 7 7 -18 31 -32 31 -7 0 -15 -4
-19 -10z"/>
<path d="M12357 14473 c-8 -17 -7 -27 1 -35 13 -13 -1 -51 -42 -116 -14 -23
-26 -51 -26 -63 0 -32 32 -19 54 22 16 30 24 35 57 36 43 2 49 -9 23 -46 -14
-19 -23 -22 -50 -18 -37 6 -51 -10 -25 -30 30 -23 67 -15 100 22 34 39 39 66
16 85 -20 17 -19 33 4 54 28 25 32 63 9 91 -15 20 -27 24 -64 23 -38 0 -47 -5
-57 -25z"/>
<path d="M13450 14459 c-32 -13 -80 -59 -80 -76 0 -21 24 -15 49 11 32 34 61
40 61 13 -1 -38 -48 -139 -76 -161 -78 -61 -108 -103 -129 -174 -16 -55 -13
-97 9 -121 20 -22 20 -31 2 -31 -17 0 -40 -54 -32 -75 3 -8 14 -15 25 -15 25
0 65 50 52 63 -6 6 -7 22 -4 37 3 15 0 31 -6 34 -14 9 -14 69 0 121 8 29 29
57 80 105 53 50 74 79 94 127 27 68 32 122 13 141 -14 14 -24 14 -58 1z"/>
<path d="M11835 14408 c-28 -16 -44 -39 -45 -65 0 -26 31 -39 59 -24 13 7 22
8 26 1 3 -5 25 -7 51 -3 l45 6 -7 -29 c-4 -16 -10 -30 -13 -32 -24 -10 -33
-22 -28 -36 14 -35 61 -7 73 42 4 15 16 46 27 70 15 33 17 46 8 55 -9 9 -17 5
-36 -15 -28 -30 -55 -28 -55 4 0 14 -5 18 -16 14 -8 -3 -22 1 -30 9 -18 18
-32 18 -59 3z"/>
<path d="M12525 14307 c-43 -24 -67 -69 -48 -88 9 -9 23 -9 55 -1 34 9 46 8
59 -4 20 -18 29 -9 29 31 0 39 19 57 57 53 20 -2 28 1 28 12 0 11 -13 15 -54
15 l-54 0 -13 -40 -13 -40 5 36 c3 20 2 39 -3 42 -5 3 -27 -4 -48 -16z"/>
<path d="M12926 14241 c-26 -28 -17 -65 15 -69 22 -3 26 -7 21 -25 -8 -34 -22
-47 -52 -47 -34 0 -47 -26 -21 -40 25 -13 78 6 92 33 10 17 39 138 39 159 0
17 -77 8 -94 -11z"/>
</g>
</svg>
