<?xml version="1.0" standalone="no"?>
<!DOCTYPE svg PUBLIC "-//W3C//DTD SVG 20010904//EN"
 "http://www.w3.org/TR/2001/REC-SVG-20010904/DTD/svg10.dtd">
<svg version="1.0" xmlns="http://www.w3.org/2000/svg"
 width="479.000000pt" height="629.000000pt" viewBox="0 0 479.000000 629.000000"
 preserveAspectRatio="xMidYMid meet">
<metadata>
Created by potrace 1.15, written by Peter Selinger 2001-2017
</metadata>
<g transform="translate(0.000000,629.000000) scale(0.100000,-0.100000)"
fill="#000000" stroke="none">
<path d="M1195 6214 c-55 -36 -112 -72 -127 -80 -35 -18 -74 -60 -93 -101 -9
-17 -28 -45 -44 -60 -47 -47 -74 -113 -133 -323 -43 -155 -45 -162 -57 -195
-5 -16 -17 -64 -26 -105 -9 -41 -26 -88 -37 -103 -11 -16 -17 -35 -14 -43 3
-7 -1 -32 -9 -54 -8 -22 -12 -40 -10 -40 2 0 -2 -15 -10 -34 -8 -18 -12 -36
-9 -39 3 -3 -1 -18 -9 -34 -21 -38 -29 -63 -34 -98 -3 -16 -9 -35 -14 -41 -5
-6 -14 -35 -19 -65 -6 -30 -18 -60 -27 -66 -9 -7 -13 -13 -8 -13 4 0 0 -9 -10
-20 -10 -11 -15 -20 -10 -20 4 0 0 -11 -8 -24 -12 -18 -13 -26 -4 -35 8 -8 8
-14 2 -19 -6 -4 -10 -18 -10 -32 0 -14 -4 -41 -8 -60 -5 -19 -8 -43 -8 -52 0
-10 -4 -20 -10 -23 -5 -4 -9 -21 -9 -38 0 -18 -6 -41 -14 -52 -7 -11 -16 -33
-20 -50 -4 -16 -14 -37 -21 -45 -8 -8 -16 -26 -18 -40 -2 -14 -7 -33 -12 -42
-4 -10 -5 -25 -1 -33 3 -8 0 -15 -6 -15 -6 0 -8 -11 -4 -30 3 -18 1 -30 -5
-30 -6 0 -17 -7 -25 -15 -9 -8 -11 -15 -5 -15 30 0 -9 -148 -44 -167 -14 -8
-15 -11 -15 -38 0 -8 -7 -15 -15 -15 -9 0 -15 -10 -15 -26 0 -14 4 -23 10 -19
5 3 10 2 10 -4 0 -5 -5 -13 -10 -16 -6 -4 -8 -11 -5 -16 4 -5 -5 -9 -19 -9
-25 0 -38 -20 -13 -20 6 0 4 -5 -6 -11 -9 -6 -15 -14 -12 -18 2 -5 -2 -14 -10
-21 -9 -8 -13 -21 -9 -35 3 -13 0 -26 -7 -30 -8 -6 -10 -4 -4 6 5 8 4 11 0 6
-5 -4 -10 -16 -12 -27 -2 -14 1 -18 14 -13 10 4 14 2 9 -5 -3 -6 2 -13 13 -17
12 -4 18 -12 14 -21 -3 -7 0 -14 7 -14 6 0 8 5 5 10 -3 6 -2 10 3 10 5 0 9 7
9 15 0 11 -6 13 -21 9 -19 -6 -19 -5 -4 10 20 20 32 20 47 2 8 -10 9 -16 1
-21 -5 -3 -10 -14 -10 -24 0 -31 -36 -32 -60 -2 -13 15 -20 19 -17 9 4 -11 -2
-23 -16 -33 l-21 -15 22 0 c12 0 22 -4 22 -10 0 -5 8 -10 18 -9 10 0 12 3 5 6
-7 2 -13 9 -13 14 0 5 9 4 20 -3 20 -13 27 -29 12 -27 -19 3 -25 -2 -12 -11
10 -6 11 -10 3 -10 -19 0 -15 -18 5 -23 14 -3 13 -6 -8 -15 -14 -6 -18 -11
-10 -12 12 0 12 -2 2 -9 -11 -7 -11 -9 2 -14 18 -7 22 -27 6 -27 -6 0 -17 -6
-24 -12 -12 -11 -12 -17 0 -39 7 -15 11 -29 8 -32 -12 -12 -14 -57 -2 -57 10
0 9 -3 -1 -9 -7 -5 -10 -14 -7 -20 9 -14 -16 -15 -30 -1 -5 5 -35 25 -67 44
l-57 35 0 -1605 0 -1604 645 0 645 0 0 25 c0 14 3 25 6 25 3 0 15 -11 26 -25
23 -29 35 -32 41 -8 4 17 5 17 6 1 1 -17 25 -18 345 -18 l344 0 6 138 c4 75 6
156 7 179 0 24 4 43 9 43 11 0 183 -190 216 -239 22 -34 25 -48 20 -81 l-6
-40 214 0 213 0 79 57 c44 31 96 71 116 88 76 64 121 79 263 86 72 4 181 17
244 29 63 11 139 20 170 18 l55 -3 32 -55 c18 -30 29 -58 26 -62 -4 -3 -23 -9
-43 -13 -31 -6 -37 -4 -42 15 -5 18 -10 20 -39 15 -18 -3 -60 -7 -93 -9 -130
-8 -164 -17 -182 -47 -10 -16 -29 -31 -45 -34 -35 -8 -53 2 -37 21 16 20 -6
26 -73 20 -66 -5 -90 -17 -163 -79 -22 -19 -47 -37 -55 -40 -8 -3 171 -6 398
-6 314 -1 412 2 412 11 0 9 3 9 12 0 9 -9 97 -12 335 -12 318 0 323 0 375 24
111 50 148 65 148 60 0 -3 -37 -23 -82 -44 l-83 -39 163 0 162 -1 0 3114 0
3114 -25 16 c-42 27 -51 21 -69 -51 -17 -66 -51 -156 -68 -179 -5 -7 -18 -10
-28 -7 -12 3 -20 0 -20 -7 0 -15 -88 -5 -139 16 -51 21 -70 18 -77 -13 -3 -16
-7 -34 -10 -41 -4 -14 -51 -38 -60 -29 -3 3 0 39 7 81 13 74 12 76 -11 101
-20 21 -30 24 -55 19 -16 -3 -34 -10 -40 -14 -14 -11 -78 12 -119 43 -18 14
-41 42 -50 61 l-17 36 -1357 0 -1358 0 -99 -66z m2550 -335 c41 -11 105 -53
105 -69 0 -5 -15 -6 -33 -3 l-34 5 11 -46 c6 -25 14 -46 19 -46 4 0 3 -8 -2
-18 -6 -12 -5 -23 4 -35 15 -21 8 -67 -10 -67 -19 0 -29 -38 -15 -55 7 -8 16
-12 21 -9 5 3 9 0 9 -6 0 -7 -7 -10 -15 -6 -8 3 -15 1 -15 -4 0 -21 -122 -30
-158 -11 -12 6 -22 8 -22 4 -1 -25 -20 28 -20 54 0 17 -3 34 -8 37 -4 2 -6
-14 -4 -37 l4 -42 -26 25 c-25 22 -25 25 -9 31 12 5 13 8 4 8 -11 1 -8 7 7 24
17 18 19 24 8 24 -8 0 -13 -4 -10 -8 2 -4 -4 -13 -15 -19 -27 -14 -31 -4 -37
81 -3 59 -1 77 16 103 27 44 52 66 97 82 47 16 76 17 128 3z m725 -297 c80
-13 121 -33 167 -86 46 -52 44 -41 63 -396 11 -227 2 -337 -36 -417 -21 -44
-32 -54 -69 -69 -32 -12 -59 -15 -94 -10 l-50 7 -6 -38 c-10 -57 -25 -103 -35
-103 -10 0 -27 -48 -39 -113 -6 -33 -4 -67 5 -110 20 -95 18 -236 -6 -303 -19
-56 -19 -56 0 -95 11 -21 20 -45 20 -53 0 -36 32 -96 52 -96 10 0 17 4 14 9
-6 9 63 -1 81 -12 6 -4 9 -15 6 -26 -3 -13 2 -20 21 -25 25 -6 37 -26 16 -26
-5 0 -10 -6 -10 -14 0 -21 -65 -39 -117 -33 -42 4 -44 3 -63 -32 -26 -52 -42
-62 -86 -58 -42 4 -38 -2 -60 105 -4 21 -34 32 -34 12 0 -6 -3 -9 -7 -8 -5 1
-19 -4 -33 -12 -35 -20 -50 -21 -57 -4 -3 8 -9 11 -14 8 -5 -3 -9 -2 -8 3 4
21 -2 33 -16 33 -8 0 -20 8 -26 19 -8 12 -19 16 -33 13 -18 -5 -19 -3 -8 10
11 14 10 17 -10 20 -20 3 -23 9 -23 45 0 24 3 43 6 43 4 0 14 15 23 34 18 39
14 73 -23 164 -37 93 -47 197 -45 492 2 293 6 432 21 680 11 178 24 215 89
262 50 36 105 45 161 25 23 -8 45 -11 50 -8 5 3 17 38 28 76 27 106 29 108 83
101 26 -3 72 -9 102 -14z m-2394 -3066 c44 -7 56 -115 17 -152 -29 -28 -42
-27 -55 1 -8 18 -17 24 -29 20 -23 -8 -50 41 -39 70 4 11 5 24 3 28 -3 4 9 13
26 20 17 6 31 15 31 20 0 5 8 6 18 2 9 -4 22 -8 28 -9z m-576 -1841 c0 -24 37
-132 58 -171 21 -38 43 -124 37 -144 -4 -13 -1 -22 9 -26 21 -8 20 -39 -1 -76
-18 -29 -18 -30 5 -49 22 -17 22 -20 8 -34 -12 -12 -13 -22 -6 -41 13 -32 13
-44 0 -44 -6 0 -15 12 -21 26 -5 15 -21 40 -34 56 -14 16 -25 39 -25 51 0 11
-6 46 -14 76 -43 169 -65 368 -44 389 19 19 28 14 28 -13z"/>
<path d="M126 4672 c-21 -11 -31 -12 -34 -4 -4 13 -34 15 -69 6 l-23 -6 0
-522 0 -521 48 75 c26 41 81 120 122 174 l73 100 -34 28 c-18 15 -39 28 -45
28 -7 0 -25 15 -42 34 -71 81 -57 283 24 352 23 19 25 28 28 130 3 108 -1 145
-13 143 -3 -1 -19 -8 -35 -17z"/>
</g>
</svg>
